%TF.GenerationSoftware,KiCad,Pcbnew,7.0.8*%
%TF.CreationDate,2023-11-06T16:26:03-06:00*%
%TF.ProjectId,KiCAD Design,4b694341-4420-4446-9573-69676e2e6b69,rev?*%
%TF.SameCoordinates,Original*%
%TF.FileFunction,Paste,Top*%
%TF.FilePolarity,Positive*%
%FSLAX46Y46*%
G04 Gerber Fmt 4.6, Leading zero omitted, Abs format (unit mm)*
G04 Created by KiCad (PCBNEW 7.0.8) date 2023-11-06 16:26:03*
%MOMM*%
%LPD*%
G01*
G04 APERTURE LIST*
G04 Aperture macros list*
%AMRoundRect*
0 Rectangle with rounded corners*
0 $1 Rounding radius*
0 $2 $3 $4 $5 $6 $7 $8 $9 X,Y pos of 4 corners*
0 Add a 4 corners polygon primitive as box body*
4,1,4,$2,$3,$4,$5,$6,$7,$8,$9,$2,$3,0*
0 Add four circle primitives for the rounded corners*
1,1,$1+$1,$2,$3*
1,1,$1+$1,$4,$5*
1,1,$1+$1,$6,$7*
1,1,$1+$1,$8,$9*
0 Add four rect primitives between the rounded corners*
20,1,$1+$1,$2,$3,$4,$5,0*
20,1,$1+$1,$4,$5,$6,$7,0*
20,1,$1+$1,$6,$7,$8,$9,0*
20,1,$1+$1,$8,$9,$2,$3,0*%
G04 Aperture macros list end*
%ADD10RoundRect,0.140000X-0.140000X-0.170000X0.140000X-0.170000X0.140000X0.170000X-0.140000X0.170000X0*%
%ADD11RoundRect,0.225000X0.225000X0.250000X-0.225000X0.250000X-0.225000X-0.250000X0.225000X-0.250000X0*%
%ADD12RoundRect,0.140000X0.140000X0.170000X-0.140000X0.170000X-0.140000X-0.170000X0.140000X-0.170000X0*%
%ADD13R,1.000000X2.500000*%
%ADD14R,1.500000X2.000000*%
%ADD15R,3.800000X2.000000*%
%ADD16RoundRect,0.135000X-0.135000X-0.185000X0.135000X-0.185000X0.135000X0.185000X-0.135000X0.185000X0*%
%ADD17RoundRect,0.135000X0.135000X0.185000X-0.135000X0.185000X-0.135000X-0.185000X0.135000X-0.185000X0*%
%ADD18RoundRect,0.250000X0.250000X0.475000X-0.250000X0.475000X-0.250000X-0.475000X0.250000X-0.475000X0*%
%ADD19R,1.200000X1.400000*%
%ADD20RoundRect,0.140000X0.170000X-0.140000X0.170000X0.140000X-0.170000X0.140000X-0.170000X-0.140000X0*%
%ADD21RoundRect,0.075000X-0.662500X-0.075000X0.662500X-0.075000X0.662500X0.075000X-0.662500X0.075000X0*%
%ADD22RoundRect,0.075000X-0.075000X-0.662500X0.075000X-0.662500X0.075000X0.662500X-0.075000X0.662500X0*%
%ADD23RoundRect,0.140000X-0.170000X0.140000X-0.170000X-0.140000X0.170000X-0.140000X0.170000X0.140000X0*%
%ADD24R,0.800000X1.500000*%
%ADD25R,1.450000X2.000000*%
%ADD26RoundRect,0.250000X-0.255000X-0.255000X0.255000X-0.255000X0.255000X0.255000X-0.255000X0.255000X0*%
%ADD27RoundRect,0.062500X-0.350000X-0.062500X0.350000X-0.062500X0.350000X0.062500X-0.350000X0.062500X0*%
%ADD28RoundRect,0.062500X-0.062500X-0.350000X0.062500X-0.350000X0.062500X0.350000X-0.062500X0.350000X0*%
%ADD29RoundRect,0.147500X-0.147500X-0.172500X0.147500X-0.172500X0.147500X0.172500X-0.147500X0.172500X0*%
%ADD30R,0.800000X1.000000*%
%ADD31R,1.500000X0.700000*%
%ADD32RoundRect,0.147500X-0.172500X0.147500X-0.172500X-0.147500X0.172500X-0.147500X0.172500X0.147500X0*%
%ADD33RoundRect,0.218750X0.256250X-0.218750X0.256250X0.218750X-0.256250X0.218750X-0.256250X-0.218750X0*%
%ADD34RoundRect,0.218750X-0.256250X0.218750X-0.256250X-0.218750X0.256250X-0.218750X0.256250X0.218750X0*%
%ADD35RoundRect,0.250000X-0.475000X0.250000X-0.475000X-0.250000X0.475000X-0.250000X0.475000X0.250000X0*%
%ADD36R,1.400000X1.200000*%
%ADD37RoundRect,0.225000X-0.250000X0.225000X-0.250000X-0.225000X0.250000X-0.225000X0.250000X0.225000X0*%
%ADD38RoundRect,0.135000X-0.185000X0.135000X-0.185000X-0.135000X0.185000X-0.135000X0.185000X0.135000X0*%
%ADD39RoundRect,0.135000X0.185000X-0.135000X0.185000X0.135000X-0.185000X0.135000X-0.185000X-0.135000X0*%
%ADD40R,1.300000X0.450000*%
%ADD41RoundRect,0.225000X-0.225000X-0.250000X0.225000X-0.250000X0.225000X0.250000X-0.225000X0.250000X0*%
G04 APERTURE END LIST*
D10*
%TO.C,C30*%
X172540000Y-106780000D03*
X173500000Y-106780000D03*
%TD*%
D11*
%TO.C,C19*%
X165275000Y-91250000D03*
X163725000Y-91250000D03*
%TD*%
D12*
%TO.C,C22*%
X179750000Y-101280000D03*
X178790000Y-101280000D03*
%TD*%
D10*
%TO.C,C3*%
X156290000Y-93250000D03*
X157250000Y-93250000D03*
%TD*%
D13*
%TO.C,U4*%
X153300000Y-87500000D03*
X155840000Y-87500000D03*
X158380000Y-87500000D03*
X160920000Y-87500000D03*
X163460000Y-87500000D03*
X166000000Y-87500000D03*
X166000000Y-72000000D03*
X163460000Y-72000000D03*
X160920000Y-72000000D03*
X158380000Y-72000000D03*
X155840000Y-72000000D03*
X153300000Y-72000000D03*
%TD*%
D14*
%TO.C,U2*%
X175545000Y-86030000D03*
X177845000Y-86030000D03*
D15*
X177845000Y-79730000D03*
D14*
X180145000Y-86030000D03*
%TD*%
D16*
%TO.C,R1*%
X151150000Y-91400000D03*
X152170000Y-91400000D03*
%TD*%
D17*
%TO.C,R8*%
X156260000Y-108250000D03*
X155240000Y-108250000D03*
%TD*%
D18*
%TO.C,C12*%
X174950000Y-88500000D03*
X173050000Y-88500000D03*
%TD*%
D19*
%TO.C,Y1*%
X147800000Y-95590000D03*
X147800000Y-97790000D03*
X149500000Y-97790000D03*
X149500000Y-95590000D03*
%TD*%
D12*
%TO.C,C6*%
X153250000Y-100675000D03*
X152290000Y-100675000D03*
%TD*%
D20*
%TO.C,C21*%
X175250000Y-105180000D03*
X175250000Y-104220000D03*
%TD*%
D21*
%TO.C,U1*%
X155675000Y-96550000D03*
X155675000Y-97050000D03*
X155675000Y-97550000D03*
X155675000Y-98050000D03*
X155675000Y-98550000D03*
X155675000Y-99050000D03*
X155675000Y-99550000D03*
X155675000Y-100050000D03*
X155675000Y-100550000D03*
X155675000Y-101050000D03*
X155675000Y-101550000D03*
X155675000Y-102050000D03*
D22*
X157087500Y-103462500D03*
X157587500Y-103462500D03*
X158087500Y-103462500D03*
X158587500Y-103462500D03*
X159087500Y-103462500D03*
X159587500Y-103462500D03*
X160087500Y-103462500D03*
X160587500Y-103462500D03*
X161087500Y-103462500D03*
X161587500Y-103462500D03*
X162087500Y-103462500D03*
X162587500Y-103462500D03*
D21*
X164000000Y-102050000D03*
X164000000Y-101550000D03*
X164000000Y-101050000D03*
X164000000Y-100550000D03*
X164000000Y-100050000D03*
X164000000Y-99550000D03*
X164000000Y-99050000D03*
X164000000Y-98550000D03*
X164000000Y-98050000D03*
X164000000Y-97550000D03*
X164000000Y-97050000D03*
X164000000Y-96550000D03*
D22*
X162587500Y-95137500D03*
X162087500Y-95137500D03*
X161587500Y-95137500D03*
X161087500Y-95137500D03*
X160587500Y-95137500D03*
X160087500Y-95137500D03*
X159587500Y-95137500D03*
X159087500Y-95137500D03*
X158587500Y-95137500D03*
X158087500Y-95137500D03*
X157587500Y-95137500D03*
X157087500Y-95137500D03*
%TD*%
D23*
%TO.C,C2*%
X165750000Y-95840000D03*
X165750000Y-96800000D03*
%TD*%
D24*
%TO.C,J5*%
X162750000Y-121627500D03*
X161650000Y-121627500D03*
X160550000Y-121627500D03*
X159450000Y-121627500D03*
X158350000Y-121627500D03*
X157250000Y-121627500D03*
X156150000Y-121627500D03*
X155050000Y-121627500D03*
D25*
X166425000Y-124227500D03*
X166425000Y-115927500D03*
X152675000Y-124227500D03*
X152675000Y-115927500D03*
%TD*%
D26*
%TO.C,U5*%
X169437500Y-101405000D03*
X169437500Y-102655000D03*
X170687500Y-101405000D03*
X170687500Y-102655000D03*
D27*
X168125000Y-101030000D03*
X168125000Y-101530000D03*
X168125000Y-102030000D03*
X168125000Y-102530000D03*
X168125000Y-103030000D03*
D28*
X169062500Y-103967500D03*
X169562500Y-103967500D03*
X170062500Y-103967500D03*
X170562500Y-103967500D03*
X171062500Y-103967500D03*
D27*
X172000000Y-103030000D03*
X172000000Y-102530000D03*
X172000000Y-102030000D03*
X172000000Y-101530000D03*
X172000000Y-101030000D03*
D28*
X171062500Y-100092500D03*
X170562500Y-100092500D03*
X170062500Y-100092500D03*
X169562500Y-100092500D03*
X169062500Y-100092500D03*
%TD*%
D29*
%TO.C,L3*%
X174780000Y-101280000D03*
X175750000Y-101280000D03*
%TD*%
D30*
%TO.C,SW1*%
X146650000Y-86200000D03*
X144440000Y-86200000D03*
X146650000Y-93500000D03*
X144440000Y-93500000D03*
D31*
X147300000Y-87600000D03*
X147300000Y-90600000D03*
X147300000Y-92100000D03*
%TD*%
D10*
%TO.C,C24*%
X170290000Y-98780000D03*
X171250000Y-98780000D03*
%TD*%
D17*
%TO.C,R9*%
X160280000Y-107000000D03*
X159260000Y-107000000D03*
%TD*%
D10*
%TO.C,C26*%
X168890000Y-105280000D03*
X169850000Y-105280000D03*
%TD*%
D12*
%TO.C,C31*%
X157950000Y-110750000D03*
X156990000Y-110750000D03*
%TD*%
%TO.C,C9*%
X153730000Y-99500000D03*
X152770000Y-99500000D03*
%TD*%
D10*
%TO.C,C17*%
X159960000Y-89750000D03*
X160920000Y-89750000D03*
%TD*%
D12*
%TO.C,C8*%
X151500000Y-103750000D03*
X150540000Y-103750000D03*
%TD*%
D23*
%TO.C,C11*%
X151250000Y-97290000D03*
X151250000Y-98250000D03*
%TD*%
D32*
%TO.C,L1*%
X177500000Y-102530000D03*
X177500000Y-103500000D03*
%TD*%
D33*
%TO.C,D1*%
X170595000Y-84855000D03*
X170595000Y-83280000D03*
%TD*%
D34*
%TO.C,FB1*%
X153000000Y-102175000D03*
X153000000Y-103750000D03*
%TD*%
D12*
%TO.C,C28*%
X169210000Y-98780000D03*
X168250000Y-98780000D03*
%TD*%
D20*
%TO.C,C20*%
X173500000Y-105180000D03*
X173500000Y-104220000D03*
%TD*%
D29*
%TO.C,L2*%
X174780000Y-102530000D03*
X175750000Y-102530000D03*
%TD*%
D35*
%TO.C,C13*%
X172845000Y-83380000D03*
X172845000Y-85280000D03*
%TD*%
D12*
%TO.C,C32*%
X157950000Y-109500000D03*
X156990000Y-109500000D03*
%TD*%
D36*
%TO.C,Y2*%
X170800000Y-109980000D03*
X173000000Y-109980000D03*
X173000000Y-108280000D03*
X170800000Y-108280000D03*
%TD*%
D20*
%TO.C,C4*%
X153800000Y-96480000D03*
X153800000Y-95520000D03*
%TD*%
D12*
%TO.C,C29*%
X171110000Y-106780000D03*
X170150000Y-106780000D03*
%TD*%
%TO.C,C7*%
X151500000Y-102250000D03*
X150540000Y-102250000D03*
%TD*%
D16*
%TO.C,R7*%
X156250000Y-107000000D03*
X157270000Y-107000000D03*
%TD*%
D12*
%TO.C,C1*%
X163360000Y-105200000D03*
X162400000Y-105200000D03*
%TD*%
D37*
%TO.C,C5*%
X167250000Y-94725000D03*
X167250000Y-96275000D03*
%TD*%
D38*
%TO.C,R2*%
X170050000Y-93980000D03*
X170050000Y-95000000D03*
%TD*%
D20*
%TO.C,C10*%
X151250000Y-96255000D03*
X151250000Y-95295000D03*
%TD*%
D16*
%TO.C,R6*%
X172480000Y-98780000D03*
X173500000Y-98780000D03*
%TD*%
D39*
%TO.C,R3*%
X170345000Y-87280000D03*
X170345000Y-86260000D03*
%TD*%
D23*
%TO.C,C25*%
X173500000Y-100320000D03*
X173500000Y-101280000D03*
%TD*%
D12*
%TO.C,C18*%
X164420000Y-89750000D03*
X163460000Y-89750000D03*
%TD*%
D16*
%TO.C,R10*%
X160240000Y-108250000D03*
X161260000Y-108250000D03*
%TD*%
D12*
%TO.C,C23*%
X179730000Y-102530000D03*
X178770000Y-102530000D03*
%TD*%
D40*
%TO.C,J1*%
X179400000Y-96305000D03*
X179400000Y-95655000D03*
X179400000Y-95005000D03*
X179400000Y-94355000D03*
X179400000Y-93705000D03*
%TD*%
D41*
%TO.C,C27*%
X170375000Y-97400000D03*
X171925000Y-97400000D03*
%TD*%
M02*
