%TF.GenerationSoftware,KiCad,Pcbnew,7.0.8*%
%TF.CreationDate,2023-11-06T16:26:03-06:00*%
%TF.ProjectId,KiCAD Design,4b694341-4420-4446-9573-69676e2e6b69,rev?*%
%TF.SameCoordinates,Original*%
%TF.FileFunction,Copper,L2,Bot*%
%TF.FilePolarity,Positive*%
%FSLAX46Y46*%
G04 Gerber Fmt 4.6, Leading zero omitted, Abs format (unit mm)*
G04 Created by KiCad (PCBNEW 7.0.8) date 2023-11-06 16:26:03*
%MOMM*%
%LPD*%
G01*
G04 APERTURE LIST*
%TA.AperFunction,ComponentPad*%
%ADD10R,1.700000X1.700000*%
%TD*%
%TA.AperFunction,ComponentPad*%
%ADD11O,1.700000X1.700000*%
%TD*%
%TA.AperFunction,ComponentPad*%
%ADD12O,1.800000X1.150000*%
%TD*%
%TA.AperFunction,ComponentPad*%
%ADD13O,2.000000X1.450000*%
%TD*%
%TA.AperFunction,ViaPad*%
%ADD14C,0.800000*%
%TD*%
%TA.AperFunction,ViaPad*%
%ADD15C,0.700000*%
%TD*%
%TA.AperFunction,Conductor*%
%ADD16C,0.300000*%
%TD*%
%TA.AperFunction,Conductor*%
%ADD17C,0.500000*%
%TD*%
G04 APERTURE END LIST*
D10*
%TO.P,J3,1,Pin_1*%
%TO.N,+3.3V*%
X146250000Y-107000000D03*
D11*
%TO.P,J3,2,Pin_2*%
%TO.N,/UART2_TX*%
X146250000Y-109540000D03*
%TO.P,J3,3,Pin_3*%
%TO.N,/UART2_RX*%
X146250000Y-112080000D03*
%TO.P,J3,4,Pin_4*%
%TO.N,GND*%
X146250000Y-114620000D03*
%TD*%
D10*
%TO.P,J2,1,Pin_1*%
%TO.N,+3.3V*%
X177550000Y-72000000D03*
D11*
%TO.P,J2,2,Pin_2*%
%TO.N,/SWDIO*%
X175010000Y-72000000D03*
%TO.P,J2,3,Pin_3*%
%TO.N,/SWCLK*%
X172470000Y-72000000D03*
%TO.P,J2,4,Pin_4*%
%TO.N,GND*%
X169930000Y-72000000D03*
%TD*%
D12*
%TO.P,J1,6,Shield*%
%TO.N,unconnected-(J1-Shield-Pad6)*%
X183250000Y-98880000D03*
D13*
X179450000Y-98730000D03*
X179450000Y-91280000D03*
D12*
X183250000Y-91130000D03*
%TD*%
D14*
%TO.N,+3.3V*%
X163350000Y-85800000D03*
X166010706Y-94260706D03*
X154500000Y-90600000D03*
X171450000Y-94100000D03*
X180850000Y-100500000D03*
X162500000Y-109500000D03*
X157750000Y-112250000D03*
X171250000Y-96254500D03*
X159500000Y-112250000D03*
X161800500Y-85749500D03*
X167350000Y-82000000D03*
X154170023Y-102920023D03*
X169799500Y-82000000D03*
X180950000Y-103900000D03*
X157463892Y-105913892D03*
X164282523Y-92532523D03*
X160500000Y-109500000D03*
X154500000Y-92200000D03*
%TO.N,GND*%
X156800000Y-92150000D03*
X150625000Y-124225000D03*
X174650000Y-107200000D03*
X171550000Y-87800000D03*
X162450000Y-106300000D03*
X168875000Y-106550000D03*
X173250000Y-86750000D03*
X173150000Y-97500000D03*
X146150000Y-97700000D03*
X166675000Y-89850000D03*
X174650000Y-109900000D03*
X168500000Y-124225000D03*
X151350000Y-99400000D03*
X174800000Y-100025000D03*
X149150000Y-87600000D03*
D15*
X155300000Y-94800000D03*
D14*
X172250000Y-86750000D03*
X168500000Y-115925000D03*
X171550000Y-88800000D03*
X153250000Y-74250000D03*
X168750000Y-74500000D03*
X160675000Y-91025000D03*
X178950000Y-103600000D03*
X177150000Y-93800000D03*
X169050000Y-97650000D03*
X168775000Y-95100000D03*
X149250000Y-102300000D03*
X157250000Y-119875000D03*
X150600000Y-115925000D03*
X176450000Y-105200000D03*
X157497700Y-108252300D03*
X149250000Y-93800000D03*
%TO.N,VBUS*%
X175750000Y-93800000D03*
X176550000Y-96400000D03*
%TO.N,SPI2_SCK*%
X164500000Y-103500000D03*
X166500000Y-101500000D03*
%TD*%
D16*
%TO.N,SPI2_SCK*%
X166500000Y-101500000D02*
X164500000Y-103500000D01*
D17*
%TO.N,+3.3V*%
X154470023Y-102920023D02*
X157463892Y-105913892D01*
X154170023Y-102920023D02*
X154470023Y-102920023D01*
X163299500Y-85749500D02*
X163350000Y-85800000D01*
X167350000Y-82000000D02*
X169799500Y-82000000D01*
X180950000Y-100600000D02*
X180850000Y-100500000D01*
X171250000Y-94300000D02*
X171250000Y-96254500D01*
X162500000Y-109500000D02*
X160500000Y-109500000D01*
X161800500Y-85749500D02*
X163299500Y-85749500D01*
X180950000Y-103900000D02*
X180950000Y-100600000D01*
X166010706Y-94260706D02*
X164282523Y-92532523D01*
X171450000Y-94100000D02*
X171250000Y-94300000D01*
X154500000Y-90600000D02*
X154500000Y-92200000D01*
X157750000Y-112250000D02*
X159500000Y-112250000D01*
D16*
%TO.N,VBUS*%
X176550000Y-96400000D02*
X176550000Y-94600000D01*
X176550000Y-94600000D02*
X175750000Y-93800000D01*
%TD*%
%TA.AperFunction,Conductor*%
%TO.N,GND*%
G36*
X182251619Y-68500584D02*
G01*
X182383628Y-68507503D01*
X182567027Y-68517803D01*
X182573212Y-68518465D01*
X182725647Y-68542608D01*
X182888194Y-68570226D01*
X182893811Y-68571453D01*
X183046693Y-68612418D01*
X183139122Y-68639046D01*
X183201724Y-68657082D01*
X183206759Y-68658769D01*
X183356183Y-68716127D01*
X183504007Y-68777358D01*
X183508412Y-68779388D01*
X183574180Y-68812899D01*
X183651921Y-68852511D01*
X183727428Y-68894241D01*
X183791480Y-68929641D01*
X183795215Y-68931882D01*
X183869487Y-68980115D01*
X183930872Y-69019980D01*
X184018357Y-69082053D01*
X184060764Y-69112142D01*
X184063886Y-69114510D01*
X184188748Y-69215621D01*
X184191034Y-69217567D01*
X184308721Y-69322738D01*
X184311248Y-69325128D01*
X184424870Y-69438750D01*
X184427260Y-69441277D01*
X184532431Y-69558964D01*
X184534385Y-69561260D01*
X184635480Y-69686102D01*
X184637862Y-69689243D01*
X184730019Y-69819127D01*
X184783758Y-69901875D01*
X184818106Y-69954767D01*
X184820364Y-69958531D01*
X184897488Y-70098078D01*
X184970604Y-70241575D01*
X184972643Y-70245997D01*
X185033877Y-70393829D01*
X185091221Y-70543217D01*
X185092916Y-70548273D01*
X185137579Y-70703297D01*
X185178541Y-70856171D01*
X185179778Y-70861835D01*
X185207394Y-71024369D01*
X185231530Y-71176758D01*
X185232196Y-71182985D01*
X185242509Y-71366617D01*
X185249415Y-71498377D01*
X185249500Y-71501623D01*
X185249500Y-123498376D01*
X185249415Y-123501622D01*
X185242509Y-123633382D01*
X185232196Y-123817013D01*
X185231530Y-123823240D01*
X185207394Y-123975630D01*
X185179778Y-124138163D01*
X185178541Y-124143827D01*
X185137579Y-124296702D01*
X185092916Y-124451725D01*
X185091221Y-124456781D01*
X185033877Y-124606170D01*
X184972643Y-124754001D01*
X184970604Y-124758423D01*
X184897488Y-124901921D01*
X184820364Y-125041467D01*
X184818097Y-125045246D01*
X184730019Y-125180872D01*
X184637862Y-125310755D01*
X184635480Y-125313896D01*
X184534385Y-125438738D01*
X184532431Y-125441034D01*
X184427260Y-125558721D01*
X184424870Y-125561248D01*
X184311248Y-125674870D01*
X184308721Y-125677260D01*
X184191034Y-125782431D01*
X184188738Y-125784385D01*
X184063896Y-125885480D01*
X184060755Y-125887862D01*
X183930872Y-125980019D01*
X183795246Y-126068097D01*
X183791467Y-126070364D01*
X183651921Y-126147488D01*
X183508423Y-126220604D01*
X183504001Y-126222643D01*
X183356170Y-126283877D01*
X183206781Y-126341221D01*
X183201725Y-126342916D01*
X183046702Y-126387579D01*
X182893827Y-126428541D01*
X182888163Y-126429778D01*
X182725630Y-126457394D01*
X182573240Y-126481530D01*
X182567013Y-126482196D01*
X182383382Y-126492509D01*
X182251622Y-126499415D01*
X182248376Y-126499500D01*
X146251624Y-126499500D01*
X146248378Y-126499415D01*
X146116617Y-126492509D01*
X145932985Y-126482196D01*
X145926758Y-126481530D01*
X145774369Y-126457394D01*
X145611835Y-126429778D01*
X145606171Y-126428541D01*
X145453297Y-126387579D01*
X145298273Y-126342916D01*
X145293217Y-126341221D01*
X145143829Y-126283877D01*
X144995997Y-126222643D01*
X144991575Y-126220604D01*
X144848078Y-126147488D01*
X144708531Y-126070364D01*
X144704767Y-126068106D01*
X144651875Y-126033758D01*
X144569127Y-125980019D01*
X144439243Y-125887862D01*
X144436102Y-125885480D01*
X144311260Y-125784385D01*
X144308964Y-125782431D01*
X144191277Y-125677260D01*
X144188750Y-125674870D01*
X144075128Y-125561248D01*
X144072738Y-125558721D01*
X143967567Y-125441034D01*
X143965613Y-125438738D01*
X143926848Y-125390867D01*
X143864510Y-125313886D01*
X143862136Y-125310755D01*
X143769980Y-125180872D01*
X143737406Y-125130715D01*
X143681882Y-125045215D01*
X143679641Y-125041480D01*
X143644241Y-124977428D01*
X143602511Y-124901921D01*
X143562899Y-124824180D01*
X143529388Y-124758412D01*
X143527358Y-124754007D01*
X143466122Y-124606170D01*
X143408769Y-124456759D01*
X143407082Y-124451724D01*
X143362420Y-124296702D01*
X143357316Y-124277652D01*
X143321453Y-124143811D01*
X143320226Y-124138194D01*
X143292601Y-123975606D01*
X143268465Y-123823212D01*
X143267803Y-123817027D01*
X143257490Y-123633382D01*
X143250584Y-123501620D01*
X143250542Y-123500000D01*
X144894341Y-123500000D01*
X144914936Y-123735403D01*
X144914938Y-123735413D01*
X144976094Y-123963655D01*
X144976096Y-123963659D01*
X144976097Y-123963663D01*
X145026031Y-124070746D01*
X145075964Y-124177828D01*
X145075965Y-124177830D01*
X145211505Y-124371402D01*
X145378597Y-124538494D01*
X145572169Y-124674034D01*
X145572171Y-124674035D01*
X145786337Y-124773903D01*
X146014592Y-124835063D01*
X146191034Y-124850500D01*
X146308966Y-124850500D01*
X146485408Y-124835063D01*
X146713663Y-124773903D01*
X146927829Y-124674035D01*
X147121401Y-124538495D01*
X147288495Y-124371401D01*
X147424035Y-124177830D01*
X147523903Y-123963663D01*
X147585063Y-123735408D01*
X147605659Y-123500000D01*
X180894341Y-123500000D01*
X180914936Y-123735403D01*
X180914938Y-123735413D01*
X180976094Y-123963655D01*
X180976096Y-123963659D01*
X180976097Y-123963663D01*
X181026031Y-124070746D01*
X181075964Y-124177828D01*
X181075965Y-124177830D01*
X181211505Y-124371402D01*
X181378597Y-124538494D01*
X181572169Y-124674034D01*
X181572171Y-124674035D01*
X181786337Y-124773903D01*
X182014592Y-124835063D01*
X182191034Y-124850500D01*
X182308966Y-124850500D01*
X182485408Y-124835063D01*
X182713663Y-124773903D01*
X182927829Y-124674035D01*
X183121401Y-124538495D01*
X183288495Y-124371401D01*
X183424035Y-124177830D01*
X183523903Y-123963663D01*
X183585063Y-123735408D01*
X183605659Y-123500000D01*
X183585063Y-123264592D01*
X183523903Y-123036337D01*
X183424035Y-122822171D01*
X183424034Y-122822169D01*
X183288494Y-122628597D01*
X183121402Y-122461505D01*
X182927830Y-122325965D01*
X182927828Y-122325964D01*
X182820746Y-122276031D01*
X182713663Y-122226097D01*
X182713659Y-122226096D01*
X182713655Y-122226094D01*
X182485413Y-122164938D01*
X182485403Y-122164936D01*
X182308966Y-122149500D01*
X182191034Y-122149500D01*
X182014596Y-122164936D01*
X182014586Y-122164938D01*
X181786344Y-122226094D01*
X181786335Y-122226098D01*
X181572171Y-122325964D01*
X181572169Y-122325965D01*
X181378597Y-122461505D01*
X181211506Y-122628597D01*
X181211501Y-122628604D01*
X181075967Y-122822165D01*
X181075965Y-122822169D01*
X180976098Y-123036335D01*
X180976094Y-123036344D01*
X180914938Y-123264586D01*
X180914936Y-123264596D01*
X180894341Y-123499999D01*
X180894341Y-123500000D01*
X147605659Y-123500000D01*
X147585063Y-123264592D01*
X147523903Y-123036337D01*
X147424035Y-122822171D01*
X147424034Y-122822169D01*
X147288494Y-122628597D01*
X147121402Y-122461505D01*
X146927830Y-122325965D01*
X146927828Y-122325964D01*
X146820746Y-122276031D01*
X146713663Y-122226097D01*
X146713659Y-122226096D01*
X146713655Y-122226094D01*
X146485413Y-122164938D01*
X146485403Y-122164936D01*
X146308966Y-122149500D01*
X146191034Y-122149500D01*
X146014596Y-122164936D01*
X146014586Y-122164938D01*
X145786344Y-122226094D01*
X145786335Y-122226098D01*
X145572171Y-122325964D01*
X145572169Y-122325965D01*
X145378597Y-122461505D01*
X145211506Y-122628597D01*
X145211501Y-122628604D01*
X145075967Y-122822165D01*
X145075965Y-122822169D01*
X144976098Y-123036335D01*
X144976094Y-123036344D01*
X144914938Y-123264586D01*
X144914936Y-123264596D01*
X144894341Y-123499999D01*
X144894341Y-123500000D01*
X143250542Y-123500000D01*
X143250500Y-123498377D01*
X143250500Y-112080000D01*
X144894341Y-112080000D01*
X144914936Y-112315403D01*
X144914938Y-112315413D01*
X144976094Y-112543655D01*
X144976096Y-112543659D01*
X144976097Y-112543663D01*
X145075965Y-112757830D01*
X145075967Y-112757834D01*
X145211501Y-112951395D01*
X145211506Y-112951402D01*
X145378597Y-113118493D01*
X145378603Y-113118498D01*
X145564594Y-113248730D01*
X145608219Y-113303307D01*
X145615413Y-113372805D01*
X145583890Y-113435160D01*
X145564595Y-113451880D01*
X145378922Y-113581890D01*
X145378920Y-113581891D01*
X145211891Y-113748920D01*
X145211886Y-113748926D01*
X145076400Y-113942420D01*
X145076399Y-113942422D01*
X144976570Y-114156507D01*
X144976567Y-114156513D01*
X144919364Y-114369999D01*
X144919364Y-114370000D01*
X145816314Y-114370000D01*
X145790507Y-114410156D01*
X145750000Y-114548111D01*
X145750000Y-114691889D01*
X145790507Y-114829844D01*
X145816314Y-114870000D01*
X144919364Y-114870000D01*
X144976567Y-115083486D01*
X144976570Y-115083492D01*
X145076399Y-115297578D01*
X145211894Y-115491082D01*
X145378917Y-115658105D01*
X145572421Y-115793600D01*
X145786507Y-115893429D01*
X145786516Y-115893433D01*
X146000000Y-115950634D01*
X146000000Y-115055501D01*
X146107685Y-115104680D01*
X146214237Y-115120000D01*
X146285763Y-115120000D01*
X146392315Y-115104680D01*
X146500000Y-115055501D01*
X146500000Y-115950633D01*
X146713483Y-115893433D01*
X146713492Y-115893429D01*
X146927578Y-115793600D01*
X147121082Y-115658105D01*
X147288105Y-115491082D01*
X147423600Y-115297578D01*
X147523429Y-115083492D01*
X147523432Y-115083486D01*
X147580636Y-114870000D01*
X146683686Y-114870000D01*
X146709493Y-114829844D01*
X146750000Y-114691889D01*
X146750000Y-114548111D01*
X146709493Y-114410156D01*
X146683686Y-114370000D01*
X147580636Y-114370000D01*
X147580635Y-114369999D01*
X147523432Y-114156513D01*
X147523429Y-114156507D01*
X147423600Y-113942422D01*
X147423599Y-113942420D01*
X147288113Y-113748926D01*
X147288108Y-113748920D01*
X147121078Y-113581890D01*
X146935405Y-113451879D01*
X146891780Y-113397302D01*
X146884588Y-113327804D01*
X146916110Y-113265449D01*
X146935406Y-113248730D01*
X147075693Y-113150500D01*
X147121401Y-113118495D01*
X147288495Y-112951401D01*
X147424035Y-112757830D01*
X147523903Y-112543663D01*
X147585063Y-112315408D01*
X147590786Y-112250000D01*
X156844540Y-112250000D01*
X156864326Y-112438256D01*
X156864327Y-112438259D01*
X156922818Y-112618277D01*
X156922821Y-112618284D01*
X157017467Y-112782216D01*
X157144129Y-112922888D01*
X157297265Y-113034148D01*
X157297270Y-113034151D01*
X157470192Y-113111142D01*
X157470197Y-113111144D01*
X157655354Y-113150500D01*
X157655355Y-113150500D01*
X157844644Y-113150500D01*
X157844646Y-113150500D01*
X158029803Y-113111144D01*
X158202730Y-113034151D01*
X158204776Y-113032664D01*
X158216452Y-113024182D01*
X158282258Y-113000702D01*
X158289337Y-113000500D01*
X158960663Y-113000500D01*
X159027702Y-113020185D01*
X159033548Y-113024182D01*
X159047265Y-113034148D01*
X159047270Y-113034151D01*
X159220192Y-113111142D01*
X159220197Y-113111144D01*
X159405354Y-113150500D01*
X159405355Y-113150500D01*
X159594644Y-113150500D01*
X159594646Y-113150500D01*
X159779803Y-113111144D01*
X159952730Y-113034151D01*
X160105871Y-112922888D01*
X160232533Y-112782216D01*
X160327179Y-112618284D01*
X160385674Y-112438256D01*
X160405460Y-112250000D01*
X160385674Y-112061744D01*
X160327179Y-111881716D01*
X160232533Y-111717784D01*
X160105871Y-111577112D01*
X160105870Y-111577111D01*
X159952734Y-111465851D01*
X159952729Y-111465848D01*
X159779807Y-111388857D01*
X159779802Y-111388855D01*
X159634001Y-111357865D01*
X159594646Y-111349500D01*
X159405354Y-111349500D01*
X159372897Y-111356398D01*
X159220197Y-111388855D01*
X159220192Y-111388857D01*
X159047270Y-111465848D01*
X159047265Y-111465851D01*
X159033548Y-111475818D01*
X158967742Y-111499298D01*
X158960663Y-111499500D01*
X158289337Y-111499500D01*
X158222298Y-111479815D01*
X158216452Y-111475818D01*
X158202734Y-111465851D01*
X158202729Y-111465848D01*
X158029807Y-111388857D01*
X158029802Y-111388855D01*
X157884001Y-111357865D01*
X157844646Y-111349500D01*
X157655354Y-111349500D01*
X157622897Y-111356398D01*
X157470197Y-111388855D01*
X157470192Y-111388857D01*
X157297270Y-111465848D01*
X157297265Y-111465851D01*
X157144129Y-111577111D01*
X157017466Y-111717785D01*
X156922821Y-111881715D01*
X156922818Y-111881722D01*
X156864327Y-112061740D01*
X156864326Y-112061744D01*
X156844540Y-112250000D01*
X147590786Y-112250000D01*
X147605659Y-112080000D01*
X147585063Y-111844592D01*
X147523903Y-111616337D01*
X147424035Y-111402171D01*
X147414713Y-111388857D01*
X147288494Y-111208597D01*
X147121402Y-111041506D01*
X147121396Y-111041501D01*
X146935842Y-110911575D01*
X146892217Y-110856998D01*
X146885023Y-110787500D01*
X146916546Y-110725145D01*
X146935842Y-110708425D01*
X146958026Y-110692891D01*
X147121401Y-110578495D01*
X147288495Y-110411401D01*
X147424035Y-110217830D01*
X147523903Y-110003663D01*
X147585063Y-109775408D01*
X147605659Y-109540000D01*
X147602159Y-109500000D01*
X159594540Y-109500000D01*
X159614326Y-109688256D01*
X159614327Y-109688259D01*
X159672818Y-109868277D01*
X159672821Y-109868284D01*
X159767467Y-110032216D01*
X159894129Y-110172888D01*
X160047265Y-110284148D01*
X160047270Y-110284151D01*
X160220192Y-110361142D01*
X160220197Y-110361144D01*
X160405354Y-110400500D01*
X160405355Y-110400500D01*
X160594644Y-110400500D01*
X160594646Y-110400500D01*
X160779803Y-110361144D01*
X160952730Y-110284151D01*
X160954776Y-110282664D01*
X160966452Y-110274182D01*
X161032258Y-110250702D01*
X161039337Y-110250500D01*
X161960663Y-110250500D01*
X162027702Y-110270185D01*
X162033548Y-110274182D01*
X162047265Y-110284148D01*
X162047270Y-110284151D01*
X162220192Y-110361142D01*
X162220197Y-110361144D01*
X162405354Y-110400500D01*
X162405355Y-110400500D01*
X162594644Y-110400500D01*
X162594646Y-110400500D01*
X162779803Y-110361144D01*
X162952730Y-110284151D01*
X163105871Y-110172888D01*
X163232533Y-110032216D01*
X163327179Y-109868284D01*
X163385674Y-109688256D01*
X163405460Y-109500000D01*
X163385674Y-109311744D01*
X163327179Y-109131716D01*
X163232533Y-108967784D01*
X163105871Y-108827112D01*
X163105870Y-108827111D01*
X162952734Y-108715851D01*
X162952729Y-108715848D01*
X162779807Y-108638857D01*
X162779802Y-108638855D01*
X162634001Y-108607865D01*
X162594646Y-108599500D01*
X162405354Y-108599500D01*
X162372897Y-108606398D01*
X162220197Y-108638855D01*
X162220192Y-108638857D01*
X162047270Y-108715848D01*
X162047265Y-108715851D01*
X162033548Y-108725818D01*
X161967742Y-108749298D01*
X161960663Y-108749500D01*
X161039337Y-108749500D01*
X160972298Y-108729815D01*
X160966452Y-108725818D01*
X160952734Y-108715851D01*
X160952729Y-108715848D01*
X160779807Y-108638857D01*
X160779802Y-108638855D01*
X160634001Y-108607865D01*
X160594646Y-108599500D01*
X160405354Y-108599500D01*
X160372897Y-108606398D01*
X160220197Y-108638855D01*
X160220192Y-108638857D01*
X160047270Y-108715848D01*
X160047265Y-108715851D01*
X159894129Y-108827111D01*
X159767466Y-108967785D01*
X159672821Y-109131715D01*
X159672818Y-109131722D01*
X159614327Y-109311740D01*
X159614326Y-109311744D01*
X159594540Y-109500000D01*
X147602159Y-109500000D01*
X147585063Y-109304592D01*
X147523903Y-109076337D01*
X147424035Y-108862171D01*
X147345142Y-108749500D01*
X147288496Y-108668600D01*
X147258751Y-108638855D01*
X147166567Y-108546671D01*
X147133084Y-108485351D01*
X147138068Y-108415659D01*
X147179939Y-108359725D01*
X147210915Y-108342810D01*
X147342331Y-108293796D01*
X147457546Y-108207546D01*
X147543796Y-108092331D01*
X147594091Y-107957483D01*
X147600500Y-107897873D01*
X147600499Y-106102128D01*
X147594091Y-106042517D01*
X147543796Y-105907669D01*
X147543795Y-105907668D01*
X147543793Y-105907664D01*
X147457547Y-105792455D01*
X147457544Y-105792452D01*
X147342335Y-105706206D01*
X147342328Y-105706202D01*
X147207482Y-105655908D01*
X147207483Y-105655908D01*
X147147883Y-105649501D01*
X147147881Y-105649500D01*
X147147873Y-105649500D01*
X147147864Y-105649500D01*
X145352129Y-105649500D01*
X145352123Y-105649501D01*
X145292516Y-105655908D01*
X145157671Y-105706202D01*
X145157664Y-105706206D01*
X145042455Y-105792452D01*
X145042452Y-105792455D01*
X144956206Y-105907664D01*
X144956202Y-105907671D01*
X144905908Y-106042517D01*
X144901007Y-106088109D01*
X144899501Y-106102123D01*
X144899500Y-106102135D01*
X144899500Y-107897870D01*
X144899501Y-107897876D01*
X144905908Y-107957483D01*
X144956202Y-108092328D01*
X144956206Y-108092335D01*
X145042452Y-108207544D01*
X145042455Y-108207547D01*
X145157664Y-108293793D01*
X145157671Y-108293797D01*
X145289081Y-108342810D01*
X145345015Y-108384681D01*
X145369432Y-108450145D01*
X145354580Y-108518418D01*
X145333430Y-108546673D01*
X145211503Y-108668600D01*
X145075965Y-108862169D01*
X145075964Y-108862171D01*
X144976098Y-109076335D01*
X144976094Y-109076344D01*
X144914938Y-109304586D01*
X144914936Y-109304596D01*
X144894341Y-109539999D01*
X144894341Y-109540000D01*
X144914936Y-109775403D01*
X144914938Y-109775413D01*
X144976094Y-110003655D01*
X144976096Y-110003659D01*
X144976097Y-110003663D01*
X144989411Y-110032214D01*
X145075965Y-110217830D01*
X145075967Y-110217834D01*
X145211501Y-110411395D01*
X145211506Y-110411402D01*
X145378597Y-110578493D01*
X145378603Y-110578498D01*
X145564158Y-110708425D01*
X145607783Y-110763002D01*
X145614977Y-110832500D01*
X145583454Y-110894855D01*
X145564158Y-110911575D01*
X145378597Y-111041505D01*
X145211505Y-111208597D01*
X145075965Y-111402169D01*
X145075964Y-111402171D01*
X144976098Y-111616335D01*
X144976094Y-111616344D01*
X144914938Y-111844586D01*
X144914936Y-111844596D01*
X144894341Y-112079999D01*
X144894341Y-112080000D01*
X143250500Y-112080000D01*
X143250500Y-102920023D01*
X153264563Y-102920023D01*
X153284349Y-103108279D01*
X153284350Y-103108282D01*
X153342841Y-103288300D01*
X153342844Y-103288307D01*
X153437490Y-103452239D01*
X153509050Y-103531714D01*
X153564152Y-103592911D01*
X153717288Y-103704171D01*
X153717293Y-103704174D01*
X153890215Y-103781165D01*
X153890220Y-103781167D01*
X154075377Y-103820523D01*
X154075378Y-103820523D01*
X154257793Y-103820523D01*
X154324832Y-103840208D01*
X154345474Y-103856842D01*
X156551120Y-106062487D01*
X156581370Y-106111850D01*
X156636710Y-106282169D01*
X156636713Y-106282176D01*
X156731359Y-106446108D01*
X156858021Y-106586780D01*
X157011157Y-106698040D01*
X157011162Y-106698043D01*
X157184084Y-106775034D01*
X157184089Y-106775036D01*
X157369246Y-106814392D01*
X157369247Y-106814392D01*
X157558536Y-106814392D01*
X157558538Y-106814392D01*
X157743695Y-106775036D01*
X157916622Y-106698043D01*
X158069763Y-106586780D01*
X158196425Y-106446108D01*
X158291071Y-106282176D01*
X158349566Y-106102148D01*
X158369352Y-105913892D01*
X158349566Y-105725636D01*
X158291071Y-105545608D01*
X158196425Y-105381676D01*
X158069763Y-105241004D01*
X158069762Y-105241003D01*
X157916626Y-105129743D01*
X157916621Y-105129740D01*
X157743699Y-105052749D01*
X157743695Y-105052748D01*
X157678561Y-105038903D01*
X157617080Y-105005710D01*
X157616662Y-105005294D01*
X156111368Y-103500000D01*
X163594540Y-103500000D01*
X163614326Y-103688256D01*
X163614327Y-103688259D01*
X163672818Y-103868277D01*
X163672821Y-103868284D01*
X163767467Y-104032216D01*
X163894129Y-104172888D01*
X164047265Y-104284148D01*
X164047270Y-104284151D01*
X164220192Y-104361142D01*
X164220197Y-104361144D01*
X164405354Y-104400500D01*
X164405355Y-104400500D01*
X164594644Y-104400500D01*
X164594646Y-104400500D01*
X164779803Y-104361144D01*
X164952730Y-104284151D01*
X165105871Y-104172888D01*
X165232533Y-104032216D01*
X165327179Y-103868284D01*
X165385674Y-103688256D01*
X165399168Y-103559855D01*
X165425752Y-103495242D01*
X165434799Y-103485145D01*
X166483127Y-102436819D01*
X166544450Y-102403334D01*
X166570808Y-102400500D01*
X166594644Y-102400500D01*
X166594646Y-102400500D01*
X166779803Y-102361144D01*
X166952730Y-102284151D01*
X167105871Y-102172888D01*
X167232533Y-102032216D01*
X167327179Y-101868284D01*
X167385674Y-101688256D01*
X167405460Y-101500000D01*
X167385674Y-101311744D01*
X167327179Y-101131716D01*
X167232533Y-100967784D01*
X167105871Y-100827112D01*
X167090782Y-100816149D01*
X166952734Y-100715851D01*
X166952729Y-100715848D01*
X166779807Y-100638857D01*
X166779802Y-100638855D01*
X166634001Y-100607865D01*
X166594646Y-100599500D01*
X166405354Y-100599500D01*
X166372897Y-100606398D01*
X166220197Y-100638855D01*
X166220192Y-100638857D01*
X166047270Y-100715848D01*
X166047265Y-100715851D01*
X165894129Y-100827111D01*
X165767466Y-100967785D01*
X165672821Y-101131715D01*
X165672818Y-101131722D01*
X165614327Y-101311739D01*
X165614326Y-101311741D01*
X165600831Y-101440142D01*
X165574246Y-101504757D01*
X165565191Y-101514861D01*
X164516873Y-102563181D01*
X164455550Y-102596666D01*
X164429192Y-102599500D01*
X164405354Y-102599500D01*
X164372897Y-102606398D01*
X164220197Y-102638855D01*
X164220192Y-102638857D01*
X164047270Y-102715848D01*
X164047265Y-102715851D01*
X163894129Y-102827111D01*
X163767466Y-102967785D01*
X163672821Y-103131715D01*
X163672818Y-103131722D01*
X163621943Y-103288300D01*
X163614326Y-103311744D01*
X163594540Y-103500000D01*
X156111368Y-103500000D01*
X155045752Y-102434384D01*
X155033972Y-102420753D01*
X155021004Y-102403334D01*
X155019635Y-102401495D01*
X155019633Y-102401493D01*
X154979610Y-102367909D01*
X154975635Y-102364267D01*
X154972510Y-102361142D01*
X154969803Y-102358434D01*
X154944063Y-102338082D01*
X154885232Y-102288717D01*
X154879203Y-102284752D01*
X154879235Y-102284703D01*
X154872876Y-102280651D01*
X154872845Y-102280702D01*
X154866703Y-102276914D01*
X154866701Y-102276913D01*
X154866700Y-102276912D01*
X154797080Y-102244447D01*
X154728456Y-102209983D01*
X154725527Y-102208512D01*
X154708292Y-102198019D01*
X154622757Y-102135874D01*
X154622752Y-102135871D01*
X154449830Y-102058880D01*
X154449825Y-102058878D01*
X154304024Y-102027888D01*
X154264669Y-102019523D01*
X154075377Y-102019523D01*
X154042920Y-102026421D01*
X153890220Y-102058878D01*
X153890215Y-102058880D01*
X153717293Y-102135871D01*
X153717288Y-102135874D01*
X153564152Y-102247134D01*
X153437489Y-102387808D01*
X153342844Y-102551738D01*
X153342841Y-102551745D01*
X153314537Y-102638857D01*
X153284349Y-102731767D01*
X153264563Y-102920023D01*
X143250500Y-102920023D01*
X143250500Y-98785204D01*
X177945786Y-98785204D01*
X177975397Y-99003802D01*
X177975398Y-99003806D01*
X178043564Y-99213600D01*
X178148095Y-99407850D01*
X178148097Y-99407853D01*
X178285634Y-99580320D01*
X178451751Y-99725451D01*
X178451759Y-99725458D01*
X178621898Y-99827112D01*
X178641126Y-99838600D01*
X178847654Y-99916111D01*
X178891063Y-99923988D01*
X179064699Y-99955500D01*
X179064703Y-99955500D01*
X179780025Y-99955500D01*
X179780032Y-99955500D01*
X179905478Y-99944209D01*
X179974011Y-99957805D01*
X180024315Y-100006295D01*
X180040418Y-100074284D01*
X180025181Y-100125661D01*
X180025462Y-100125786D01*
X180024510Y-100127922D01*
X180023982Y-100129705D01*
X180022822Y-100131713D01*
X180022818Y-100131722D01*
X179964327Y-100311740D01*
X179964326Y-100311744D01*
X179944540Y-100500000D01*
X179964326Y-100688256D01*
X179964327Y-100688259D01*
X180022818Y-100868277D01*
X180022821Y-100868284D01*
X180117466Y-101032215D01*
X180167649Y-101087948D01*
X180197880Y-101150940D01*
X180199500Y-101170921D01*
X180199500Y-103365677D01*
X180182887Y-103427677D01*
X180122821Y-103531714D01*
X180064327Y-103711740D01*
X180064326Y-103711744D01*
X180044540Y-103900000D01*
X180064326Y-104088256D01*
X180064327Y-104088259D01*
X180122818Y-104268277D01*
X180122821Y-104268284D01*
X180217467Y-104432216D01*
X180344129Y-104572888D01*
X180497265Y-104684148D01*
X180497270Y-104684151D01*
X180670192Y-104761142D01*
X180670197Y-104761144D01*
X180855354Y-104800500D01*
X180855355Y-104800500D01*
X181044644Y-104800500D01*
X181044646Y-104800500D01*
X181229803Y-104761144D01*
X181402730Y-104684151D01*
X181555871Y-104572888D01*
X181682533Y-104432216D01*
X181777179Y-104268284D01*
X181835674Y-104088256D01*
X181855460Y-103900000D01*
X181835674Y-103711744D01*
X181777179Y-103531716D01*
X181777178Y-103531714D01*
X181717113Y-103427677D01*
X181700500Y-103365677D01*
X181700500Y-100816149D01*
X181706569Y-100777831D01*
X181708407Y-100772171D01*
X181735674Y-100688256D01*
X181755460Y-100500000D01*
X181735674Y-100311744D01*
X181677179Y-100131716D01*
X181582533Y-99967784D01*
X181455871Y-99827112D01*
X181455870Y-99827111D01*
X181302734Y-99715851D01*
X181302729Y-99715848D01*
X181129807Y-99638857D01*
X181129802Y-99638855D01*
X180984001Y-99607865D01*
X180944646Y-99599500D01*
X180849893Y-99599500D01*
X180782854Y-99579815D01*
X180737099Y-99527011D01*
X180727155Y-99457853D01*
X180746406Y-99407189D01*
X180751383Y-99399648D01*
X180808531Y-99313073D01*
X180895230Y-99110231D01*
X180944317Y-98895168D01*
X180947307Y-98828593D01*
X181845832Y-98828593D01*
X181855605Y-99033756D01*
X181904029Y-99233362D01*
X181957528Y-99350508D01*
X181989352Y-99420195D01*
X181989356Y-99420201D01*
X182108489Y-99587501D01*
X182108495Y-99587507D01*
X182257147Y-99729246D01*
X182429933Y-99840290D01*
X182454747Y-99850224D01*
X182620618Y-99916629D01*
X182763718Y-99944209D01*
X182822301Y-99955500D01*
X182822302Y-99955500D01*
X183626226Y-99955500D01*
X183626232Y-99955500D01*
X183779466Y-99940868D01*
X183976541Y-99883001D01*
X184159104Y-99788884D01*
X184320556Y-99661916D01*
X184455061Y-99506689D01*
X184557759Y-99328811D01*
X184624937Y-99134712D01*
X184654168Y-98931407D01*
X184644395Y-98726244D01*
X184595971Y-98526638D01*
X184510647Y-98339804D01*
X184477742Y-98293595D01*
X184391510Y-98172498D01*
X184391504Y-98172492D01*
X184242852Y-98030753D01*
X184070066Y-97919709D01*
X183879391Y-97843374D01*
X183879384Y-97843371D01*
X183879382Y-97843371D01*
X183879379Y-97843370D01*
X183879378Y-97843370D01*
X183677699Y-97804500D01*
X183677698Y-97804500D01*
X182873768Y-97804500D01*
X182720534Y-97819132D01*
X182720530Y-97819133D01*
X182523462Y-97876997D01*
X182340891Y-97971118D01*
X182179446Y-98098081D01*
X182179443Y-98098084D01*
X182044936Y-98253313D01*
X181942242Y-98431185D01*
X181875064Y-98625282D01*
X181875063Y-98625287D01*
X181875063Y-98625288D01*
X181845832Y-98828593D01*
X180947307Y-98828593D01*
X180954214Y-98674796D01*
X180924603Y-98456198D01*
X180913904Y-98423270D01*
X180911907Y-98353429D01*
X180947987Y-98293595D01*
X180958936Y-98284641D01*
X180988504Y-98263159D01*
X180993906Y-98259650D01*
X181032216Y-98237533D01*
X181065071Y-98207948D01*
X181070098Y-98203876D01*
X181105871Y-98177888D01*
X181135453Y-98145032D01*
X181140032Y-98140453D01*
X181172888Y-98110871D01*
X181198876Y-98075098D01*
X181202948Y-98070071D01*
X181232533Y-98037216D01*
X181254650Y-97998906D01*
X181258159Y-97993504D01*
X181284151Y-97957730D01*
X181302136Y-97917333D01*
X181305063Y-97911586D01*
X181327179Y-97873284D01*
X181340842Y-97831228D01*
X181343158Y-97825197D01*
X181361144Y-97784803D01*
X181370336Y-97741551D01*
X181372009Y-97735308D01*
X181385674Y-97693256D01*
X181390295Y-97649283D01*
X181391307Y-97642894D01*
X181400500Y-97599646D01*
X181400500Y-97555445D01*
X181400840Y-97548960D01*
X181401848Y-97539365D01*
X181405460Y-97505000D01*
X181401546Y-97467759D01*
X181400840Y-97461037D01*
X181400500Y-97454553D01*
X181400500Y-97410354D01*
X181391311Y-97367123D01*
X181390295Y-97360709D01*
X181388964Y-97348051D01*
X181385674Y-97316744D01*
X181372011Y-97274698D01*
X181370334Y-97268435D01*
X181368765Y-97261056D01*
X181361144Y-97225197D01*
X181343163Y-97184812D01*
X181340835Y-97178748D01*
X181327179Y-97136716D01*
X181315012Y-97115642D01*
X181305075Y-97098430D01*
X181302127Y-97092644D01*
X181293288Y-97072794D01*
X181284151Y-97052270D01*
X181284149Y-97052267D01*
X181284149Y-97052266D01*
X181258175Y-97016516D01*
X181254638Y-97011070D01*
X181232535Y-96972787D01*
X181232528Y-96972777D01*
X181202954Y-96939934D01*
X181198870Y-96934892D01*
X181172888Y-96899129D01*
X181172884Y-96899125D01*
X181140034Y-96869546D01*
X181135453Y-96864966D01*
X181105871Y-96832112D01*
X181105870Y-96832111D01*
X181105869Y-96832110D01*
X181070119Y-96806137D01*
X181065072Y-96802050D01*
X181032222Y-96772471D01*
X181032212Y-96772464D01*
X180993930Y-96750362D01*
X180993928Y-96750361D01*
X180993926Y-96750359D01*
X180988484Y-96746825D01*
X180952736Y-96720853D01*
X180952732Y-96720850D01*
X180912353Y-96702872D01*
X180906567Y-96699924D01*
X180868284Y-96677821D01*
X180868281Y-96677820D01*
X180868277Y-96677818D01*
X180826242Y-96664160D01*
X180820179Y-96661833D01*
X180779803Y-96643856D01*
X180736569Y-96634666D01*
X180730301Y-96632987D01*
X180719861Y-96629595D01*
X180688256Y-96619325D01*
X180644291Y-96614704D01*
X180637880Y-96613688D01*
X180594647Y-96604500D01*
X180594646Y-96604500D01*
X180405354Y-96604500D01*
X180405351Y-96604500D01*
X180362119Y-96613688D01*
X180355710Y-96614703D01*
X180311743Y-96619325D01*
X180269705Y-96632985D01*
X180263434Y-96634665D01*
X180220195Y-96643856D01*
X180179815Y-96661834D01*
X180173755Y-96664160D01*
X180131719Y-96677819D01*
X180093430Y-96699924D01*
X180087647Y-96702871D01*
X180047267Y-96720850D01*
X180011512Y-96746826D01*
X180006069Y-96750361D01*
X179967788Y-96772463D01*
X179967785Y-96772465D01*
X179934935Y-96802044D01*
X179929889Y-96806130D01*
X179894125Y-96832115D01*
X179864550Y-96864960D01*
X179859960Y-96869550D01*
X179827115Y-96899125D01*
X179801130Y-96934889D01*
X179797044Y-96939935D01*
X179767465Y-96972785D01*
X179767463Y-96972788D01*
X179745361Y-97011069D01*
X179741826Y-97016512D01*
X179715850Y-97052267D01*
X179697871Y-97092647D01*
X179694924Y-97098430D01*
X179672819Y-97136719D01*
X179659160Y-97178755D01*
X179656834Y-97184815D01*
X179638856Y-97225195D01*
X179629665Y-97268434D01*
X179627985Y-97274705D01*
X179614325Y-97316743D01*
X179609703Y-97360710D01*
X179608688Y-97367118D01*
X179600366Y-97406276D01*
X179567176Y-97467759D01*
X179506015Y-97501538D01*
X179479075Y-97504500D01*
X179119968Y-97504500D01*
X179089306Y-97507259D01*
X178955292Y-97519320D01*
X178742661Y-97578002D01*
X178742646Y-97578008D01*
X178543908Y-97673715D01*
X178543900Y-97673719D01*
X178365442Y-97803376D01*
X178365434Y-97803382D01*
X178212994Y-97962822D01*
X178091469Y-98146926D01*
X178066315Y-98205778D01*
X178009030Y-98339804D01*
X178004770Y-98349770D01*
X178004767Y-98349779D01*
X177955684Y-98564826D01*
X177955682Y-98564837D01*
X177950744Y-98674796D01*
X177945786Y-98785204D01*
X143250500Y-98785204D01*
X143250500Y-96254500D01*
X170344540Y-96254500D01*
X170364326Y-96442756D01*
X170364327Y-96442759D01*
X170422818Y-96622777D01*
X170422821Y-96622784D01*
X170517467Y-96786716D01*
X170618681Y-96899125D01*
X170644128Y-96927387D01*
X170644129Y-96927388D01*
X170797265Y-97038648D01*
X170797270Y-97038651D01*
X170970192Y-97115642D01*
X170970197Y-97115644D01*
X171155354Y-97155000D01*
X171155355Y-97155000D01*
X171344644Y-97155000D01*
X171344646Y-97155000D01*
X171529803Y-97115644D01*
X171702730Y-97038651D01*
X171855871Y-96927388D01*
X171982533Y-96786716D01*
X172077179Y-96622784D01*
X172135674Y-96442756D01*
X172155460Y-96254500D01*
X172135674Y-96066244D01*
X172077179Y-95886216D01*
X172066538Y-95867785D01*
X172017113Y-95782177D01*
X172000500Y-95720177D01*
X172000500Y-94876298D01*
X172020185Y-94809259D01*
X172051619Y-94775977D01*
X172055871Y-94772888D01*
X172182533Y-94632216D01*
X172277179Y-94468284D01*
X172335674Y-94288256D01*
X172355460Y-94100000D01*
X172335674Y-93911744D01*
X172299366Y-93800000D01*
X174844540Y-93800000D01*
X174864326Y-93988256D01*
X174864327Y-93988259D01*
X174922818Y-94168277D01*
X174922821Y-94168284D01*
X175017467Y-94332216D01*
X175139977Y-94468277D01*
X175144129Y-94472888D01*
X175297265Y-94584148D01*
X175297270Y-94584151D01*
X175470192Y-94661142D01*
X175470197Y-94661144D01*
X175655354Y-94700500D01*
X175679192Y-94700500D01*
X175746231Y-94720185D01*
X175766873Y-94736819D01*
X175863181Y-94833127D01*
X175896666Y-94894450D01*
X175899500Y-94920808D01*
X175899500Y-95729078D01*
X175879815Y-95796117D01*
X175867650Y-95812050D01*
X175817466Y-95867785D01*
X175722821Y-96031715D01*
X175722818Y-96031722D01*
X175664327Y-96211740D01*
X175664326Y-96211744D01*
X175644540Y-96400000D01*
X175664326Y-96588256D01*
X175664327Y-96588259D01*
X175722818Y-96768277D01*
X175722821Y-96768284D01*
X175817467Y-96932216D01*
X175944129Y-97072888D01*
X176097265Y-97184148D01*
X176097270Y-97184151D01*
X176270192Y-97261142D01*
X176270197Y-97261144D01*
X176455354Y-97300500D01*
X176455355Y-97300500D01*
X176644644Y-97300500D01*
X176644646Y-97300500D01*
X176829803Y-97261144D01*
X177002730Y-97184151D01*
X177155871Y-97072888D01*
X177282533Y-96932216D01*
X177377179Y-96768284D01*
X177435674Y-96588256D01*
X177455460Y-96400000D01*
X177435674Y-96211744D01*
X177377179Y-96031716D01*
X177282533Y-95867784D01*
X177232350Y-95812050D01*
X177202120Y-95749058D01*
X177200500Y-95729078D01*
X177200500Y-94685502D01*
X177202268Y-94669489D01*
X177202026Y-94669467D01*
X177202758Y-94661711D01*
X177202760Y-94661704D01*
X177200500Y-94589796D01*
X177200500Y-94559075D01*
X177199579Y-94551788D01*
X177199122Y-94545979D01*
X177197597Y-94497431D01*
X177191676Y-94477053D01*
X177187731Y-94458004D01*
X177185071Y-94436942D01*
X177167185Y-94391769D01*
X177165296Y-94386249D01*
X177151743Y-94339600D01*
X177140940Y-94321334D01*
X177132378Y-94303856D01*
X177124568Y-94284129D01*
X177124565Y-94284125D01*
X177096014Y-94244827D01*
X177092811Y-94239951D01*
X177089377Y-94234144D01*
X177068081Y-94198135D01*
X177068079Y-94198133D01*
X177068078Y-94198131D01*
X177053075Y-94183129D01*
X177040435Y-94168330D01*
X177040396Y-94168277D01*
X177027963Y-94151163D01*
X177027961Y-94151160D01*
X176990528Y-94120194D01*
X176986206Y-94116260D01*
X176684808Y-93814862D01*
X176651323Y-93753539D01*
X176649168Y-93740141D01*
X176648282Y-93731715D01*
X176635674Y-93611744D01*
X176577179Y-93431716D01*
X176482533Y-93267784D01*
X176355871Y-93127112D01*
X176355870Y-93127111D01*
X176202734Y-93015851D01*
X176202729Y-93015848D01*
X176029807Y-92938857D01*
X176029802Y-92938855D01*
X175884001Y-92907865D01*
X175844646Y-92899500D01*
X175655354Y-92899500D01*
X175622897Y-92906398D01*
X175470197Y-92938855D01*
X175470192Y-92938857D01*
X175297270Y-93015848D01*
X175297265Y-93015851D01*
X175144129Y-93127111D01*
X175017466Y-93267785D01*
X174922821Y-93431715D01*
X174922818Y-93431722D01*
X174878609Y-93567785D01*
X174864326Y-93611744D01*
X174844540Y-93800000D01*
X172299366Y-93800000D01*
X172277179Y-93731716D01*
X172182533Y-93567784D01*
X172055871Y-93427112D01*
X172017952Y-93399562D01*
X171902734Y-93315851D01*
X171902729Y-93315848D01*
X171729807Y-93238857D01*
X171729802Y-93238855D01*
X171565191Y-93203867D01*
X171544646Y-93199500D01*
X171355354Y-93199500D01*
X171334809Y-93203867D01*
X171170197Y-93238855D01*
X171170192Y-93238857D01*
X170997270Y-93315848D01*
X170997265Y-93315851D01*
X170844129Y-93427111D01*
X170717466Y-93567785D01*
X170622821Y-93731715D01*
X170622818Y-93731722D01*
X170564327Y-93911739D01*
X170564327Y-93911740D01*
X170564326Y-93911744D01*
X170556284Y-93988256D01*
X170555881Y-93992088D01*
X170543375Y-94034766D01*
X170539959Y-94041568D01*
X170537489Y-94048355D01*
X170537433Y-94048334D01*
X170534960Y-94055450D01*
X170535015Y-94055469D01*
X170532742Y-94062327D01*
X170524975Y-94099946D01*
X170517207Y-94137565D01*
X170504001Y-94193284D01*
X170499498Y-94212286D01*
X170498661Y-94219454D01*
X170498601Y-94219447D01*
X170497835Y-94226945D01*
X170497895Y-94226951D01*
X170497265Y-94234140D01*
X170499500Y-94310916D01*
X170499500Y-95720177D01*
X170482887Y-95782177D01*
X170422821Y-95886214D01*
X170375545Y-96031715D01*
X170364326Y-96066244D01*
X170344540Y-96254500D01*
X143250500Y-96254500D01*
X143250500Y-92200000D01*
X153594540Y-92200000D01*
X153614326Y-92388256D01*
X153614327Y-92388259D01*
X153672818Y-92568277D01*
X153672821Y-92568284D01*
X153767467Y-92732216D01*
X153856630Y-92831241D01*
X153894129Y-92872888D01*
X154047265Y-92984148D01*
X154047270Y-92984151D01*
X154220192Y-93061142D01*
X154220197Y-93061144D01*
X154405354Y-93100500D01*
X154405355Y-93100500D01*
X154594644Y-93100500D01*
X154594646Y-93100500D01*
X154779803Y-93061144D01*
X154952730Y-92984151D01*
X155105871Y-92872888D01*
X155232533Y-92732216D01*
X155327179Y-92568284D01*
X155338799Y-92532523D01*
X163377063Y-92532523D01*
X163396849Y-92720779D01*
X163396850Y-92720782D01*
X163455341Y-92900800D01*
X163455344Y-92900807D01*
X163549990Y-93064739D01*
X163622288Y-93145034D01*
X163676652Y-93205411D01*
X163829788Y-93316671D01*
X163829793Y-93316674D01*
X164002714Y-93393665D01*
X164002716Y-93393665D01*
X164002720Y-93393667D01*
X164067852Y-93407510D01*
X164129332Y-93440701D01*
X164129751Y-93441119D01*
X165097934Y-94409302D01*
X165128184Y-94458664D01*
X165183525Y-94628986D01*
X165183527Y-94628990D01*
X165278173Y-94792922D01*
X165393322Y-94920808D01*
X165404835Y-94933594D01*
X165557971Y-95044854D01*
X165557976Y-95044857D01*
X165730898Y-95121848D01*
X165730903Y-95121850D01*
X165916060Y-95161206D01*
X165916061Y-95161206D01*
X166105350Y-95161206D01*
X166105352Y-95161206D01*
X166290509Y-95121850D01*
X166463436Y-95044857D01*
X166616577Y-94933594D01*
X166743239Y-94792922D01*
X166837885Y-94628990D01*
X166896380Y-94448962D01*
X166916166Y-94260706D01*
X166896380Y-94072450D01*
X166837885Y-93892422D01*
X166743239Y-93728490D01*
X166616577Y-93587818D01*
X166589004Y-93567785D01*
X166463440Y-93476557D01*
X166463435Y-93476554D01*
X166290513Y-93399563D01*
X166290508Y-93399561D01*
X166225375Y-93385717D01*
X166163893Y-93352524D01*
X166163475Y-93352108D01*
X165195293Y-92383925D01*
X165165044Y-92334564D01*
X165121322Y-92200000D01*
X165109704Y-92164244D01*
X165109701Y-92164238D01*
X165015056Y-92000307D01*
X164888394Y-91859635D01*
X164888393Y-91859634D01*
X164735257Y-91748374D01*
X164735252Y-91748371D01*
X164562330Y-91671380D01*
X164562325Y-91671378D01*
X164416524Y-91640388D01*
X164377169Y-91632023D01*
X164187877Y-91632023D01*
X164155420Y-91638921D01*
X164002720Y-91671378D01*
X164002715Y-91671380D01*
X163829793Y-91748371D01*
X163829788Y-91748374D01*
X163676652Y-91859634D01*
X163549989Y-92000308D01*
X163455344Y-92164238D01*
X163455341Y-92164245D01*
X163400002Y-92334562D01*
X163396849Y-92344267D01*
X163377063Y-92532523D01*
X155338799Y-92532523D01*
X155385674Y-92388256D01*
X155405460Y-92200000D01*
X155385674Y-92011744D01*
X155327179Y-91831716D01*
X155311305Y-91804221D01*
X155267113Y-91727677D01*
X155250500Y-91665677D01*
X155250500Y-91335204D01*
X177945786Y-91335204D01*
X177975397Y-91553802D01*
X177975398Y-91553806D01*
X178043564Y-91763600D01*
X178148095Y-91957850D01*
X178148097Y-91957853D01*
X178285634Y-92130320D01*
X178451751Y-92275451D01*
X178451759Y-92275458D01*
X178633301Y-92383925D01*
X178641126Y-92388600D01*
X178847654Y-92466111D01*
X178891063Y-92473988D01*
X179064699Y-92505500D01*
X179064703Y-92505500D01*
X179479075Y-92505500D01*
X179546114Y-92525185D01*
X179591869Y-92577989D01*
X179600366Y-92603721D01*
X179608689Y-92642880D01*
X179609704Y-92649291D01*
X179614325Y-92693256D01*
X179627986Y-92735296D01*
X179629666Y-92741569D01*
X179638856Y-92784803D01*
X179638855Y-92784803D01*
X179656833Y-92825179D01*
X179659160Y-92831242D01*
X179672818Y-92873277D01*
X179672820Y-92873281D01*
X179672821Y-92873284D01*
X179694923Y-92911565D01*
X179694924Y-92911567D01*
X179697870Y-92917349D01*
X179715849Y-92957730D01*
X179741823Y-92993482D01*
X179741825Y-92993484D01*
X179745359Y-92998926D01*
X179751648Y-93009818D01*
X179767464Y-93037212D01*
X179767471Y-93037222D01*
X179797050Y-93070072D01*
X179801137Y-93075119D01*
X179827110Y-93110869D01*
X179827111Y-93110870D01*
X179827112Y-93110871D01*
X179859966Y-93140453D01*
X179864546Y-93145034D01*
X179894128Y-93177887D01*
X179894129Y-93177888D01*
X179929887Y-93203867D01*
X179934934Y-93207954D01*
X179967777Y-93237528D01*
X179967787Y-93237535D01*
X180006070Y-93259638D01*
X180011516Y-93263175D01*
X180047266Y-93289149D01*
X180047269Y-93289150D01*
X180047270Y-93289151D01*
X180057535Y-93293721D01*
X180087644Y-93307127D01*
X180093430Y-93310075D01*
X180119300Y-93325010D01*
X180131716Y-93332179D01*
X180173755Y-93345837D01*
X180179812Y-93348163D01*
X180220193Y-93366142D01*
X180220192Y-93366142D01*
X180220197Y-93366144D01*
X180254720Y-93373481D01*
X180263435Y-93375334D01*
X180269698Y-93377011D01*
X180311744Y-93390674D01*
X180343051Y-93393964D01*
X180355709Y-93395295D01*
X180362123Y-93396311D01*
X180405354Y-93405500D01*
X180405355Y-93405500D01*
X180594643Y-93405500D01*
X180594646Y-93405500D01*
X180637894Y-93396307D01*
X180644283Y-93395295D01*
X180688256Y-93390674D01*
X180730308Y-93377009D01*
X180736551Y-93375336D01*
X180779803Y-93366144D01*
X180820197Y-93348158D01*
X180826228Y-93345842D01*
X180868284Y-93332179D01*
X180906586Y-93310063D01*
X180912333Y-93307136D01*
X180952730Y-93289151D01*
X180988504Y-93263159D01*
X180993906Y-93259650D01*
X181032216Y-93237533D01*
X181065071Y-93207948D01*
X181070098Y-93203876D01*
X181105871Y-93177888D01*
X181135453Y-93145032D01*
X181140032Y-93140453D01*
X181172888Y-93110871D01*
X181198876Y-93075098D01*
X181202948Y-93070071D01*
X181232533Y-93037216D01*
X181254650Y-92998906D01*
X181258159Y-92993504D01*
X181284151Y-92957730D01*
X181302136Y-92917333D01*
X181305063Y-92911586D01*
X181327179Y-92873284D01*
X181340842Y-92831228D01*
X181343158Y-92825197D01*
X181361144Y-92784803D01*
X181370336Y-92741551D01*
X181372013Y-92735296D01*
X181385674Y-92693256D01*
X181390295Y-92649283D01*
X181391307Y-92642894D01*
X181400500Y-92599646D01*
X181400500Y-92555445D01*
X181400840Y-92548960D01*
X181402567Y-92532523D01*
X181405460Y-92505000D01*
X181401373Y-92466111D01*
X181400840Y-92461037D01*
X181400500Y-92454553D01*
X181400500Y-92410354D01*
X181391311Y-92367123D01*
X181390295Y-92360709D01*
X181388566Y-92344263D01*
X181385674Y-92316744D01*
X181372011Y-92274698D01*
X181370334Y-92268435D01*
X181368765Y-92261056D01*
X181361144Y-92225197D01*
X181343163Y-92184812D01*
X181340835Y-92178748D01*
X181327179Y-92136716D01*
X181320010Y-92124300D01*
X181305075Y-92098430D01*
X181302127Y-92092644D01*
X181293288Y-92072794D01*
X181284151Y-92052270D01*
X181284149Y-92052267D01*
X181284149Y-92052266D01*
X181258175Y-92016516D01*
X181254638Y-92011070D01*
X181232535Y-91972787D01*
X181232528Y-91972777D01*
X181202954Y-91939934D01*
X181198870Y-91934892D01*
X181172888Y-91899129D01*
X181172887Y-91899128D01*
X181140034Y-91869546D01*
X181135453Y-91864966D01*
X181105871Y-91832112D01*
X181105870Y-91832111D01*
X181105869Y-91832110D01*
X181070119Y-91806137D01*
X181065072Y-91802050D01*
X181032222Y-91772471D01*
X181032212Y-91772464D01*
X180993930Y-91750362D01*
X180988484Y-91746825D01*
X180957760Y-91724503D01*
X180915095Y-91669172D01*
X180909116Y-91599559D01*
X180909755Y-91596592D01*
X180913813Y-91578814D01*
X180944317Y-91445168D01*
X180954214Y-91224796D01*
X180934410Y-91078593D01*
X181845832Y-91078593D01*
X181855605Y-91283756D01*
X181904029Y-91483362D01*
X181955739Y-91596592D01*
X181989352Y-91670195D01*
X181989356Y-91670201D01*
X182108489Y-91837501D01*
X182108495Y-91837507D01*
X182257147Y-91979246D01*
X182429933Y-92090290D01*
X182450266Y-92098430D01*
X182620618Y-92166629D01*
X182771881Y-92195782D01*
X182822301Y-92205500D01*
X182822302Y-92205500D01*
X183626226Y-92205500D01*
X183626232Y-92205500D01*
X183779466Y-92190868D01*
X183976541Y-92133001D01*
X184159104Y-92038884D01*
X184320556Y-91911916D01*
X184455061Y-91756689D01*
X184459864Y-91748371D01*
X184545395Y-91600226D01*
X184557759Y-91578811D01*
X184624937Y-91384712D01*
X184654168Y-91181407D01*
X184644395Y-90976244D01*
X184595971Y-90776638D01*
X184510647Y-90589804D01*
X184510643Y-90589798D01*
X184391510Y-90422498D01*
X184391504Y-90422492D01*
X184242852Y-90280753D01*
X184070066Y-90169709D01*
X183879391Y-90093374D01*
X183879384Y-90093371D01*
X183879382Y-90093371D01*
X183879379Y-90093370D01*
X183879378Y-90093370D01*
X183677699Y-90054500D01*
X183677698Y-90054500D01*
X182873768Y-90054500D01*
X182720534Y-90069132D01*
X182720530Y-90069133D01*
X182523462Y-90126997D01*
X182340891Y-90221118D01*
X182179446Y-90348081D01*
X182179443Y-90348084D01*
X182044936Y-90503313D01*
X181942242Y-90681185D01*
X181875064Y-90875282D01*
X181875063Y-90875287D01*
X181875063Y-90875288D01*
X181845832Y-91078593D01*
X180934410Y-91078593D01*
X180924603Y-91006198D01*
X180856436Y-90796401D01*
X180751903Y-90602147D01*
X180680669Y-90512822D01*
X180614365Y-90429679D01*
X180448248Y-90284548D01*
X180448240Y-90284541D01*
X180258880Y-90171403D01*
X180258877Y-90171401D01*
X180258874Y-90171400D01*
X180111270Y-90116003D01*
X180052344Y-90093888D01*
X179835301Y-90054500D01*
X179835297Y-90054500D01*
X179119968Y-90054500D01*
X179089306Y-90057259D01*
X178955292Y-90069320D01*
X178742661Y-90128002D01*
X178742646Y-90128008D01*
X178543908Y-90223715D01*
X178543900Y-90223719D01*
X178365442Y-90353376D01*
X178365434Y-90353382D01*
X178212994Y-90512822D01*
X178091469Y-90696926D01*
X178091469Y-90696927D01*
X178015234Y-90875289D01*
X178004770Y-90899770D01*
X178004767Y-90899779D01*
X177955684Y-91114826D01*
X177955682Y-91114837D01*
X177948096Y-91283758D01*
X177945786Y-91335204D01*
X155250500Y-91335204D01*
X155250500Y-91134321D01*
X155267113Y-91072321D01*
X155305292Y-91006193D01*
X155327179Y-90968284D01*
X155385674Y-90788256D01*
X155405460Y-90600000D01*
X155385674Y-90411744D01*
X155327179Y-90231716D01*
X155232533Y-90067784D01*
X155105871Y-89927112D01*
X155105870Y-89927111D01*
X154952734Y-89815851D01*
X154952729Y-89815848D01*
X154779807Y-89738857D01*
X154779802Y-89738855D01*
X154634001Y-89707865D01*
X154594646Y-89699500D01*
X154405354Y-89699500D01*
X154372897Y-89706398D01*
X154220197Y-89738855D01*
X154220192Y-89738857D01*
X154047270Y-89815848D01*
X154047265Y-89815851D01*
X153894129Y-89927111D01*
X153767466Y-90067785D01*
X153672821Y-90231715D01*
X153672818Y-90231722D01*
X153633289Y-90353381D01*
X153614326Y-90411744D01*
X153594540Y-90600000D01*
X153614326Y-90788256D01*
X153614327Y-90788259D01*
X153672818Y-90968277D01*
X153672821Y-90968284D01*
X153732887Y-91072321D01*
X153749500Y-91134321D01*
X153749500Y-91665677D01*
X153732887Y-91727677D01*
X153672821Y-91831714D01*
X153614545Y-92011070D01*
X153614326Y-92011744D01*
X153594540Y-92200000D01*
X143250500Y-92200000D01*
X143250500Y-91435056D01*
X144839500Y-91435056D01*
X144841993Y-91445170D01*
X144880210Y-91600226D01*
X144959263Y-91750849D01*
X144978412Y-91772464D01*
X145072071Y-91878183D01*
X145154219Y-91934886D01*
X145212068Y-91974817D01*
X145212069Y-91974817D01*
X145212070Y-91974818D01*
X145371128Y-92035140D01*
X145447028Y-92044356D01*
X145497626Y-92050500D01*
X145497628Y-92050500D01*
X145582374Y-92050500D01*
X145624538Y-92045380D01*
X145708872Y-92035140D01*
X145867930Y-91974818D01*
X146007929Y-91878183D01*
X146120734Y-91750852D01*
X146120992Y-91750362D01*
X146163066Y-91670196D01*
X146199790Y-91600225D01*
X146240500Y-91435056D01*
X146240500Y-91264944D01*
X146199790Y-91099775D01*
X146185381Y-91072321D01*
X146120736Y-90949150D01*
X146076988Y-90899769D01*
X146007929Y-90821817D01*
X145942478Y-90776639D01*
X145867931Y-90725182D01*
X145708874Y-90664860D01*
X145708868Y-90664859D01*
X145582374Y-90649500D01*
X145582372Y-90649500D01*
X145497628Y-90649500D01*
X145497626Y-90649500D01*
X145371131Y-90664859D01*
X145371125Y-90664860D01*
X145212068Y-90725182D01*
X145072072Y-90821816D01*
X144959263Y-90949150D01*
X144880210Y-91099773D01*
X144860090Y-91181407D01*
X144839500Y-91264944D01*
X144839500Y-91435056D01*
X143250500Y-91435056D01*
X143250500Y-88435055D01*
X144839500Y-88435055D01*
X144880210Y-88600226D01*
X144959263Y-88750849D01*
X144959266Y-88750852D01*
X145072071Y-88878183D01*
X145162318Y-88940476D01*
X145212068Y-88974817D01*
X145212069Y-88974817D01*
X145212070Y-88974818D01*
X145371128Y-89035140D01*
X145447028Y-89044356D01*
X145497626Y-89050500D01*
X145497628Y-89050500D01*
X145582374Y-89050500D01*
X145624538Y-89045380D01*
X145708872Y-89035140D01*
X145867930Y-88974818D01*
X146007929Y-88878183D01*
X146120734Y-88750852D01*
X146199790Y-88600225D01*
X146240500Y-88435056D01*
X146240500Y-88264944D01*
X146199790Y-88099775D01*
X146199789Y-88099773D01*
X146120736Y-87949150D01*
X146101560Y-87927505D01*
X146007929Y-87821817D01*
X145958177Y-87787475D01*
X145867931Y-87725182D01*
X145708874Y-87664860D01*
X145708868Y-87664859D01*
X145582374Y-87649500D01*
X145582372Y-87649500D01*
X145497628Y-87649500D01*
X145497626Y-87649500D01*
X145371131Y-87664859D01*
X145371125Y-87664860D01*
X145212068Y-87725182D01*
X145072072Y-87821816D01*
X144959263Y-87949150D01*
X144880210Y-88099773D01*
X144839500Y-88264944D01*
X144839500Y-88435055D01*
X143250500Y-88435055D01*
X143250500Y-85749500D01*
X160895040Y-85749500D01*
X160914826Y-85937756D01*
X160914827Y-85937759D01*
X160973318Y-86117777D01*
X160973321Y-86117784D01*
X161067967Y-86281716D01*
X161113436Y-86332214D01*
X161194629Y-86422388D01*
X161347765Y-86533648D01*
X161347770Y-86533651D01*
X161520692Y-86610642D01*
X161520697Y-86610644D01*
X161705854Y-86650000D01*
X161705855Y-86650000D01*
X161895144Y-86650000D01*
X161895146Y-86650000D01*
X162080303Y-86610644D01*
X162253230Y-86533651D01*
X162255276Y-86532164D01*
X162266952Y-86523682D01*
X162332758Y-86500202D01*
X162339837Y-86500000D01*
X162741156Y-86500000D01*
X162808195Y-86519685D01*
X162814041Y-86523682D01*
X162897265Y-86584148D01*
X162897270Y-86584151D01*
X163070192Y-86661142D01*
X163070197Y-86661144D01*
X163255354Y-86700500D01*
X163255355Y-86700500D01*
X163444644Y-86700500D01*
X163444646Y-86700500D01*
X163629803Y-86661144D01*
X163802730Y-86584151D01*
X163955871Y-86472888D01*
X164082533Y-86332216D01*
X164177179Y-86168284D01*
X164235674Y-85988256D01*
X164255460Y-85800000D01*
X164235674Y-85611744D01*
X164177179Y-85431716D01*
X164082533Y-85267784D01*
X163955871Y-85127112D01*
X163955870Y-85127111D01*
X163802734Y-85015851D01*
X163802729Y-85015848D01*
X163629807Y-84938857D01*
X163629802Y-84938855D01*
X163484001Y-84907865D01*
X163444646Y-84899500D01*
X163255354Y-84899500D01*
X163222897Y-84906398D01*
X163070197Y-84938855D01*
X163070192Y-84938857D01*
X162959192Y-84988279D01*
X162908756Y-84999000D01*
X162339837Y-84999000D01*
X162272798Y-84979315D01*
X162266952Y-84975318D01*
X162253234Y-84965351D01*
X162253229Y-84965348D01*
X162080307Y-84888357D01*
X162080302Y-84888355D01*
X161934501Y-84857365D01*
X161895146Y-84849000D01*
X161705854Y-84849000D01*
X161673397Y-84855898D01*
X161520697Y-84888355D01*
X161520692Y-84888357D01*
X161347770Y-84965348D01*
X161347765Y-84965351D01*
X161194629Y-85076611D01*
X161067966Y-85217285D01*
X160973321Y-85381215D01*
X160973318Y-85381222D01*
X160914827Y-85561240D01*
X160914826Y-85561244D01*
X160895040Y-85749500D01*
X143250500Y-85749500D01*
X143250500Y-82000000D01*
X166444540Y-82000000D01*
X166464326Y-82188256D01*
X166464327Y-82188259D01*
X166522818Y-82368277D01*
X166522821Y-82368284D01*
X166617467Y-82532216D01*
X166744129Y-82672888D01*
X166897265Y-82784148D01*
X166897270Y-82784151D01*
X167070192Y-82861142D01*
X167070197Y-82861144D01*
X167255354Y-82900500D01*
X167255355Y-82900500D01*
X167444644Y-82900500D01*
X167444646Y-82900500D01*
X167629803Y-82861144D01*
X167802730Y-82784151D01*
X167804776Y-82782664D01*
X167816452Y-82774182D01*
X167882258Y-82750702D01*
X167889337Y-82750500D01*
X169260163Y-82750500D01*
X169327202Y-82770185D01*
X169333048Y-82774182D01*
X169346765Y-82784148D01*
X169346770Y-82784151D01*
X169519692Y-82861142D01*
X169519697Y-82861144D01*
X169704854Y-82900500D01*
X169704855Y-82900500D01*
X169894144Y-82900500D01*
X169894146Y-82900500D01*
X170079303Y-82861144D01*
X170252230Y-82784151D01*
X170405371Y-82672888D01*
X170532033Y-82532216D01*
X170626679Y-82368284D01*
X170685174Y-82188256D01*
X170704960Y-82000000D01*
X170685174Y-81811744D01*
X170626679Y-81631716D01*
X170532033Y-81467784D01*
X170405371Y-81327112D01*
X170405370Y-81327111D01*
X170252234Y-81215851D01*
X170252229Y-81215848D01*
X170079307Y-81138857D01*
X170079302Y-81138855D01*
X169933501Y-81107865D01*
X169894146Y-81099500D01*
X169704854Y-81099500D01*
X169672397Y-81106398D01*
X169519697Y-81138855D01*
X169519692Y-81138857D01*
X169346770Y-81215848D01*
X169346765Y-81215851D01*
X169333048Y-81225818D01*
X169267242Y-81249298D01*
X169260163Y-81249500D01*
X167889337Y-81249500D01*
X167822298Y-81229815D01*
X167816452Y-81225818D01*
X167802734Y-81215851D01*
X167802729Y-81215848D01*
X167629807Y-81138857D01*
X167629802Y-81138855D01*
X167484001Y-81107865D01*
X167444646Y-81099500D01*
X167255354Y-81099500D01*
X167222897Y-81106398D01*
X167070197Y-81138855D01*
X167070192Y-81138857D01*
X166897270Y-81215848D01*
X166897265Y-81215851D01*
X166744129Y-81327111D01*
X166617466Y-81467785D01*
X166522821Y-81631715D01*
X166522818Y-81631722D01*
X166464327Y-81811740D01*
X166464326Y-81811744D01*
X166444540Y-82000000D01*
X143250500Y-82000000D01*
X143250500Y-71501622D01*
X143250542Y-71500000D01*
X144894341Y-71500000D01*
X144914936Y-71735403D01*
X144914938Y-71735413D01*
X144976094Y-71963655D01*
X144976096Y-71963659D01*
X144976097Y-71963663D01*
X145026031Y-72070746D01*
X145075964Y-72177828D01*
X145075965Y-72177830D01*
X145211505Y-72371402D01*
X145378597Y-72538494D01*
X145572169Y-72674034D01*
X145572171Y-72674035D01*
X145786337Y-72773903D01*
X146014592Y-72835063D01*
X146191034Y-72850500D01*
X146308966Y-72850500D01*
X146485408Y-72835063D01*
X146713663Y-72773903D01*
X146927829Y-72674035D01*
X147121401Y-72538495D01*
X147288495Y-72371401D01*
X147373501Y-72250000D01*
X168599364Y-72250000D01*
X168656567Y-72463486D01*
X168656570Y-72463492D01*
X168756399Y-72677578D01*
X168891894Y-72871082D01*
X169058917Y-73038105D01*
X169252421Y-73173600D01*
X169466507Y-73273429D01*
X169466516Y-73273433D01*
X169680000Y-73330634D01*
X169680000Y-72435501D01*
X169787685Y-72484680D01*
X169894237Y-72500000D01*
X169965763Y-72500000D01*
X170072315Y-72484680D01*
X170180000Y-72435501D01*
X170180000Y-73330633D01*
X170393483Y-73273433D01*
X170393492Y-73273429D01*
X170607578Y-73173600D01*
X170801082Y-73038105D01*
X170968105Y-72871082D01*
X171098119Y-72685405D01*
X171152696Y-72641781D01*
X171222195Y-72634588D01*
X171284549Y-72666110D01*
X171301269Y-72685405D01*
X171431505Y-72871401D01*
X171598599Y-73038495D01*
X171695384Y-73106265D01*
X171792165Y-73174032D01*
X171792167Y-73174033D01*
X171792170Y-73174035D01*
X172006337Y-73273903D01*
X172234592Y-73335063D01*
X172411034Y-73350500D01*
X172469999Y-73355659D01*
X172470000Y-73355659D01*
X172470001Y-73355659D01*
X172528966Y-73350500D01*
X172705408Y-73335063D01*
X172933663Y-73273903D01*
X173147830Y-73174035D01*
X173341401Y-73038495D01*
X173508495Y-72871401D01*
X173638425Y-72685842D01*
X173693002Y-72642217D01*
X173762500Y-72635023D01*
X173824855Y-72666546D01*
X173841575Y-72685842D01*
X173971281Y-72871082D01*
X173971505Y-72871401D01*
X174138599Y-73038495D01*
X174235384Y-73106265D01*
X174332165Y-73174032D01*
X174332167Y-73174033D01*
X174332170Y-73174035D01*
X174546337Y-73273903D01*
X174774592Y-73335063D01*
X174951034Y-73350500D01*
X175009999Y-73355659D01*
X175010000Y-73355659D01*
X175010001Y-73355659D01*
X175068966Y-73350500D01*
X175245408Y-73335063D01*
X175473663Y-73273903D01*
X175687830Y-73174035D01*
X175881401Y-73038495D01*
X176003329Y-72916566D01*
X176064648Y-72883084D01*
X176134340Y-72888068D01*
X176190274Y-72929939D01*
X176207189Y-72960917D01*
X176256202Y-73092328D01*
X176256206Y-73092335D01*
X176342452Y-73207544D01*
X176342455Y-73207547D01*
X176457664Y-73293793D01*
X176457671Y-73293797D01*
X176592517Y-73344091D01*
X176592516Y-73344091D01*
X176599444Y-73344835D01*
X176652127Y-73350500D01*
X178447872Y-73350499D01*
X178507483Y-73344091D01*
X178642331Y-73293796D01*
X178757546Y-73207546D01*
X178843796Y-73092331D01*
X178894091Y-72957483D01*
X178900500Y-72897873D01*
X178900499Y-71500000D01*
X180894341Y-71500000D01*
X180914936Y-71735403D01*
X180914938Y-71735413D01*
X180976094Y-71963655D01*
X180976096Y-71963659D01*
X180976097Y-71963663D01*
X181026031Y-72070746D01*
X181075964Y-72177828D01*
X181075965Y-72177830D01*
X181211505Y-72371402D01*
X181378597Y-72538494D01*
X181572169Y-72674034D01*
X181572171Y-72674035D01*
X181786337Y-72773903D01*
X182014592Y-72835063D01*
X182191034Y-72850500D01*
X182308966Y-72850500D01*
X182485408Y-72835063D01*
X182713663Y-72773903D01*
X182927829Y-72674035D01*
X183121401Y-72538495D01*
X183288495Y-72371401D01*
X183424035Y-72177830D01*
X183523903Y-71963663D01*
X183585063Y-71735408D01*
X183605659Y-71500000D01*
X183585063Y-71264592D01*
X183523903Y-71036337D01*
X183424035Y-70822171D01*
X183424034Y-70822169D01*
X183288494Y-70628597D01*
X183121402Y-70461505D01*
X182927830Y-70325965D01*
X182927828Y-70325964D01*
X182756338Y-70245997D01*
X182713663Y-70226097D01*
X182713659Y-70226096D01*
X182713655Y-70226094D01*
X182485413Y-70164938D01*
X182485403Y-70164936D01*
X182308966Y-70149500D01*
X182191034Y-70149500D01*
X182014596Y-70164936D01*
X182014586Y-70164938D01*
X181786344Y-70226094D01*
X181786335Y-70226098D01*
X181572171Y-70325964D01*
X181572169Y-70325965D01*
X181378597Y-70461505D01*
X181211506Y-70628597D01*
X181211501Y-70628604D01*
X181075967Y-70822165D01*
X181075965Y-70822169D01*
X180976098Y-71036335D01*
X180976094Y-71036344D01*
X180914938Y-71264586D01*
X180914936Y-71264596D01*
X180894341Y-71499999D01*
X180894341Y-71500000D01*
X178900499Y-71500000D01*
X178900499Y-71102128D01*
X178894091Y-71042517D01*
X178892810Y-71039083D01*
X178843797Y-70907671D01*
X178843793Y-70907664D01*
X178757547Y-70792455D01*
X178757544Y-70792452D01*
X178642335Y-70706206D01*
X178642328Y-70706202D01*
X178507482Y-70655908D01*
X178507483Y-70655908D01*
X178447883Y-70649501D01*
X178447881Y-70649500D01*
X178447873Y-70649500D01*
X178447864Y-70649500D01*
X176652129Y-70649500D01*
X176652123Y-70649501D01*
X176592516Y-70655908D01*
X176457671Y-70706202D01*
X176457664Y-70706206D01*
X176342455Y-70792452D01*
X176342452Y-70792455D01*
X176256206Y-70907664D01*
X176256203Y-70907669D01*
X176207189Y-71039083D01*
X176165317Y-71095016D01*
X176099853Y-71119433D01*
X176031580Y-71104581D01*
X176003326Y-71083430D01*
X175881402Y-70961506D01*
X175881395Y-70961501D01*
X175687834Y-70825967D01*
X175687830Y-70825965D01*
X175679681Y-70822165D01*
X175473663Y-70726097D01*
X175473659Y-70726096D01*
X175473655Y-70726094D01*
X175245413Y-70664938D01*
X175245403Y-70664936D01*
X175010001Y-70644341D01*
X175009999Y-70644341D01*
X174774596Y-70664936D01*
X174774586Y-70664938D01*
X174546344Y-70726094D01*
X174546335Y-70726098D01*
X174332171Y-70825964D01*
X174332169Y-70825965D01*
X174138597Y-70961505D01*
X173971505Y-71128597D01*
X173841575Y-71314158D01*
X173786998Y-71357783D01*
X173717500Y-71364977D01*
X173655145Y-71333454D01*
X173638425Y-71314158D01*
X173508494Y-71128597D01*
X173341402Y-70961506D01*
X173341395Y-70961501D01*
X173147834Y-70825967D01*
X173147830Y-70825965D01*
X173139681Y-70822165D01*
X172933663Y-70726097D01*
X172933659Y-70726096D01*
X172933655Y-70726094D01*
X172705413Y-70664938D01*
X172705403Y-70664936D01*
X172470001Y-70644341D01*
X172469999Y-70644341D01*
X172234596Y-70664936D01*
X172234586Y-70664938D01*
X172006344Y-70726094D01*
X172006335Y-70726098D01*
X171792171Y-70825964D01*
X171792169Y-70825965D01*
X171598597Y-70961505D01*
X171431508Y-71128594D01*
X171301269Y-71314595D01*
X171246692Y-71358219D01*
X171177193Y-71365412D01*
X171114839Y-71333890D01*
X171098119Y-71314594D01*
X170968113Y-71128926D01*
X170968108Y-71128920D01*
X170801082Y-70961894D01*
X170607578Y-70826399D01*
X170393492Y-70726570D01*
X170393486Y-70726567D01*
X170180000Y-70669364D01*
X170180000Y-71564498D01*
X170072315Y-71515320D01*
X169965763Y-71500000D01*
X169894237Y-71500000D01*
X169787685Y-71515320D01*
X169680000Y-71564498D01*
X169680000Y-70669364D01*
X169679999Y-70669364D01*
X169466513Y-70726567D01*
X169466507Y-70726570D01*
X169252422Y-70826399D01*
X169252420Y-70826400D01*
X169058926Y-70961886D01*
X169058920Y-70961891D01*
X168891891Y-71128920D01*
X168891886Y-71128926D01*
X168756400Y-71322420D01*
X168756399Y-71322422D01*
X168656570Y-71536507D01*
X168656567Y-71536513D01*
X168599364Y-71749999D01*
X168599364Y-71750000D01*
X169496314Y-71750000D01*
X169470507Y-71790156D01*
X169430000Y-71928111D01*
X169430000Y-72071889D01*
X169470507Y-72209844D01*
X169496314Y-72250000D01*
X168599364Y-72250000D01*
X147373501Y-72250000D01*
X147424035Y-72177830D01*
X147523903Y-71963663D01*
X147585063Y-71735408D01*
X147605659Y-71500000D01*
X147585063Y-71264592D01*
X147523903Y-71036337D01*
X147424035Y-70822171D01*
X147424034Y-70822169D01*
X147288494Y-70628597D01*
X147121402Y-70461505D01*
X146927830Y-70325965D01*
X146927828Y-70325964D01*
X146756338Y-70245997D01*
X146713663Y-70226097D01*
X146713659Y-70226096D01*
X146713655Y-70226094D01*
X146485413Y-70164938D01*
X146485403Y-70164936D01*
X146308966Y-70149500D01*
X146191034Y-70149500D01*
X146014596Y-70164936D01*
X146014586Y-70164938D01*
X145786344Y-70226094D01*
X145786335Y-70226098D01*
X145572171Y-70325964D01*
X145572169Y-70325965D01*
X145378597Y-70461505D01*
X145211506Y-70628597D01*
X145211501Y-70628604D01*
X145075967Y-70822165D01*
X145075965Y-70822169D01*
X144976098Y-71036335D01*
X144976094Y-71036344D01*
X144914938Y-71264586D01*
X144914936Y-71264596D01*
X144894341Y-71499999D01*
X144894341Y-71500000D01*
X143250542Y-71500000D01*
X143250585Y-71498376D01*
X143257490Y-71366617D01*
X143257558Y-71365412D01*
X143267803Y-71182968D01*
X143268464Y-71176791D01*
X143292611Y-71024331D01*
X143320227Y-70861796D01*
X143321451Y-70856196D01*
X143362425Y-70703279D01*
X143407083Y-70548268D01*
X143408764Y-70543254D01*
X143466127Y-70393815D01*
X143527366Y-70245972D01*
X143529379Y-70241606D01*
X143602511Y-70098078D01*
X143609688Y-70085090D01*
X143679655Y-69958494D01*
X143681867Y-69954808D01*
X143769980Y-69819127D01*
X143784130Y-69799182D01*
X143862154Y-69689220D01*
X143864486Y-69686143D01*
X143965655Y-69561209D01*
X143967537Y-69558998D01*
X144072773Y-69441239D01*
X144075092Y-69438787D01*
X144188787Y-69325092D01*
X144191239Y-69322773D01*
X144308998Y-69217537D01*
X144311209Y-69215655D01*
X144436143Y-69114486D01*
X144439220Y-69112154D01*
X144569127Y-69019980D01*
X144579046Y-69013537D01*
X144704808Y-68931867D01*
X144708494Y-68929655D01*
X144848078Y-68852511D01*
X144860063Y-68846403D01*
X144991606Y-68779379D01*
X144995972Y-68777366D01*
X145143815Y-68716127D01*
X145293254Y-68658764D01*
X145298268Y-68657083D01*
X145453279Y-68612425D01*
X145606196Y-68571451D01*
X145611796Y-68570227D01*
X145774284Y-68542618D01*
X145926791Y-68518464D01*
X145932968Y-68517803D01*
X146116566Y-68507493D01*
X146248380Y-68500584D01*
X146251622Y-68500500D01*
X182248378Y-68500500D01*
X182251619Y-68500584D01*
G37*
%TD.AperFunction*%
%TD*%
M02*
