%TF.GenerationSoftware,KiCad,Pcbnew,7.0.8*%
%TF.CreationDate,2023-11-06T16:26:03-06:00*%
%TF.ProjectId,KiCAD Design,4b694341-4420-4446-9573-69676e2e6b69,rev?*%
%TF.SameCoordinates,Original*%
%TF.FileFunction,Legend,Top*%
%TF.FilePolarity,Positive*%
%FSLAX46Y46*%
G04 Gerber Fmt 4.6, Leading zero omitted, Abs format (unit mm)*
G04 Created by KiCad (PCBNEW 7.0.8) date 2023-11-06 16:26:03*
%MOMM*%
%LPD*%
G01*
G04 APERTURE LIST*
%ADD10C,0.153000*%
%ADD11C,0.120000*%
%ADD12C,0.150000*%
G04 APERTURE END LIST*
D10*
X144588752Y-116869663D02*
X144588752Y-117679186D01*
X144588752Y-117679186D02*
X144636371Y-117774424D01*
X144636371Y-117774424D02*
X144683990Y-117822044D01*
X144683990Y-117822044D02*
X144779228Y-117869663D01*
X144779228Y-117869663D02*
X144969704Y-117869663D01*
X144969704Y-117869663D02*
X145064942Y-117822044D01*
X145064942Y-117822044D02*
X145112561Y-117774424D01*
X145112561Y-117774424D02*
X145160180Y-117679186D01*
X145160180Y-117679186D02*
X145160180Y-116869663D01*
X145588752Y-117583948D02*
X146064942Y-117583948D01*
X145493514Y-117869663D02*
X145826847Y-116869663D01*
X145826847Y-116869663D02*
X146160180Y-117869663D01*
X147064942Y-117869663D02*
X146731609Y-117393472D01*
X146493514Y-117869663D02*
X146493514Y-116869663D01*
X146493514Y-116869663D02*
X146874466Y-116869663D01*
X146874466Y-116869663D02*
X146969704Y-116917282D01*
X146969704Y-116917282D02*
X147017323Y-116964901D01*
X147017323Y-116964901D02*
X147064942Y-117060139D01*
X147064942Y-117060139D02*
X147064942Y-117202996D01*
X147064942Y-117202996D02*
X147017323Y-117298234D01*
X147017323Y-117298234D02*
X146969704Y-117345853D01*
X146969704Y-117345853D02*
X146874466Y-117393472D01*
X146874466Y-117393472D02*
X146493514Y-117393472D01*
X147350657Y-116869663D02*
X147922085Y-116869663D01*
X147636371Y-117869663D02*
X147636371Y-116869663D01*
X174807142Y-108659424D02*
X174759523Y-108707044D01*
X174759523Y-108707044D02*
X174616666Y-108754663D01*
X174616666Y-108754663D02*
X174521428Y-108754663D01*
X174521428Y-108754663D02*
X174378571Y-108707044D01*
X174378571Y-108707044D02*
X174283333Y-108611805D01*
X174283333Y-108611805D02*
X174235714Y-108516567D01*
X174235714Y-108516567D02*
X174188095Y-108326091D01*
X174188095Y-108326091D02*
X174188095Y-108183234D01*
X174188095Y-108183234D02*
X174235714Y-107992758D01*
X174235714Y-107992758D02*
X174283333Y-107897520D01*
X174283333Y-107897520D02*
X174378571Y-107802282D01*
X174378571Y-107802282D02*
X174521428Y-107754663D01*
X174521428Y-107754663D02*
X174616666Y-107754663D01*
X174616666Y-107754663D02*
X174759523Y-107802282D01*
X174759523Y-107802282D02*
X174807142Y-107849901D01*
X175140476Y-107754663D02*
X175759523Y-107754663D01*
X175759523Y-107754663D02*
X175426190Y-108135615D01*
X175426190Y-108135615D02*
X175569047Y-108135615D01*
X175569047Y-108135615D02*
X175664285Y-108183234D01*
X175664285Y-108183234D02*
X175711904Y-108230853D01*
X175711904Y-108230853D02*
X175759523Y-108326091D01*
X175759523Y-108326091D02*
X175759523Y-108564186D01*
X175759523Y-108564186D02*
X175711904Y-108659424D01*
X175711904Y-108659424D02*
X175664285Y-108707044D01*
X175664285Y-108707044D02*
X175569047Y-108754663D01*
X175569047Y-108754663D02*
X175283333Y-108754663D01*
X175283333Y-108754663D02*
X175188095Y-108707044D01*
X175188095Y-108707044D02*
X175140476Y-108659424D01*
X176378571Y-107754663D02*
X176473809Y-107754663D01*
X176473809Y-107754663D02*
X176569047Y-107802282D01*
X176569047Y-107802282D02*
X176616666Y-107849901D01*
X176616666Y-107849901D02*
X176664285Y-107945139D01*
X176664285Y-107945139D02*
X176711904Y-108135615D01*
X176711904Y-108135615D02*
X176711904Y-108373710D01*
X176711904Y-108373710D02*
X176664285Y-108564186D01*
X176664285Y-108564186D02*
X176616666Y-108659424D01*
X176616666Y-108659424D02*
X176569047Y-108707044D01*
X176569047Y-108707044D02*
X176473809Y-108754663D01*
X176473809Y-108754663D02*
X176378571Y-108754663D01*
X176378571Y-108754663D02*
X176283333Y-108707044D01*
X176283333Y-108707044D02*
X176235714Y-108659424D01*
X176235714Y-108659424D02*
X176188095Y-108564186D01*
X176188095Y-108564186D02*
X176140476Y-108373710D01*
X176140476Y-108373710D02*
X176140476Y-108135615D01*
X176140476Y-108135615D02*
X176188095Y-107945139D01*
X176188095Y-107945139D02*
X176235714Y-107849901D01*
X176235714Y-107849901D02*
X176283333Y-107802282D01*
X176283333Y-107802282D02*
X176378571Y-107754663D01*
X166907142Y-91659424D02*
X166859523Y-91707044D01*
X166859523Y-91707044D02*
X166716666Y-91754663D01*
X166716666Y-91754663D02*
X166621428Y-91754663D01*
X166621428Y-91754663D02*
X166478571Y-91707044D01*
X166478571Y-91707044D02*
X166383333Y-91611805D01*
X166383333Y-91611805D02*
X166335714Y-91516567D01*
X166335714Y-91516567D02*
X166288095Y-91326091D01*
X166288095Y-91326091D02*
X166288095Y-91183234D01*
X166288095Y-91183234D02*
X166335714Y-90992758D01*
X166335714Y-90992758D02*
X166383333Y-90897520D01*
X166383333Y-90897520D02*
X166478571Y-90802282D01*
X166478571Y-90802282D02*
X166621428Y-90754663D01*
X166621428Y-90754663D02*
X166716666Y-90754663D01*
X166716666Y-90754663D02*
X166859523Y-90802282D01*
X166859523Y-90802282D02*
X166907142Y-90849901D01*
X167859523Y-91754663D02*
X167288095Y-91754663D01*
X167573809Y-91754663D02*
X167573809Y-90754663D01*
X167573809Y-90754663D02*
X167478571Y-90897520D01*
X167478571Y-90897520D02*
X167383333Y-90992758D01*
X167383333Y-90992758D02*
X167288095Y-91040377D01*
X168335714Y-91754663D02*
X168526190Y-91754663D01*
X168526190Y-91754663D02*
X168621428Y-91707044D01*
X168621428Y-91707044D02*
X168669047Y-91659424D01*
X168669047Y-91659424D02*
X168764285Y-91516567D01*
X168764285Y-91516567D02*
X168811904Y-91326091D01*
X168811904Y-91326091D02*
X168811904Y-90945139D01*
X168811904Y-90945139D02*
X168764285Y-90849901D01*
X168764285Y-90849901D02*
X168716666Y-90802282D01*
X168716666Y-90802282D02*
X168621428Y-90754663D01*
X168621428Y-90754663D02*
X168430952Y-90754663D01*
X168430952Y-90754663D02*
X168335714Y-90802282D01*
X168335714Y-90802282D02*
X168288095Y-90849901D01*
X168288095Y-90849901D02*
X168240476Y-90945139D01*
X168240476Y-90945139D02*
X168240476Y-91183234D01*
X168240476Y-91183234D02*
X168288095Y-91278472D01*
X168288095Y-91278472D02*
X168335714Y-91326091D01*
X168335714Y-91326091D02*
X168430952Y-91373710D01*
X168430952Y-91373710D02*
X168621428Y-91373710D01*
X168621428Y-91373710D02*
X168716666Y-91326091D01*
X168716666Y-91326091D02*
X168764285Y-91278472D01*
X168764285Y-91278472D02*
X168811904Y-91183234D01*
X181307142Y-101559424D02*
X181259523Y-101607044D01*
X181259523Y-101607044D02*
X181116666Y-101654663D01*
X181116666Y-101654663D02*
X181021428Y-101654663D01*
X181021428Y-101654663D02*
X180878571Y-101607044D01*
X180878571Y-101607044D02*
X180783333Y-101511805D01*
X180783333Y-101511805D02*
X180735714Y-101416567D01*
X180735714Y-101416567D02*
X180688095Y-101226091D01*
X180688095Y-101226091D02*
X180688095Y-101083234D01*
X180688095Y-101083234D02*
X180735714Y-100892758D01*
X180735714Y-100892758D02*
X180783333Y-100797520D01*
X180783333Y-100797520D02*
X180878571Y-100702282D01*
X180878571Y-100702282D02*
X181021428Y-100654663D01*
X181021428Y-100654663D02*
X181116666Y-100654663D01*
X181116666Y-100654663D02*
X181259523Y-100702282D01*
X181259523Y-100702282D02*
X181307142Y-100749901D01*
X181688095Y-100749901D02*
X181735714Y-100702282D01*
X181735714Y-100702282D02*
X181830952Y-100654663D01*
X181830952Y-100654663D02*
X182069047Y-100654663D01*
X182069047Y-100654663D02*
X182164285Y-100702282D01*
X182164285Y-100702282D02*
X182211904Y-100749901D01*
X182211904Y-100749901D02*
X182259523Y-100845139D01*
X182259523Y-100845139D02*
X182259523Y-100940377D01*
X182259523Y-100940377D02*
X182211904Y-101083234D01*
X182211904Y-101083234D02*
X181640476Y-101654663D01*
X181640476Y-101654663D02*
X182259523Y-101654663D01*
X182640476Y-100749901D02*
X182688095Y-100702282D01*
X182688095Y-100702282D02*
X182783333Y-100654663D01*
X182783333Y-100654663D02*
X183021428Y-100654663D01*
X183021428Y-100654663D02*
X183116666Y-100702282D01*
X183116666Y-100702282D02*
X183164285Y-100749901D01*
X183164285Y-100749901D02*
X183211904Y-100845139D01*
X183211904Y-100845139D02*
X183211904Y-100940377D01*
X183211904Y-100940377D02*
X183164285Y-101083234D01*
X183164285Y-101083234D02*
X182592857Y-101654663D01*
X182592857Y-101654663D02*
X183211904Y-101654663D01*
X158083333Y-92459424D02*
X158035714Y-92507044D01*
X158035714Y-92507044D02*
X157892857Y-92554663D01*
X157892857Y-92554663D02*
X157797619Y-92554663D01*
X157797619Y-92554663D02*
X157654762Y-92507044D01*
X157654762Y-92507044D02*
X157559524Y-92411805D01*
X157559524Y-92411805D02*
X157511905Y-92316567D01*
X157511905Y-92316567D02*
X157464286Y-92126091D01*
X157464286Y-92126091D02*
X157464286Y-91983234D01*
X157464286Y-91983234D02*
X157511905Y-91792758D01*
X157511905Y-91792758D02*
X157559524Y-91697520D01*
X157559524Y-91697520D02*
X157654762Y-91602282D01*
X157654762Y-91602282D02*
X157797619Y-91554663D01*
X157797619Y-91554663D02*
X157892857Y-91554663D01*
X157892857Y-91554663D02*
X158035714Y-91602282D01*
X158035714Y-91602282D02*
X158083333Y-91649901D01*
X158416667Y-91554663D02*
X159035714Y-91554663D01*
X159035714Y-91554663D02*
X158702381Y-91935615D01*
X158702381Y-91935615D02*
X158845238Y-91935615D01*
X158845238Y-91935615D02*
X158940476Y-91983234D01*
X158940476Y-91983234D02*
X158988095Y-92030853D01*
X158988095Y-92030853D02*
X159035714Y-92126091D01*
X159035714Y-92126091D02*
X159035714Y-92364186D01*
X159035714Y-92364186D02*
X158988095Y-92459424D01*
X158988095Y-92459424D02*
X158940476Y-92507044D01*
X158940476Y-92507044D02*
X158845238Y-92554663D01*
X158845238Y-92554663D02*
X158559524Y-92554663D01*
X158559524Y-92554663D02*
X158464286Y-92507044D01*
X158464286Y-92507044D02*
X158416667Y-92459424D01*
X148888095Y-79254663D02*
X148888095Y-80064186D01*
X148888095Y-80064186D02*
X148935714Y-80159424D01*
X148935714Y-80159424D02*
X148983333Y-80207044D01*
X148983333Y-80207044D02*
X149078571Y-80254663D01*
X149078571Y-80254663D02*
X149269047Y-80254663D01*
X149269047Y-80254663D02*
X149364285Y-80207044D01*
X149364285Y-80207044D02*
X149411904Y-80159424D01*
X149411904Y-80159424D02*
X149459523Y-80064186D01*
X149459523Y-80064186D02*
X149459523Y-79254663D01*
X150364285Y-79587996D02*
X150364285Y-80254663D01*
X150126190Y-79207044D02*
X149888095Y-79921329D01*
X149888095Y-79921329D02*
X150507142Y-79921329D01*
X181888095Y-86054663D02*
X181888095Y-86864186D01*
X181888095Y-86864186D02*
X181935714Y-86959424D01*
X181935714Y-86959424D02*
X181983333Y-87007044D01*
X181983333Y-87007044D02*
X182078571Y-87054663D01*
X182078571Y-87054663D02*
X182269047Y-87054663D01*
X182269047Y-87054663D02*
X182364285Y-87007044D01*
X182364285Y-87007044D02*
X182411904Y-86959424D01*
X182411904Y-86959424D02*
X182459523Y-86864186D01*
X182459523Y-86864186D02*
X182459523Y-86054663D01*
X182888095Y-86149901D02*
X182935714Y-86102282D01*
X182935714Y-86102282D02*
X183030952Y-86054663D01*
X183030952Y-86054663D02*
X183269047Y-86054663D01*
X183269047Y-86054663D02*
X183364285Y-86102282D01*
X183364285Y-86102282D02*
X183411904Y-86149901D01*
X183411904Y-86149901D02*
X183459523Y-86245139D01*
X183459523Y-86245139D02*
X183459523Y-86340377D01*
X183459523Y-86340377D02*
X183411904Y-86483234D01*
X183411904Y-86483234D02*
X182840476Y-87054663D01*
X182840476Y-87054663D02*
X183459523Y-87054663D01*
X151493333Y-90684663D02*
X151160000Y-90208472D01*
X150921905Y-90684663D02*
X150921905Y-89684663D01*
X150921905Y-89684663D02*
X151302857Y-89684663D01*
X151302857Y-89684663D02*
X151398095Y-89732282D01*
X151398095Y-89732282D02*
X151445714Y-89779901D01*
X151445714Y-89779901D02*
X151493333Y-89875139D01*
X151493333Y-89875139D02*
X151493333Y-90017996D01*
X151493333Y-90017996D02*
X151445714Y-90113234D01*
X151445714Y-90113234D02*
X151398095Y-90160853D01*
X151398095Y-90160853D02*
X151302857Y-90208472D01*
X151302857Y-90208472D02*
X150921905Y-90208472D01*
X152445714Y-90684663D02*
X151874286Y-90684663D01*
X152160000Y-90684663D02*
X152160000Y-89684663D01*
X152160000Y-89684663D02*
X152064762Y-89827520D01*
X152064762Y-89827520D02*
X151969524Y-89922758D01*
X151969524Y-89922758D02*
X151874286Y-89970377D01*
X155583333Y-109874663D02*
X155250000Y-109398472D01*
X155011905Y-109874663D02*
X155011905Y-108874663D01*
X155011905Y-108874663D02*
X155392857Y-108874663D01*
X155392857Y-108874663D02*
X155488095Y-108922282D01*
X155488095Y-108922282D02*
X155535714Y-108969901D01*
X155535714Y-108969901D02*
X155583333Y-109065139D01*
X155583333Y-109065139D02*
X155583333Y-109207996D01*
X155583333Y-109207996D02*
X155535714Y-109303234D01*
X155535714Y-109303234D02*
X155488095Y-109350853D01*
X155488095Y-109350853D02*
X155392857Y-109398472D01*
X155392857Y-109398472D02*
X155011905Y-109398472D01*
X156154762Y-109303234D02*
X156059524Y-109255615D01*
X156059524Y-109255615D02*
X156011905Y-109207996D01*
X156011905Y-109207996D02*
X155964286Y-109112758D01*
X155964286Y-109112758D02*
X155964286Y-109065139D01*
X155964286Y-109065139D02*
X156011905Y-108969901D01*
X156011905Y-108969901D02*
X156059524Y-108922282D01*
X156059524Y-108922282D02*
X156154762Y-108874663D01*
X156154762Y-108874663D02*
X156345238Y-108874663D01*
X156345238Y-108874663D02*
X156440476Y-108922282D01*
X156440476Y-108922282D02*
X156488095Y-108969901D01*
X156488095Y-108969901D02*
X156535714Y-109065139D01*
X156535714Y-109065139D02*
X156535714Y-109112758D01*
X156535714Y-109112758D02*
X156488095Y-109207996D01*
X156488095Y-109207996D02*
X156440476Y-109255615D01*
X156440476Y-109255615D02*
X156345238Y-109303234D01*
X156345238Y-109303234D02*
X156154762Y-109303234D01*
X156154762Y-109303234D02*
X156059524Y-109350853D01*
X156059524Y-109350853D02*
X156011905Y-109398472D01*
X156011905Y-109398472D02*
X155964286Y-109493710D01*
X155964286Y-109493710D02*
X155964286Y-109684186D01*
X155964286Y-109684186D02*
X156011905Y-109779424D01*
X156011905Y-109779424D02*
X156059524Y-109827044D01*
X156059524Y-109827044D02*
X156154762Y-109874663D01*
X156154762Y-109874663D02*
X156345238Y-109874663D01*
X156345238Y-109874663D02*
X156440476Y-109827044D01*
X156440476Y-109827044D02*
X156488095Y-109779424D01*
X156488095Y-109779424D02*
X156535714Y-109684186D01*
X156535714Y-109684186D02*
X156535714Y-109493710D01*
X156535714Y-109493710D02*
X156488095Y-109398472D01*
X156488095Y-109398472D02*
X156440476Y-109350853D01*
X156440476Y-109350853D02*
X156345238Y-109303234D01*
X172907142Y-90859424D02*
X172859523Y-90907044D01*
X172859523Y-90907044D02*
X172716666Y-90954663D01*
X172716666Y-90954663D02*
X172621428Y-90954663D01*
X172621428Y-90954663D02*
X172478571Y-90907044D01*
X172478571Y-90907044D02*
X172383333Y-90811805D01*
X172383333Y-90811805D02*
X172335714Y-90716567D01*
X172335714Y-90716567D02*
X172288095Y-90526091D01*
X172288095Y-90526091D02*
X172288095Y-90383234D01*
X172288095Y-90383234D02*
X172335714Y-90192758D01*
X172335714Y-90192758D02*
X172383333Y-90097520D01*
X172383333Y-90097520D02*
X172478571Y-90002282D01*
X172478571Y-90002282D02*
X172621428Y-89954663D01*
X172621428Y-89954663D02*
X172716666Y-89954663D01*
X172716666Y-89954663D02*
X172859523Y-90002282D01*
X172859523Y-90002282D02*
X172907142Y-90049901D01*
X173859523Y-90954663D02*
X173288095Y-90954663D01*
X173573809Y-90954663D02*
X173573809Y-89954663D01*
X173573809Y-89954663D02*
X173478571Y-90097520D01*
X173478571Y-90097520D02*
X173383333Y-90192758D01*
X173383333Y-90192758D02*
X173288095Y-90240377D01*
X174240476Y-90049901D02*
X174288095Y-90002282D01*
X174288095Y-90002282D02*
X174383333Y-89954663D01*
X174383333Y-89954663D02*
X174621428Y-89954663D01*
X174621428Y-89954663D02*
X174716666Y-90002282D01*
X174716666Y-90002282D02*
X174764285Y-90049901D01*
X174764285Y-90049901D02*
X174811904Y-90145139D01*
X174811904Y-90145139D02*
X174811904Y-90240377D01*
X174811904Y-90240377D02*
X174764285Y-90383234D01*
X174764285Y-90383234D02*
X174192857Y-90954663D01*
X174192857Y-90954663D02*
X174811904Y-90954663D01*
X145673809Y-99078472D02*
X145673809Y-99554663D01*
X145340476Y-98554663D02*
X145673809Y-99078472D01*
X145673809Y-99078472D02*
X146007142Y-98554663D01*
X146864285Y-99554663D02*
X146292857Y-99554663D01*
X146578571Y-99554663D02*
X146578571Y-98554663D01*
X146578571Y-98554663D02*
X146483333Y-98697520D01*
X146483333Y-98697520D02*
X146388095Y-98792758D01*
X146388095Y-98792758D02*
X146292857Y-98840377D01*
X150583333Y-101159424D02*
X150535714Y-101207044D01*
X150535714Y-101207044D02*
X150392857Y-101254663D01*
X150392857Y-101254663D02*
X150297619Y-101254663D01*
X150297619Y-101254663D02*
X150154762Y-101207044D01*
X150154762Y-101207044D02*
X150059524Y-101111805D01*
X150059524Y-101111805D02*
X150011905Y-101016567D01*
X150011905Y-101016567D02*
X149964286Y-100826091D01*
X149964286Y-100826091D02*
X149964286Y-100683234D01*
X149964286Y-100683234D02*
X150011905Y-100492758D01*
X150011905Y-100492758D02*
X150059524Y-100397520D01*
X150059524Y-100397520D02*
X150154762Y-100302282D01*
X150154762Y-100302282D02*
X150297619Y-100254663D01*
X150297619Y-100254663D02*
X150392857Y-100254663D01*
X150392857Y-100254663D02*
X150535714Y-100302282D01*
X150535714Y-100302282D02*
X150583333Y-100349901D01*
X151440476Y-100254663D02*
X151250000Y-100254663D01*
X151250000Y-100254663D02*
X151154762Y-100302282D01*
X151154762Y-100302282D02*
X151107143Y-100349901D01*
X151107143Y-100349901D02*
X151011905Y-100492758D01*
X151011905Y-100492758D02*
X150964286Y-100683234D01*
X150964286Y-100683234D02*
X150964286Y-101064186D01*
X150964286Y-101064186D02*
X151011905Y-101159424D01*
X151011905Y-101159424D02*
X151059524Y-101207044D01*
X151059524Y-101207044D02*
X151154762Y-101254663D01*
X151154762Y-101254663D02*
X151345238Y-101254663D01*
X151345238Y-101254663D02*
X151440476Y-101207044D01*
X151440476Y-101207044D02*
X151488095Y-101159424D01*
X151488095Y-101159424D02*
X151535714Y-101064186D01*
X151535714Y-101064186D02*
X151535714Y-100826091D01*
X151535714Y-100826091D02*
X151488095Y-100730853D01*
X151488095Y-100730853D02*
X151440476Y-100683234D01*
X151440476Y-100683234D02*
X151345238Y-100635615D01*
X151345238Y-100635615D02*
X151154762Y-100635615D01*
X151154762Y-100635615D02*
X151059524Y-100683234D01*
X151059524Y-100683234D02*
X151011905Y-100730853D01*
X151011905Y-100730853D02*
X150964286Y-100826091D01*
X175707142Y-106659424D02*
X175659523Y-106707044D01*
X175659523Y-106707044D02*
X175516666Y-106754663D01*
X175516666Y-106754663D02*
X175421428Y-106754663D01*
X175421428Y-106754663D02*
X175278571Y-106707044D01*
X175278571Y-106707044D02*
X175183333Y-106611805D01*
X175183333Y-106611805D02*
X175135714Y-106516567D01*
X175135714Y-106516567D02*
X175088095Y-106326091D01*
X175088095Y-106326091D02*
X175088095Y-106183234D01*
X175088095Y-106183234D02*
X175135714Y-105992758D01*
X175135714Y-105992758D02*
X175183333Y-105897520D01*
X175183333Y-105897520D02*
X175278571Y-105802282D01*
X175278571Y-105802282D02*
X175421428Y-105754663D01*
X175421428Y-105754663D02*
X175516666Y-105754663D01*
X175516666Y-105754663D02*
X175659523Y-105802282D01*
X175659523Y-105802282D02*
X175707142Y-105849901D01*
X176088095Y-105849901D02*
X176135714Y-105802282D01*
X176135714Y-105802282D02*
X176230952Y-105754663D01*
X176230952Y-105754663D02*
X176469047Y-105754663D01*
X176469047Y-105754663D02*
X176564285Y-105802282D01*
X176564285Y-105802282D02*
X176611904Y-105849901D01*
X176611904Y-105849901D02*
X176659523Y-105945139D01*
X176659523Y-105945139D02*
X176659523Y-106040377D01*
X176659523Y-106040377D02*
X176611904Y-106183234D01*
X176611904Y-106183234D02*
X176040476Y-106754663D01*
X176040476Y-106754663D02*
X176659523Y-106754663D01*
X177611904Y-106754663D02*
X177040476Y-106754663D01*
X177326190Y-106754663D02*
X177326190Y-105754663D01*
X177326190Y-105754663D02*
X177230952Y-105897520D01*
X177230952Y-105897520D02*
X177135714Y-105992758D01*
X177135714Y-105992758D02*
X177040476Y-106040377D01*
X160988095Y-92854663D02*
X160988095Y-93664186D01*
X160988095Y-93664186D02*
X161035714Y-93759424D01*
X161035714Y-93759424D02*
X161083333Y-93807044D01*
X161083333Y-93807044D02*
X161178571Y-93854663D01*
X161178571Y-93854663D02*
X161369047Y-93854663D01*
X161369047Y-93854663D02*
X161464285Y-93807044D01*
X161464285Y-93807044D02*
X161511904Y-93759424D01*
X161511904Y-93759424D02*
X161559523Y-93664186D01*
X161559523Y-93664186D02*
X161559523Y-92854663D01*
X162559523Y-93854663D02*
X161988095Y-93854663D01*
X162273809Y-93854663D02*
X162273809Y-92854663D01*
X162273809Y-92854663D02*
X162178571Y-92997520D01*
X162178571Y-92997520D02*
X162083333Y-93092758D01*
X162083333Y-93092758D02*
X161988095Y-93140377D01*
X164083333Y-95259424D02*
X164035714Y-95307044D01*
X164035714Y-95307044D02*
X163892857Y-95354663D01*
X163892857Y-95354663D02*
X163797619Y-95354663D01*
X163797619Y-95354663D02*
X163654762Y-95307044D01*
X163654762Y-95307044D02*
X163559524Y-95211805D01*
X163559524Y-95211805D02*
X163511905Y-95116567D01*
X163511905Y-95116567D02*
X163464286Y-94926091D01*
X163464286Y-94926091D02*
X163464286Y-94783234D01*
X163464286Y-94783234D02*
X163511905Y-94592758D01*
X163511905Y-94592758D02*
X163559524Y-94497520D01*
X163559524Y-94497520D02*
X163654762Y-94402282D01*
X163654762Y-94402282D02*
X163797619Y-94354663D01*
X163797619Y-94354663D02*
X163892857Y-94354663D01*
X163892857Y-94354663D02*
X164035714Y-94402282D01*
X164035714Y-94402282D02*
X164083333Y-94449901D01*
X164464286Y-94449901D02*
X164511905Y-94402282D01*
X164511905Y-94402282D02*
X164607143Y-94354663D01*
X164607143Y-94354663D02*
X164845238Y-94354663D01*
X164845238Y-94354663D02*
X164940476Y-94402282D01*
X164940476Y-94402282D02*
X164988095Y-94449901D01*
X164988095Y-94449901D02*
X165035714Y-94545139D01*
X165035714Y-94545139D02*
X165035714Y-94640377D01*
X165035714Y-94640377D02*
X164988095Y-94783234D01*
X164988095Y-94783234D02*
X164416667Y-95354663D01*
X164416667Y-95354663D02*
X165035714Y-95354663D01*
X168416666Y-122054663D02*
X168416666Y-122768948D01*
X168416666Y-122768948D02*
X168369047Y-122911805D01*
X168369047Y-122911805D02*
X168273809Y-123007044D01*
X168273809Y-123007044D02*
X168130952Y-123054663D01*
X168130952Y-123054663D02*
X168035714Y-123054663D01*
X169369047Y-122054663D02*
X168892857Y-122054663D01*
X168892857Y-122054663D02*
X168845238Y-122530853D01*
X168845238Y-122530853D02*
X168892857Y-122483234D01*
X168892857Y-122483234D02*
X168988095Y-122435615D01*
X168988095Y-122435615D02*
X169226190Y-122435615D01*
X169226190Y-122435615D02*
X169321428Y-122483234D01*
X169321428Y-122483234D02*
X169369047Y-122530853D01*
X169369047Y-122530853D02*
X169416666Y-122626091D01*
X169416666Y-122626091D02*
X169416666Y-122864186D01*
X169416666Y-122864186D02*
X169369047Y-122959424D01*
X169369047Y-122959424D02*
X169321428Y-123007044D01*
X169321428Y-123007044D02*
X169226190Y-123054663D01*
X169226190Y-123054663D02*
X168988095Y-123054663D01*
X168988095Y-123054663D02*
X168892857Y-123007044D01*
X168892857Y-123007044D02*
X168845238Y-122959424D01*
X165688095Y-103154663D02*
X165688095Y-103964186D01*
X165688095Y-103964186D02*
X165735714Y-104059424D01*
X165735714Y-104059424D02*
X165783333Y-104107044D01*
X165783333Y-104107044D02*
X165878571Y-104154663D01*
X165878571Y-104154663D02*
X166069047Y-104154663D01*
X166069047Y-104154663D02*
X166164285Y-104107044D01*
X166164285Y-104107044D02*
X166211904Y-104059424D01*
X166211904Y-104059424D02*
X166259523Y-103964186D01*
X166259523Y-103964186D02*
X166259523Y-103154663D01*
X167211904Y-103154663D02*
X166735714Y-103154663D01*
X166735714Y-103154663D02*
X166688095Y-103630853D01*
X166688095Y-103630853D02*
X166735714Y-103583234D01*
X166735714Y-103583234D02*
X166830952Y-103535615D01*
X166830952Y-103535615D02*
X167069047Y-103535615D01*
X167069047Y-103535615D02*
X167164285Y-103583234D01*
X167164285Y-103583234D02*
X167211904Y-103630853D01*
X167211904Y-103630853D02*
X167259523Y-103726091D01*
X167259523Y-103726091D02*
X167259523Y-103964186D01*
X167259523Y-103964186D02*
X167211904Y-104059424D01*
X167211904Y-104059424D02*
X167164285Y-104107044D01*
X167164285Y-104107044D02*
X167069047Y-104154663D01*
X167069047Y-104154663D02*
X166830952Y-104154663D01*
X166830952Y-104154663D02*
X166735714Y-104107044D01*
X166735714Y-104107044D02*
X166688095Y-104059424D01*
X176983333Y-101654663D02*
X176507143Y-101654663D01*
X176507143Y-101654663D02*
X176507143Y-100654663D01*
X177221429Y-100654663D02*
X177840476Y-100654663D01*
X177840476Y-100654663D02*
X177507143Y-101035615D01*
X177507143Y-101035615D02*
X177650000Y-101035615D01*
X177650000Y-101035615D02*
X177745238Y-101083234D01*
X177745238Y-101083234D02*
X177792857Y-101130853D01*
X177792857Y-101130853D02*
X177840476Y-101226091D01*
X177840476Y-101226091D02*
X177840476Y-101464186D01*
X177840476Y-101464186D02*
X177792857Y-101559424D01*
X177792857Y-101559424D02*
X177745238Y-101607044D01*
X177745238Y-101607044D02*
X177650000Y-101654663D01*
X177650000Y-101654663D02*
X177364286Y-101654663D01*
X177364286Y-101654663D02*
X177269048Y-101607044D01*
X177269048Y-101607044D02*
X177221429Y-101559424D01*
X144316667Y-85107044D02*
X144459524Y-85154663D01*
X144459524Y-85154663D02*
X144697619Y-85154663D01*
X144697619Y-85154663D02*
X144792857Y-85107044D01*
X144792857Y-85107044D02*
X144840476Y-85059424D01*
X144840476Y-85059424D02*
X144888095Y-84964186D01*
X144888095Y-84964186D02*
X144888095Y-84868948D01*
X144888095Y-84868948D02*
X144840476Y-84773710D01*
X144840476Y-84773710D02*
X144792857Y-84726091D01*
X144792857Y-84726091D02*
X144697619Y-84678472D01*
X144697619Y-84678472D02*
X144507143Y-84630853D01*
X144507143Y-84630853D02*
X144411905Y-84583234D01*
X144411905Y-84583234D02*
X144364286Y-84535615D01*
X144364286Y-84535615D02*
X144316667Y-84440377D01*
X144316667Y-84440377D02*
X144316667Y-84345139D01*
X144316667Y-84345139D02*
X144364286Y-84249901D01*
X144364286Y-84249901D02*
X144411905Y-84202282D01*
X144411905Y-84202282D02*
X144507143Y-84154663D01*
X144507143Y-84154663D02*
X144745238Y-84154663D01*
X144745238Y-84154663D02*
X144888095Y-84202282D01*
X145221429Y-84154663D02*
X145459524Y-85154663D01*
X145459524Y-85154663D02*
X145650000Y-84440377D01*
X145650000Y-84440377D02*
X145840476Y-85154663D01*
X145840476Y-85154663D02*
X146078572Y-84154663D01*
X146983333Y-85154663D02*
X146411905Y-85154663D01*
X146697619Y-85154663D02*
X146697619Y-84154663D01*
X146697619Y-84154663D02*
X146602381Y-84297520D01*
X146602381Y-84297520D02*
X146507143Y-84392758D01*
X146507143Y-84392758D02*
X146411905Y-84440377D01*
X162483333Y-108754663D02*
X162150000Y-108278472D01*
X161911905Y-108754663D02*
X161911905Y-107754663D01*
X161911905Y-107754663D02*
X162292857Y-107754663D01*
X162292857Y-107754663D02*
X162388095Y-107802282D01*
X162388095Y-107802282D02*
X162435714Y-107849901D01*
X162435714Y-107849901D02*
X162483333Y-107945139D01*
X162483333Y-107945139D02*
X162483333Y-108087996D01*
X162483333Y-108087996D02*
X162435714Y-108183234D01*
X162435714Y-108183234D02*
X162388095Y-108230853D01*
X162388095Y-108230853D02*
X162292857Y-108278472D01*
X162292857Y-108278472D02*
X161911905Y-108278472D01*
X162959524Y-108754663D02*
X163150000Y-108754663D01*
X163150000Y-108754663D02*
X163245238Y-108707044D01*
X163245238Y-108707044D02*
X163292857Y-108659424D01*
X163292857Y-108659424D02*
X163388095Y-108516567D01*
X163388095Y-108516567D02*
X163435714Y-108326091D01*
X163435714Y-108326091D02*
X163435714Y-107945139D01*
X163435714Y-107945139D02*
X163388095Y-107849901D01*
X163388095Y-107849901D02*
X163340476Y-107802282D01*
X163340476Y-107802282D02*
X163245238Y-107754663D01*
X163245238Y-107754663D02*
X163054762Y-107754663D01*
X163054762Y-107754663D02*
X162959524Y-107802282D01*
X162959524Y-107802282D02*
X162911905Y-107849901D01*
X162911905Y-107849901D02*
X162864286Y-107945139D01*
X162864286Y-107945139D02*
X162864286Y-108183234D01*
X162864286Y-108183234D02*
X162911905Y-108278472D01*
X162911905Y-108278472D02*
X162959524Y-108326091D01*
X162959524Y-108326091D02*
X163054762Y-108373710D01*
X163054762Y-108373710D02*
X163245238Y-108373710D01*
X163245238Y-108373710D02*
X163340476Y-108326091D01*
X163340476Y-108326091D02*
X163388095Y-108278472D01*
X163388095Y-108278472D02*
X163435714Y-108183234D01*
X166307142Y-105759424D02*
X166259523Y-105807044D01*
X166259523Y-105807044D02*
X166116666Y-105854663D01*
X166116666Y-105854663D02*
X166021428Y-105854663D01*
X166021428Y-105854663D02*
X165878571Y-105807044D01*
X165878571Y-105807044D02*
X165783333Y-105711805D01*
X165783333Y-105711805D02*
X165735714Y-105616567D01*
X165735714Y-105616567D02*
X165688095Y-105426091D01*
X165688095Y-105426091D02*
X165688095Y-105283234D01*
X165688095Y-105283234D02*
X165735714Y-105092758D01*
X165735714Y-105092758D02*
X165783333Y-104997520D01*
X165783333Y-104997520D02*
X165878571Y-104902282D01*
X165878571Y-104902282D02*
X166021428Y-104854663D01*
X166021428Y-104854663D02*
X166116666Y-104854663D01*
X166116666Y-104854663D02*
X166259523Y-104902282D01*
X166259523Y-104902282D02*
X166307142Y-104949901D01*
X166688095Y-104949901D02*
X166735714Y-104902282D01*
X166735714Y-104902282D02*
X166830952Y-104854663D01*
X166830952Y-104854663D02*
X167069047Y-104854663D01*
X167069047Y-104854663D02*
X167164285Y-104902282D01*
X167164285Y-104902282D02*
X167211904Y-104949901D01*
X167211904Y-104949901D02*
X167259523Y-105045139D01*
X167259523Y-105045139D02*
X167259523Y-105140377D01*
X167259523Y-105140377D02*
X167211904Y-105283234D01*
X167211904Y-105283234D02*
X166640476Y-105854663D01*
X166640476Y-105854663D02*
X167259523Y-105854663D01*
X168116666Y-104854663D02*
X167926190Y-104854663D01*
X167926190Y-104854663D02*
X167830952Y-104902282D01*
X167830952Y-104902282D02*
X167783333Y-104949901D01*
X167783333Y-104949901D02*
X167688095Y-105092758D01*
X167688095Y-105092758D02*
X167640476Y-105283234D01*
X167640476Y-105283234D02*
X167640476Y-105664186D01*
X167640476Y-105664186D02*
X167688095Y-105759424D01*
X167688095Y-105759424D02*
X167735714Y-105807044D01*
X167735714Y-105807044D02*
X167830952Y-105854663D01*
X167830952Y-105854663D02*
X168021428Y-105854663D01*
X168021428Y-105854663D02*
X168116666Y-105807044D01*
X168116666Y-105807044D02*
X168164285Y-105759424D01*
X168164285Y-105759424D02*
X168211904Y-105664186D01*
X168211904Y-105664186D02*
X168211904Y-105426091D01*
X168211904Y-105426091D02*
X168164285Y-105330853D01*
X168164285Y-105330853D02*
X168116666Y-105283234D01*
X168116666Y-105283234D02*
X168021428Y-105235615D01*
X168021428Y-105235615D02*
X167830952Y-105235615D01*
X167830952Y-105235615D02*
X167735714Y-105283234D01*
X167735714Y-105283234D02*
X167688095Y-105330853D01*
X167688095Y-105330853D02*
X167640476Y-105426091D01*
X154707142Y-111159424D02*
X154659523Y-111207044D01*
X154659523Y-111207044D02*
X154516666Y-111254663D01*
X154516666Y-111254663D02*
X154421428Y-111254663D01*
X154421428Y-111254663D02*
X154278571Y-111207044D01*
X154278571Y-111207044D02*
X154183333Y-111111805D01*
X154183333Y-111111805D02*
X154135714Y-111016567D01*
X154135714Y-111016567D02*
X154088095Y-110826091D01*
X154088095Y-110826091D02*
X154088095Y-110683234D01*
X154088095Y-110683234D02*
X154135714Y-110492758D01*
X154135714Y-110492758D02*
X154183333Y-110397520D01*
X154183333Y-110397520D02*
X154278571Y-110302282D01*
X154278571Y-110302282D02*
X154421428Y-110254663D01*
X154421428Y-110254663D02*
X154516666Y-110254663D01*
X154516666Y-110254663D02*
X154659523Y-110302282D01*
X154659523Y-110302282D02*
X154707142Y-110349901D01*
X155040476Y-110254663D02*
X155659523Y-110254663D01*
X155659523Y-110254663D02*
X155326190Y-110635615D01*
X155326190Y-110635615D02*
X155469047Y-110635615D01*
X155469047Y-110635615D02*
X155564285Y-110683234D01*
X155564285Y-110683234D02*
X155611904Y-110730853D01*
X155611904Y-110730853D02*
X155659523Y-110826091D01*
X155659523Y-110826091D02*
X155659523Y-111064186D01*
X155659523Y-111064186D02*
X155611904Y-111159424D01*
X155611904Y-111159424D02*
X155564285Y-111207044D01*
X155564285Y-111207044D02*
X155469047Y-111254663D01*
X155469047Y-111254663D02*
X155183333Y-111254663D01*
X155183333Y-111254663D02*
X155088095Y-111207044D01*
X155088095Y-111207044D02*
X155040476Y-111159424D01*
X156611904Y-111254663D02*
X156040476Y-111254663D01*
X156326190Y-111254663D02*
X156326190Y-110254663D01*
X156326190Y-110254663D02*
X156230952Y-110397520D01*
X156230952Y-110397520D02*
X156135714Y-110492758D01*
X156135714Y-110492758D02*
X156040476Y-110540377D01*
X153683333Y-98759424D02*
X153635714Y-98807044D01*
X153635714Y-98807044D02*
X153492857Y-98854663D01*
X153492857Y-98854663D02*
X153397619Y-98854663D01*
X153397619Y-98854663D02*
X153254762Y-98807044D01*
X153254762Y-98807044D02*
X153159524Y-98711805D01*
X153159524Y-98711805D02*
X153111905Y-98616567D01*
X153111905Y-98616567D02*
X153064286Y-98426091D01*
X153064286Y-98426091D02*
X153064286Y-98283234D01*
X153064286Y-98283234D02*
X153111905Y-98092758D01*
X153111905Y-98092758D02*
X153159524Y-97997520D01*
X153159524Y-97997520D02*
X153254762Y-97902282D01*
X153254762Y-97902282D02*
X153397619Y-97854663D01*
X153397619Y-97854663D02*
X153492857Y-97854663D01*
X153492857Y-97854663D02*
X153635714Y-97902282D01*
X153635714Y-97902282D02*
X153683333Y-97949901D01*
X154159524Y-98854663D02*
X154350000Y-98854663D01*
X154350000Y-98854663D02*
X154445238Y-98807044D01*
X154445238Y-98807044D02*
X154492857Y-98759424D01*
X154492857Y-98759424D02*
X154588095Y-98616567D01*
X154588095Y-98616567D02*
X154635714Y-98426091D01*
X154635714Y-98426091D02*
X154635714Y-98045139D01*
X154635714Y-98045139D02*
X154588095Y-97949901D01*
X154588095Y-97949901D02*
X154540476Y-97902282D01*
X154540476Y-97902282D02*
X154445238Y-97854663D01*
X154445238Y-97854663D02*
X154254762Y-97854663D01*
X154254762Y-97854663D02*
X154159524Y-97902282D01*
X154159524Y-97902282D02*
X154111905Y-97949901D01*
X154111905Y-97949901D02*
X154064286Y-98045139D01*
X154064286Y-98045139D02*
X154064286Y-98283234D01*
X154064286Y-98283234D02*
X154111905Y-98378472D01*
X154111905Y-98378472D02*
X154159524Y-98426091D01*
X154159524Y-98426091D02*
X154254762Y-98473710D01*
X154254762Y-98473710D02*
X154445238Y-98473710D01*
X154445238Y-98473710D02*
X154540476Y-98426091D01*
X154540476Y-98426091D02*
X154588095Y-98378472D01*
X154588095Y-98378472D02*
X154635714Y-98283234D01*
X157407142Y-90259424D02*
X157359523Y-90307044D01*
X157359523Y-90307044D02*
X157216666Y-90354663D01*
X157216666Y-90354663D02*
X157121428Y-90354663D01*
X157121428Y-90354663D02*
X156978571Y-90307044D01*
X156978571Y-90307044D02*
X156883333Y-90211805D01*
X156883333Y-90211805D02*
X156835714Y-90116567D01*
X156835714Y-90116567D02*
X156788095Y-89926091D01*
X156788095Y-89926091D02*
X156788095Y-89783234D01*
X156788095Y-89783234D02*
X156835714Y-89592758D01*
X156835714Y-89592758D02*
X156883333Y-89497520D01*
X156883333Y-89497520D02*
X156978571Y-89402282D01*
X156978571Y-89402282D02*
X157121428Y-89354663D01*
X157121428Y-89354663D02*
X157216666Y-89354663D01*
X157216666Y-89354663D02*
X157359523Y-89402282D01*
X157359523Y-89402282D02*
X157407142Y-89449901D01*
X158359523Y-90354663D02*
X157788095Y-90354663D01*
X158073809Y-90354663D02*
X158073809Y-89354663D01*
X158073809Y-89354663D02*
X157978571Y-89497520D01*
X157978571Y-89497520D02*
X157883333Y-89592758D01*
X157883333Y-89592758D02*
X157788095Y-89640377D01*
X158692857Y-89354663D02*
X159359523Y-89354663D01*
X159359523Y-89354663D02*
X158930952Y-90354663D01*
X148883333Y-104259424D02*
X148835714Y-104307044D01*
X148835714Y-104307044D02*
X148692857Y-104354663D01*
X148692857Y-104354663D02*
X148597619Y-104354663D01*
X148597619Y-104354663D02*
X148454762Y-104307044D01*
X148454762Y-104307044D02*
X148359524Y-104211805D01*
X148359524Y-104211805D02*
X148311905Y-104116567D01*
X148311905Y-104116567D02*
X148264286Y-103926091D01*
X148264286Y-103926091D02*
X148264286Y-103783234D01*
X148264286Y-103783234D02*
X148311905Y-103592758D01*
X148311905Y-103592758D02*
X148359524Y-103497520D01*
X148359524Y-103497520D02*
X148454762Y-103402282D01*
X148454762Y-103402282D02*
X148597619Y-103354663D01*
X148597619Y-103354663D02*
X148692857Y-103354663D01*
X148692857Y-103354663D02*
X148835714Y-103402282D01*
X148835714Y-103402282D02*
X148883333Y-103449901D01*
X149454762Y-103783234D02*
X149359524Y-103735615D01*
X149359524Y-103735615D02*
X149311905Y-103687996D01*
X149311905Y-103687996D02*
X149264286Y-103592758D01*
X149264286Y-103592758D02*
X149264286Y-103545139D01*
X149264286Y-103545139D02*
X149311905Y-103449901D01*
X149311905Y-103449901D02*
X149359524Y-103402282D01*
X149359524Y-103402282D02*
X149454762Y-103354663D01*
X149454762Y-103354663D02*
X149645238Y-103354663D01*
X149645238Y-103354663D02*
X149740476Y-103402282D01*
X149740476Y-103402282D02*
X149788095Y-103449901D01*
X149788095Y-103449901D02*
X149835714Y-103545139D01*
X149835714Y-103545139D02*
X149835714Y-103592758D01*
X149835714Y-103592758D02*
X149788095Y-103687996D01*
X149788095Y-103687996D02*
X149740476Y-103735615D01*
X149740476Y-103735615D02*
X149645238Y-103783234D01*
X149645238Y-103783234D02*
X149454762Y-103783234D01*
X149454762Y-103783234D02*
X149359524Y-103830853D01*
X149359524Y-103830853D02*
X149311905Y-103878472D01*
X149311905Y-103878472D02*
X149264286Y-103973710D01*
X149264286Y-103973710D02*
X149264286Y-104164186D01*
X149264286Y-104164186D02*
X149311905Y-104259424D01*
X149311905Y-104259424D02*
X149359524Y-104307044D01*
X149359524Y-104307044D02*
X149454762Y-104354663D01*
X149454762Y-104354663D02*
X149645238Y-104354663D01*
X149645238Y-104354663D02*
X149740476Y-104307044D01*
X149740476Y-104307044D02*
X149788095Y-104259424D01*
X149788095Y-104259424D02*
X149835714Y-104164186D01*
X149835714Y-104164186D02*
X149835714Y-103973710D01*
X149835714Y-103973710D02*
X149788095Y-103878472D01*
X149788095Y-103878472D02*
X149740476Y-103830853D01*
X149740476Y-103830853D02*
X149645238Y-103783234D01*
X149007142Y-99859424D02*
X148959523Y-99907044D01*
X148959523Y-99907044D02*
X148816666Y-99954663D01*
X148816666Y-99954663D02*
X148721428Y-99954663D01*
X148721428Y-99954663D02*
X148578571Y-99907044D01*
X148578571Y-99907044D02*
X148483333Y-99811805D01*
X148483333Y-99811805D02*
X148435714Y-99716567D01*
X148435714Y-99716567D02*
X148388095Y-99526091D01*
X148388095Y-99526091D02*
X148388095Y-99383234D01*
X148388095Y-99383234D02*
X148435714Y-99192758D01*
X148435714Y-99192758D02*
X148483333Y-99097520D01*
X148483333Y-99097520D02*
X148578571Y-99002282D01*
X148578571Y-99002282D02*
X148721428Y-98954663D01*
X148721428Y-98954663D02*
X148816666Y-98954663D01*
X148816666Y-98954663D02*
X148959523Y-99002282D01*
X148959523Y-99002282D02*
X149007142Y-99049901D01*
X149959523Y-99954663D02*
X149388095Y-99954663D01*
X149673809Y-99954663D02*
X149673809Y-98954663D01*
X149673809Y-98954663D02*
X149578571Y-99097520D01*
X149578571Y-99097520D02*
X149483333Y-99192758D01*
X149483333Y-99192758D02*
X149388095Y-99240377D01*
X150911904Y-99954663D02*
X150340476Y-99954663D01*
X150626190Y-99954663D02*
X150626190Y-98954663D01*
X150626190Y-98954663D02*
X150530952Y-99097520D01*
X150530952Y-99097520D02*
X150435714Y-99192758D01*
X150435714Y-99192758D02*
X150340476Y-99240377D01*
X177983333Y-105254663D02*
X177507143Y-105254663D01*
X177507143Y-105254663D02*
X177507143Y-104254663D01*
X178840476Y-105254663D02*
X178269048Y-105254663D01*
X178554762Y-105254663D02*
X178554762Y-104254663D01*
X178554762Y-104254663D02*
X178459524Y-104397520D01*
X178459524Y-104397520D02*
X178364286Y-104492758D01*
X178364286Y-104492758D02*
X178269048Y-104540377D01*
X168011905Y-84254663D02*
X168011905Y-83254663D01*
X168011905Y-83254663D02*
X168250000Y-83254663D01*
X168250000Y-83254663D02*
X168392857Y-83302282D01*
X168392857Y-83302282D02*
X168488095Y-83397520D01*
X168488095Y-83397520D02*
X168535714Y-83492758D01*
X168535714Y-83492758D02*
X168583333Y-83683234D01*
X168583333Y-83683234D02*
X168583333Y-83826091D01*
X168583333Y-83826091D02*
X168535714Y-84016567D01*
X168535714Y-84016567D02*
X168488095Y-84111805D01*
X168488095Y-84111805D02*
X168392857Y-84207044D01*
X168392857Y-84207044D02*
X168250000Y-84254663D01*
X168250000Y-84254663D02*
X168011905Y-84254663D01*
X169535714Y-84254663D02*
X168964286Y-84254663D01*
X169250000Y-84254663D02*
X169250000Y-83254663D01*
X169250000Y-83254663D02*
X169154762Y-83397520D01*
X169154762Y-83397520D02*
X169059524Y-83492758D01*
X169059524Y-83492758D02*
X168964286Y-83540377D01*
X152716666Y-105230853D02*
X152383333Y-105230853D01*
X152383333Y-105754663D02*
X152383333Y-104754663D01*
X152383333Y-104754663D02*
X152859523Y-104754663D01*
X153573809Y-105230853D02*
X153716666Y-105278472D01*
X153716666Y-105278472D02*
X153764285Y-105326091D01*
X153764285Y-105326091D02*
X153811904Y-105421329D01*
X153811904Y-105421329D02*
X153811904Y-105564186D01*
X153811904Y-105564186D02*
X153764285Y-105659424D01*
X153764285Y-105659424D02*
X153716666Y-105707044D01*
X153716666Y-105707044D02*
X153621428Y-105754663D01*
X153621428Y-105754663D02*
X153240476Y-105754663D01*
X153240476Y-105754663D02*
X153240476Y-104754663D01*
X153240476Y-104754663D02*
X153573809Y-104754663D01*
X153573809Y-104754663D02*
X153669047Y-104802282D01*
X153669047Y-104802282D02*
X153716666Y-104849901D01*
X153716666Y-104849901D02*
X153764285Y-104945139D01*
X153764285Y-104945139D02*
X153764285Y-105040377D01*
X153764285Y-105040377D02*
X153716666Y-105135615D01*
X153716666Y-105135615D02*
X153669047Y-105183234D01*
X153669047Y-105183234D02*
X153573809Y-105230853D01*
X153573809Y-105230853D02*
X153240476Y-105230853D01*
X154764285Y-105754663D02*
X154192857Y-105754663D01*
X154478571Y-105754663D02*
X154478571Y-104754663D01*
X154478571Y-104754663D02*
X154383333Y-104897520D01*
X154383333Y-104897520D02*
X154288095Y-104992758D01*
X154288095Y-104992758D02*
X154192857Y-105040377D01*
X165707142Y-99259424D02*
X165659523Y-99307044D01*
X165659523Y-99307044D02*
X165516666Y-99354663D01*
X165516666Y-99354663D02*
X165421428Y-99354663D01*
X165421428Y-99354663D02*
X165278571Y-99307044D01*
X165278571Y-99307044D02*
X165183333Y-99211805D01*
X165183333Y-99211805D02*
X165135714Y-99116567D01*
X165135714Y-99116567D02*
X165088095Y-98926091D01*
X165088095Y-98926091D02*
X165088095Y-98783234D01*
X165088095Y-98783234D02*
X165135714Y-98592758D01*
X165135714Y-98592758D02*
X165183333Y-98497520D01*
X165183333Y-98497520D02*
X165278571Y-98402282D01*
X165278571Y-98402282D02*
X165421428Y-98354663D01*
X165421428Y-98354663D02*
X165516666Y-98354663D01*
X165516666Y-98354663D02*
X165659523Y-98402282D01*
X165659523Y-98402282D02*
X165707142Y-98449901D01*
X166088095Y-98449901D02*
X166135714Y-98402282D01*
X166135714Y-98402282D02*
X166230952Y-98354663D01*
X166230952Y-98354663D02*
X166469047Y-98354663D01*
X166469047Y-98354663D02*
X166564285Y-98402282D01*
X166564285Y-98402282D02*
X166611904Y-98449901D01*
X166611904Y-98449901D02*
X166659523Y-98545139D01*
X166659523Y-98545139D02*
X166659523Y-98640377D01*
X166659523Y-98640377D02*
X166611904Y-98783234D01*
X166611904Y-98783234D02*
X166040476Y-99354663D01*
X166040476Y-99354663D02*
X166659523Y-99354663D01*
X167230952Y-98783234D02*
X167135714Y-98735615D01*
X167135714Y-98735615D02*
X167088095Y-98687996D01*
X167088095Y-98687996D02*
X167040476Y-98592758D01*
X167040476Y-98592758D02*
X167040476Y-98545139D01*
X167040476Y-98545139D02*
X167088095Y-98449901D01*
X167088095Y-98449901D02*
X167135714Y-98402282D01*
X167135714Y-98402282D02*
X167230952Y-98354663D01*
X167230952Y-98354663D02*
X167421428Y-98354663D01*
X167421428Y-98354663D02*
X167516666Y-98402282D01*
X167516666Y-98402282D02*
X167564285Y-98449901D01*
X167564285Y-98449901D02*
X167611904Y-98545139D01*
X167611904Y-98545139D02*
X167611904Y-98592758D01*
X167611904Y-98592758D02*
X167564285Y-98687996D01*
X167564285Y-98687996D02*
X167516666Y-98735615D01*
X167516666Y-98735615D02*
X167421428Y-98783234D01*
X167421428Y-98783234D02*
X167230952Y-98783234D01*
X167230952Y-98783234D02*
X167135714Y-98830853D01*
X167135714Y-98830853D02*
X167088095Y-98878472D01*
X167088095Y-98878472D02*
X167040476Y-98973710D01*
X167040476Y-98973710D02*
X167040476Y-99164186D01*
X167040476Y-99164186D02*
X167088095Y-99259424D01*
X167088095Y-99259424D02*
X167135714Y-99307044D01*
X167135714Y-99307044D02*
X167230952Y-99354663D01*
X167230952Y-99354663D02*
X167421428Y-99354663D01*
X167421428Y-99354663D02*
X167516666Y-99307044D01*
X167516666Y-99307044D02*
X167564285Y-99259424D01*
X167564285Y-99259424D02*
X167611904Y-99164186D01*
X167611904Y-99164186D02*
X167611904Y-98973710D01*
X167611904Y-98973710D02*
X167564285Y-98878472D01*
X167564285Y-98878472D02*
X167516666Y-98830853D01*
X167516666Y-98830853D02*
X167421428Y-98783234D01*
X171007142Y-106059424D02*
X170959523Y-106107044D01*
X170959523Y-106107044D02*
X170816666Y-106154663D01*
X170816666Y-106154663D02*
X170721428Y-106154663D01*
X170721428Y-106154663D02*
X170578571Y-106107044D01*
X170578571Y-106107044D02*
X170483333Y-106011805D01*
X170483333Y-106011805D02*
X170435714Y-105916567D01*
X170435714Y-105916567D02*
X170388095Y-105726091D01*
X170388095Y-105726091D02*
X170388095Y-105583234D01*
X170388095Y-105583234D02*
X170435714Y-105392758D01*
X170435714Y-105392758D02*
X170483333Y-105297520D01*
X170483333Y-105297520D02*
X170578571Y-105202282D01*
X170578571Y-105202282D02*
X170721428Y-105154663D01*
X170721428Y-105154663D02*
X170816666Y-105154663D01*
X170816666Y-105154663D02*
X170959523Y-105202282D01*
X170959523Y-105202282D02*
X171007142Y-105249901D01*
X171388095Y-105249901D02*
X171435714Y-105202282D01*
X171435714Y-105202282D02*
X171530952Y-105154663D01*
X171530952Y-105154663D02*
X171769047Y-105154663D01*
X171769047Y-105154663D02*
X171864285Y-105202282D01*
X171864285Y-105202282D02*
X171911904Y-105249901D01*
X171911904Y-105249901D02*
X171959523Y-105345139D01*
X171959523Y-105345139D02*
X171959523Y-105440377D01*
X171959523Y-105440377D02*
X171911904Y-105583234D01*
X171911904Y-105583234D02*
X171340476Y-106154663D01*
X171340476Y-106154663D02*
X171959523Y-106154663D01*
X172578571Y-105154663D02*
X172673809Y-105154663D01*
X172673809Y-105154663D02*
X172769047Y-105202282D01*
X172769047Y-105202282D02*
X172816666Y-105249901D01*
X172816666Y-105249901D02*
X172864285Y-105345139D01*
X172864285Y-105345139D02*
X172911904Y-105535615D01*
X172911904Y-105535615D02*
X172911904Y-105773710D01*
X172911904Y-105773710D02*
X172864285Y-105964186D01*
X172864285Y-105964186D02*
X172816666Y-106059424D01*
X172816666Y-106059424D02*
X172769047Y-106107044D01*
X172769047Y-106107044D02*
X172673809Y-106154663D01*
X172673809Y-106154663D02*
X172578571Y-106154663D01*
X172578571Y-106154663D02*
X172483333Y-106107044D01*
X172483333Y-106107044D02*
X172435714Y-106059424D01*
X172435714Y-106059424D02*
X172388095Y-105964186D01*
X172388095Y-105964186D02*
X172340476Y-105773710D01*
X172340476Y-105773710D02*
X172340476Y-105535615D01*
X172340476Y-105535615D02*
X172388095Y-105345139D01*
X172388095Y-105345139D02*
X172435714Y-105249901D01*
X172435714Y-105249901D02*
X172483333Y-105202282D01*
X172483333Y-105202282D02*
X172578571Y-105154663D01*
X173383333Y-103354663D02*
X172907143Y-103354663D01*
X172907143Y-103354663D02*
X172907143Y-102354663D01*
X173669048Y-102449901D02*
X173716667Y-102402282D01*
X173716667Y-102402282D02*
X173811905Y-102354663D01*
X173811905Y-102354663D02*
X174050000Y-102354663D01*
X174050000Y-102354663D02*
X174145238Y-102402282D01*
X174145238Y-102402282D02*
X174192857Y-102449901D01*
X174192857Y-102449901D02*
X174240476Y-102545139D01*
X174240476Y-102545139D02*
X174240476Y-102640377D01*
X174240476Y-102640377D02*
X174192857Y-102783234D01*
X174192857Y-102783234D02*
X173621429Y-103354663D01*
X173621429Y-103354663D02*
X174240476Y-103354663D01*
X172107142Y-82159424D02*
X172059523Y-82207044D01*
X172059523Y-82207044D02*
X171916666Y-82254663D01*
X171916666Y-82254663D02*
X171821428Y-82254663D01*
X171821428Y-82254663D02*
X171678571Y-82207044D01*
X171678571Y-82207044D02*
X171583333Y-82111805D01*
X171583333Y-82111805D02*
X171535714Y-82016567D01*
X171535714Y-82016567D02*
X171488095Y-81826091D01*
X171488095Y-81826091D02*
X171488095Y-81683234D01*
X171488095Y-81683234D02*
X171535714Y-81492758D01*
X171535714Y-81492758D02*
X171583333Y-81397520D01*
X171583333Y-81397520D02*
X171678571Y-81302282D01*
X171678571Y-81302282D02*
X171821428Y-81254663D01*
X171821428Y-81254663D02*
X171916666Y-81254663D01*
X171916666Y-81254663D02*
X172059523Y-81302282D01*
X172059523Y-81302282D02*
X172107142Y-81349901D01*
X173059523Y-82254663D02*
X172488095Y-82254663D01*
X172773809Y-82254663D02*
X172773809Y-81254663D01*
X172773809Y-81254663D02*
X172678571Y-81397520D01*
X172678571Y-81397520D02*
X172583333Y-81492758D01*
X172583333Y-81492758D02*
X172488095Y-81540377D01*
X173392857Y-81254663D02*
X174011904Y-81254663D01*
X174011904Y-81254663D02*
X173678571Y-81635615D01*
X173678571Y-81635615D02*
X173821428Y-81635615D01*
X173821428Y-81635615D02*
X173916666Y-81683234D01*
X173916666Y-81683234D02*
X173964285Y-81730853D01*
X173964285Y-81730853D02*
X174011904Y-81826091D01*
X174011904Y-81826091D02*
X174011904Y-82064186D01*
X174011904Y-82064186D02*
X173964285Y-82159424D01*
X173964285Y-82159424D02*
X173916666Y-82207044D01*
X173916666Y-82207044D02*
X173821428Y-82254663D01*
X173821428Y-82254663D02*
X173535714Y-82254663D01*
X173535714Y-82254663D02*
X173440476Y-82207044D01*
X173440476Y-82207044D02*
X173392857Y-82159424D01*
X159609424Y-110842857D02*
X159657044Y-110890476D01*
X159657044Y-110890476D02*
X159704663Y-111033333D01*
X159704663Y-111033333D02*
X159704663Y-111128571D01*
X159704663Y-111128571D02*
X159657044Y-111271428D01*
X159657044Y-111271428D02*
X159561805Y-111366666D01*
X159561805Y-111366666D02*
X159466567Y-111414285D01*
X159466567Y-111414285D02*
X159276091Y-111461904D01*
X159276091Y-111461904D02*
X159133234Y-111461904D01*
X159133234Y-111461904D02*
X158942758Y-111414285D01*
X158942758Y-111414285D02*
X158847520Y-111366666D01*
X158847520Y-111366666D02*
X158752282Y-111271428D01*
X158752282Y-111271428D02*
X158704663Y-111128571D01*
X158704663Y-111128571D02*
X158704663Y-111033333D01*
X158704663Y-111033333D02*
X158752282Y-110890476D01*
X158752282Y-110890476D02*
X158799901Y-110842857D01*
X158704663Y-110509523D02*
X158704663Y-109890476D01*
X158704663Y-109890476D02*
X159085615Y-110223809D01*
X159085615Y-110223809D02*
X159085615Y-110080952D01*
X159085615Y-110080952D02*
X159133234Y-109985714D01*
X159133234Y-109985714D02*
X159180853Y-109938095D01*
X159180853Y-109938095D02*
X159276091Y-109890476D01*
X159276091Y-109890476D02*
X159514186Y-109890476D01*
X159514186Y-109890476D02*
X159609424Y-109938095D01*
X159609424Y-109938095D02*
X159657044Y-109985714D01*
X159657044Y-109985714D02*
X159704663Y-110080952D01*
X159704663Y-110080952D02*
X159704663Y-110366666D01*
X159704663Y-110366666D02*
X159657044Y-110461904D01*
X159657044Y-110461904D02*
X159609424Y-110509523D01*
X158799901Y-109509523D02*
X158752282Y-109461904D01*
X158752282Y-109461904D02*
X158704663Y-109366666D01*
X158704663Y-109366666D02*
X158704663Y-109128571D01*
X158704663Y-109128571D02*
X158752282Y-109033333D01*
X158752282Y-109033333D02*
X158799901Y-108985714D01*
X158799901Y-108985714D02*
X158895139Y-108938095D01*
X158895139Y-108938095D02*
X158990377Y-108938095D01*
X158990377Y-108938095D02*
X159133234Y-108985714D01*
X159133234Y-108985714D02*
X159704663Y-109557142D01*
X159704663Y-109557142D02*
X159704663Y-108938095D01*
X172773809Y-111578472D02*
X172773809Y-112054663D01*
X172440476Y-111054663D02*
X172773809Y-111578472D01*
X172773809Y-111578472D02*
X173107142Y-111054663D01*
X173392857Y-111149901D02*
X173440476Y-111102282D01*
X173440476Y-111102282D02*
X173535714Y-111054663D01*
X173535714Y-111054663D02*
X173773809Y-111054663D01*
X173773809Y-111054663D02*
X173869047Y-111102282D01*
X173869047Y-111102282D02*
X173916666Y-111149901D01*
X173916666Y-111149901D02*
X173964285Y-111245139D01*
X173964285Y-111245139D02*
X173964285Y-111340377D01*
X173964285Y-111340377D02*
X173916666Y-111483234D01*
X173916666Y-111483234D02*
X173345238Y-112054663D01*
X173345238Y-112054663D02*
X173964285Y-112054663D01*
X153683333Y-94859424D02*
X153635714Y-94907044D01*
X153635714Y-94907044D02*
X153492857Y-94954663D01*
X153492857Y-94954663D02*
X153397619Y-94954663D01*
X153397619Y-94954663D02*
X153254762Y-94907044D01*
X153254762Y-94907044D02*
X153159524Y-94811805D01*
X153159524Y-94811805D02*
X153111905Y-94716567D01*
X153111905Y-94716567D02*
X153064286Y-94526091D01*
X153064286Y-94526091D02*
X153064286Y-94383234D01*
X153064286Y-94383234D02*
X153111905Y-94192758D01*
X153111905Y-94192758D02*
X153159524Y-94097520D01*
X153159524Y-94097520D02*
X153254762Y-94002282D01*
X153254762Y-94002282D02*
X153397619Y-93954663D01*
X153397619Y-93954663D02*
X153492857Y-93954663D01*
X153492857Y-93954663D02*
X153635714Y-94002282D01*
X153635714Y-94002282D02*
X153683333Y-94049901D01*
X154540476Y-94287996D02*
X154540476Y-94954663D01*
X154302381Y-93907044D02*
X154064286Y-94621329D01*
X154064286Y-94621329D02*
X154683333Y-94621329D01*
X167607142Y-108159424D02*
X167559523Y-108207044D01*
X167559523Y-108207044D02*
X167416666Y-108254663D01*
X167416666Y-108254663D02*
X167321428Y-108254663D01*
X167321428Y-108254663D02*
X167178571Y-108207044D01*
X167178571Y-108207044D02*
X167083333Y-108111805D01*
X167083333Y-108111805D02*
X167035714Y-108016567D01*
X167035714Y-108016567D02*
X166988095Y-107826091D01*
X166988095Y-107826091D02*
X166988095Y-107683234D01*
X166988095Y-107683234D02*
X167035714Y-107492758D01*
X167035714Y-107492758D02*
X167083333Y-107397520D01*
X167083333Y-107397520D02*
X167178571Y-107302282D01*
X167178571Y-107302282D02*
X167321428Y-107254663D01*
X167321428Y-107254663D02*
X167416666Y-107254663D01*
X167416666Y-107254663D02*
X167559523Y-107302282D01*
X167559523Y-107302282D02*
X167607142Y-107349901D01*
X167988095Y-107349901D02*
X168035714Y-107302282D01*
X168035714Y-107302282D02*
X168130952Y-107254663D01*
X168130952Y-107254663D02*
X168369047Y-107254663D01*
X168369047Y-107254663D02*
X168464285Y-107302282D01*
X168464285Y-107302282D02*
X168511904Y-107349901D01*
X168511904Y-107349901D02*
X168559523Y-107445139D01*
X168559523Y-107445139D02*
X168559523Y-107540377D01*
X168559523Y-107540377D02*
X168511904Y-107683234D01*
X168511904Y-107683234D02*
X167940476Y-108254663D01*
X167940476Y-108254663D02*
X168559523Y-108254663D01*
X169035714Y-108254663D02*
X169226190Y-108254663D01*
X169226190Y-108254663D02*
X169321428Y-108207044D01*
X169321428Y-108207044D02*
X169369047Y-108159424D01*
X169369047Y-108159424D02*
X169464285Y-108016567D01*
X169464285Y-108016567D02*
X169511904Y-107826091D01*
X169511904Y-107826091D02*
X169511904Y-107445139D01*
X169511904Y-107445139D02*
X169464285Y-107349901D01*
X169464285Y-107349901D02*
X169416666Y-107302282D01*
X169416666Y-107302282D02*
X169321428Y-107254663D01*
X169321428Y-107254663D02*
X169130952Y-107254663D01*
X169130952Y-107254663D02*
X169035714Y-107302282D01*
X169035714Y-107302282D02*
X168988095Y-107349901D01*
X168988095Y-107349901D02*
X168940476Y-107445139D01*
X168940476Y-107445139D02*
X168940476Y-107683234D01*
X168940476Y-107683234D02*
X168988095Y-107778472D01*
X168988095Y-107778472D02*
X169035714Y-107826091D01*
X169035714Y-107826091D02*
X169130952Y-107873710D01*
X169130952Y-107873710D02*
X169321428Y-107873710D01*
X169321428Y-107873710D02*
X169416666Y-107826091D01*
X169416666Y-107826091D02*
X169464285Y-107778472D01*
X169464285Y-107778472D02*
X169511904Y-107683234D01*
X148683333Y-101559424D02*
X148635714Y-101607044D01*
X148635714Y-101607044D02*
X148492857Y-101654663D01*
X148492857Y-101654663D02*
X148397619Y-101654663D01*
X148397619Y-101654663D02*
X148254762Y-101607044D01*
X148254762Y-101607044D02*
X148159524Y-101511805D01*
X148159524Y-101511805D02*
X148111905Y-101416567D01*
X148111905Y-101416567D02*
X148064286Y-101226091D01*
X148064286Y-101226091D02*
X148064286Y-101083234D01*
X148064286Y-101083234D02*
X148111905Y-100892758D01*
X148111905Y-100892758D02*
X148159524Y-100797520D01*
X148159524Y-100797520D02*
X148254762Y-100702282D01*
X148254762Y-100702282D02*
X148397619Y-100654663D01*
X148397619Y-100654663D02*
X148492857Y-100654663D01*
X148492857Y-100654663D02*
X148635714Y-100702282D01*
X148635714Y-100702282D02*
X148683333Y-100749901D01*
X149016667Y-100654663D02*
X149683333Y-100654663D01*
X149683333Y-100654663D02*
X149254762Y-101654663D01*
X155883333Y-106354663D02*
X155550000Y-105878472D01*
X155311905Y-106354663D02*
X155311905Y-105354663D01*
X155311905Y-105354663D02*
X155692857Y-105354663D01*
X155692857Y-105354663D02*
X155788095Y-105402282D01*
X155788095Y-105402282D02*
X155835714Y-105449901D01*
X155835714Y-105449901D02*
X155883333Y-105545139D01*
X155883333Y-105545139D02*
X155883333Y-105687996D01*
X155883333Y-105687996D02*
X155835714Y-105783234D01*
X155835714Y-105783234D02*
X155788095Y-105830853D01*
X155788095Y-105830853D02*
X155692857Y-105878472D01*
X155692857Y-105878472D02*
X155311905Y-105878472D01*
X156216667Y-105354663D02*
X156883333Y-105354663D01*
X156883333Y-105354663D02*
X156454762Y-106354663D01*
X163883333Y-106719424D02*
X163835714Y-106767044D01*
X163835714Y-106767044D02*
X163692857Y-106814663D01*
X163692857Y-106814663D02*
X163597619Y-106814663D01*
X163597619Y-106814663D02*
X163454762Y-106767044D01*
X163454762Y-106767044D02*
X163359524Y-106671805D01*
X163359524Y-106671805D02*
X163311905Y-106576567D01*
X163311905Y-106576567D02*
X163264286Y-106386091D01*
X163264286Y-106386091D02*
X163264286Y-106243234D01*
X163264286Y-106243234D02*
X163311905Y-106052758D01*
X163311905Y-106052758D02*
X163359524Y-105957520D01*
X163359524Y-105957520D02*
X163454762Y-105862282D01*
X163454762Y-105862282D02*
X163597619Y-105814663D01*
X163597619Y-105814663D02*
X163692857Y-105814663D01*
X163692857Y-105814663D02*
X163835714Y-105862282D01*
X163835714Y-105862282D02*
X163883333Y-105909901D01*
X164835714Y-106814663D02*
X164264286Y-106814663D01*
X164550000Y-106814663D02*
X164550000Y-105814663D01*
X164550000Y-105814663D02*
X164454762Y-105957520D01*
X164454762Y-105957520D02*
X164359524Y-106052758D01*
X164359524Y-106052758D02*
X164264286Y-106100377D01*
X167183333Y-93659424D02*
X167135714Y-93707044D01*
X167135714Y-93707044D02*
X166992857Y-93754663D01*
X166992857Y-93754663D02*
X166897619Y-93754663D01*
X166897619Y-93754663D02*
X166754762Y-93707044D01*
X166754762Y-93707044D02*
X166659524Y-93611805D01*
X166659524Y-93611805D02*
X166611905Y-93516567D01*
X166611905Y-93516567D02*
X166564286Y-93326091D01*
X166564286Y-93326091D02*
X166564286Y-93183234D01*
X166564286Y-93183234D02*
X166611905Y-92992758D01*
X166611905Y-92992758D02*
X166659524Y-92897520D01*
X166659524Y-92897520D02*
X166754762Y-92802282D01*
X166754762Y-92802282D02*
X166897619Y-92754663D01*
X166897619Y-92754663D02*
X166992857Y-92754663D01*
X166992857Y-92754663D02*
X167135714Y-92802282D01*
X167135714Y-92802282D02*
X167183333Y-92849901D01*
X168088095Y-92754663D02*
X167611905Y-92754663D01*
X167611905Y-92754663D02*
X167564286Y-93230853D01*
X167564286Y-93230853D02*
X167611905Y-93183234D01*
X167611905Y-93183234D02*
X167707143Y-93135615D01*
X167707143Y-93135615D02*
X167945238Y-93135615D01*
X167945238Y-93135615D02*
X168040476Y-93183234D01*
X168040476Y-93183234D02*
X168088095Y-93230853D01*
X168088095Y-93230853D02*
X168135714Y-93326091D01*
X168135714Y-93326091D02*
X168135714Y-93564186D01*
X168135714Y-93564186D02*
X168088095Y-93659424D01*
X168088095Y-93659424D02*
X168040476Y-93707044D01*
X168040476Y-93707044D02*
X167945238Y-93754663D01*
X167945238Y-93754663D02*
X167707143Y-93754663D01*
X167707143Y-93754663D02*
X167611905Y-93707044D01*
X167611905Y-93707044D02*
X167564286Y-93659424D01*
X169983333Y-93254663D02*
X169650000Y-92778472D01*
X169411905Y-93254663D02*
X169411905Y-92254663D01*
X169411905Y-92254663D02*
X169792857Y-92254663D01*
X169792857Y-92254663D02*
X169888095Y-92302282D01*
X169888095Y-92302282D02*
X169935714Y-92349901D01*
X169935714Y-92349901D02*
X169983333Y-92445139D01*
X169983333Y-92445139D02*
X169983333Y-92587996D01*
X169983333Y-92587996D02*
X169935714Y-92683234D01*
X169935714Y-92683234D02*
X169888095Y-92730853D01*
X169888095Y-92730853D02*
X169792857Y-92778472D01*
X169792857Y-92778472D02*
X169411905Y-92778472D01*
X170364286Y-92349901D02*
X170411905Y-92302282D01*
X170411905Y-92302282D02*
X170507143Y-92254663D01*
X170507143Y-92254663D02*
X170745238Y-92254663D01*
X170745238Y-92254663D02*
X170840476Y-92302282D01*
X170840476Y-92302282D02*
X170888095Y-92349901D01*
X170888095Y-92349901D02*
X170935714Y-92445139D01*
X170935714Y-92445139D02*
X170935714Y-92540377D01*
X170935714Y-92540377D02*
X170888095Y-92683234D01*
X170888095Y-92683234D02*
X170316667Y-93254663D01*
X170316667Y-93254663D02*
X170935714Y-93254663D01*
X150607142Y-94259424D02*
X150559523Y-94307044D01*
X150559523Y-94307044D02*
X150416666Y-94354663D01*
X150416666Y-94354663D02*
X150321428Y-94354663D01*
X150321428Y-94354663D02*
X150178571Y-94307044D01*
X150178571Y-94307044D02*
X150083333Y-94211805D01*
X150083333Y-94211805D02*
X150035714Y-94116567D01*
X150035714Y-94116567D02*
X149988095Y-93926091D01*
X149988095Y-93926091D02*
X149988095Y-93783234D01*
X149988095Y-93783234D02*
X150035714Y-93592758D01*
X150035714Y-93592758D02*
X150083333Y-93497520D01*
X150083333Y-93497520D02*
X150178571Y-93402282D01*
X150178571Y-93402282D02*
X150321428Y-93354663D01*
X150321428Y-93354663D02*
X150416666Y-93354663D01*
X150416666Y-93354663D02*
X150559523Y-93402282D01*
X150559523Y-93402282D02*
X150607142Y-93449901D01*
X151559523Y-94354663D02*
X150988095Y-94354663D01*
X151273809Y-94354663D02*
X151273809Y-93354663D01*
X151273809Y-93354663D02*
X151178571Y-93497520D01*
X151178571Y-93497520D02*
X151083333Y-93592758D01*
X151083333Y-93592758D02*
X150988095Y-93640377D01*
X152178571Y-93354663D02*
X152273809Y-93354663D01*
X152273809Y-93354663D02*
X152369047Y-93402282D01*
X152369047Y-93402282D02*
X152416666Y-93449901D01*
X152416666Y-93449901D02*
X152464285Y-93545139D01*
X152464285Y-93545139D02*
X152511904Y-93735615D01*
X152511904Y-93735615D02*
X152511904Y-93973710D01*
X152511904Y-93973710D02*
X152464285Y-94164186D01*
X152464285Y-94164186D02*
X152416666Y-94259424D01*
X152416666Y-94259424D02*
X152369047Y-94307044D01*
X152369047Y-94307044D02*
X152273809Y-94354663D01*
X152273809Y-94354663D02*
X152178571Y-94354663D01*
X152178571Y-94354663D02*
X152083333Y-94307044D01*
X152083333Y-94307044D02*
X152035714Y-94259424D01*
X152035714Y-94259424D02*
X151988095Y-94164186D01*
X151988095Y-94164186D02*
X151940476Y-93973710D01*
X151940476Y-93973710D02*
X151940476Y-93735615D01*
X151940476Y-93735615D02*
X151988095Y-93545139D01*
X151988095Y-93545139D02*
X152035714Y-93449901D01*
X152035714Y-93449901D02*
X152083333Y-93402282D01*
X152083333Y-93402282D02*
X152178571Y-93354663D01*
X174783333Y-99154663D02*
X174450000Y-98678472D01*
X174211905Y-99154663D02*
X174211905Y-98154663D01*
X174211905Y-98154663D02*
X174592857Y-98154663D01*
X174592857Y-98154663D02*
X174688095Y-98202282D01*
X174688095Y-98202282D02*
X174735714Y-98249901D01*
X174735714Y-98249901D02*
X174783333Y-98345139D01*
X174783333Y-98345139D02*
X174783333Y-98487996D01*
X174783333Y-98487996D02*
X174735714Y-98583234D01*
X174735714Y-98583234D02*
X174688095Y-98630853D01*
X174688095Y-98630853D02*
X174592857Y-98678472D01*
X174592857Y-98678472D02*
X174211905Y-98678472D01*
X175640476Y-98154663D02*
X175450000Y-98154663D01*
X175450000Y-98154663D02*
X175354762Y-98202282D01*
X175354762Y-98202282D02*
X175307143Y-98249901D01*
X175307143Y-98249901D02*
X175211905Y-98392758D01*
X175211905Y-98392758D02*
X175164286Y-98583234D01*
X175164286Y-98583234D02*
X175164286Y-98964186D01*
X175164286Y-98964186D02*
X175211905Y-99059424D01*
X175211905Y-99059424D02*
X175259524Y-99107044D01*
X175259524Y-99107044D02*
X175354762Y-99154663D01*
X175354762Y-99154663D02*
X175545238Y-99154663D01*
X175545238Y-99154663D02*
X175640476Y-99107044D01*
X175640476Y-99107044D02*
X175688095Y-99059424D01*
X175688095Y-99059424D02*
X175735714Y-98964186D01*
X175735714Y-98964186D02*
X175735714Y-98726091D01*
X175735714Y-98726091D02*
X175688095Y-98630853D01*
X175688095Y-98630853D02*
X175640476Y-98583234D01*
X175640476Y-98583234D02*
X175545238Y-98535615D01*
X175545238Y-98535615D02*
X175354762Y-98535615D01*
X175354762Y-98535615D02*
X175259524Y-98583234D01*
X175259524Y-98583234D02*
X175211905Y-98630853D01*
X175211905Y-98630853D02*
X175164286Y-98726091D01*
X168383333Y-87154663D02*
X168050000Y-86678472D01*
X167811905Y-87154663D02*
X167811905Y-86154663D01*
X167811905Y-86154663D02*
X168192857Y-86154663D01*
X168192857Y-86154663D02*
X168288095Y-86202282D01*
X168288095Y-86202282D02*
X168335714Y-86249901D01*
X168335714Y-86249901D02*
X168383333Y-86345139D01*
X168383333Y-86345139D02*
X168383333Y-86487996D01*
X168383333Y-86487996D02*
X168335714Y-86583234D01*
X168335714Y-86583234D02*
X168288095Y-86630853D01*
X168288095Y-86630853D02*
X168192857Y-86678472D01*
X168192857Y-86678472D02*
X167811905Y-86678472D01*
X168716667Y-86154663D02*
X169335714Y-86154663D01*
X169335714Y-86154663D02*
X169002381Y-86535615D01*
X169002381Y-86535615D02*
X169145238Y-86535615D01*
X169145238Y-86535615D02*
X169240476Y-86583234D01*
X169240476Y-86583234D02*
X169288095Y-86630853D01*
X169288095Y-86630853D02*
X169335714Y-86726091D01*
X169335714Y-86726091D02*
X169335714Y-86964186D01*
X169335714Y-86964186D02*
X169288095Y-87059424D01*
X169288095Y-87059424D02*
X169240476Y-87107044D01*
X169240476Y-87107044D02*
X169145238Y-87154663D01*
X169145238Y-87154663D02*
X168859524Y-87154663D01*
X168859524Y-87154663D02*
X168764286Y-87107044D01*
X168764286Y-87107044D02*
X168716667Y-87059424D01*
X175907142Y-100259424D02*
X175859523Y-100307044D01*
X175859523Y-100307044D02*
X175716666Y-100354663D01*
X175716666Y-100354663D02*
X175621428Y-100354663D01*
X175621428Y-100354663D02*
X175478571Y-100307044D01*
X175478571Y-100307044D02*
X175383333Y-100211805D01*
X175383333Y-100211805D02*
X175335714Y-100116567D01*
X175335714Y-100116567D02*
X175288095Y-99926091D01*
X175288095Y-99926091D02*
X175288095Y-99783234D01*
X175288095Y-99783234D02*
X175335714Y-99592758D01*
X175335714Y-99592758D02*
X175383333Y-99497520D01*
X175383333Y-99497520D02*
X175478571Y-99402282D01*
X175478571Y-99402282D02*
X175621428Y-99354663D01*
X175621428Y-99354663D02*
X175716666Y-99354663D01*
X175716666Y-99354663D02*
X175859523Y-99402282D01*
X175859523Y-99402282D02*
X175907142Y-99449901D01*
X176288095Y-99449901D02*
X176335714Y-99402282D01*
X176335714Y-99402282D02*
X176430952Y-99354663D01*
X176430952Y-99354663D02*
X176669047Y-99354663D01*
X176669047Y-99354663D02*
X176764285Y-99402282D01*
X176764285Y-99402282D02*
X176811904Y-99449901D01*
X176811904Y-99449901D02*
X176859523Y-99545139D01*
X176859523Y-99545139D02*
X176859523Y-99640377D01*
X176859523Y-99640377D02*
X176811904Y-99783234D01*
X176811904Y-99783234D02*
X176240476Y-100354663D01*
X176240476Y-100354663D02*
X176859523Y-100354663D01*
X177764285Y-99354663D02*
X177288095Y-99354663D01*
X177288095Y-99354663D02*
X177240476Y-99830853D01*
X177240476Y-99830853D02*
X177288095Y-99783234D01*
X177288095Y-99783234D02*
X177383333Y-99735615D01*
X177383333Y-99735615D02*
X177621428Y-99735615D01*
X177621428Y-99735615D02*
X177716666Y-99783234D01*
X177716666Y-99783234D02*
X177764285Y-99830853D01*
X177764285Y-99830853D02*
X177811904Y-99926091D01*
X177811904Y-99926091D02*
X177811904Y-100164186D01*
X177811904Y-100164186D02*
X177764285Y-100259424D01*
X177764285Y-100259424D02*
X177716666Y-100307044D01*
X177716666Y-100307044D02*
X177621428Y-100354663D01*
X177621428Y-100354663D02*
X177383333Y-100354663D01*
X177383333Y-100354663D02*
X177288095Y-100307044D01*
X177288095Y-100307044D02*
X177240476Y-100259424D01*
X162709424Y-91242857D02*
X162757044Y-91290476D01*
X162757044Y-91290476D02*
X162804663Y-91433333D01*
X162804663Y-91433333D02*
X162804663Y-91528571D01*
X162804663Y-91528571D02*
X162757044Y-91671428D01*
X162757044Y-91671428D02*
X162661805Y-91766666D01*
X162661805Y-91766666D02*
X162566567Y-91814285D01*
X162566567Y-91814285D02*
X162376091Y-91861904D01*
X162376091Y-91861904D02*
X162233234Y-91861904D01*
X162233234Y-91861904D02*
X162042758Y-91814285D01*
X162042758Y-91814285D02*
X161947520Y-91766666D01*
X161947520Y-91766666D02*
X161852282Y-91671428D01*
X161852282Y-91671428D02*
X161804663Y-91528571D01*
X161804663Y-91528571D02*
X161804663Y-91433333D01*
X161804663Y-91433333D02*
X161852282Y-91290476D01*
X161852282Y-91290476D02*
X161899901Y-91242857D01*
X162804663Y-90290476D02*
X162804663Y-90861904D01*
X162804663Y-90576190D02*
X161804663Y-90576190D01*
X161804663Y-90576190D02*
X161947520Y-90671428D01*
X161947520Y-90671428D02*
X162042758Y-90766666D01*
X162042758Y-90766666D02*
X162090377Y-90861904D01*
X162233234Y-89719047D02*
X162185615Y-89814285D01*
X162185615Y-89814285D02*
X162137996Y-89861904D01*
X162137996Y-89861904D02*
X162042758Y-89909523D01*
X162042758Y-89909523D02*
X161995139Y-89909523D01*
X161995139Y-89909523D02*
X161899901Y-89861904D01*
X161899901Y-89861904D02*
X161852282Y-89814285D01*
X161852282Y-89814285D02*
X161804663Y-89719047D01*
X161804663Y-89719047D02*
X161804663Y-89528571D01*
X161804663Y-89528571D02*
X161852282Y-89433333D01*
X161852282Y-89433333D02*
X161899901Y-89385714D01*
X161899901Y-89385714D02*
X161995139Y-89338095D01*
X161995139Y-89338095D02*
X162042758Y-89338095D01*
X162042758Y-89338095D02*
X162137996Y-89385714D01*
X162137996Y-89385714D02*
X162185615Y-89433333D01*
X162185615Y-89433333D02*
X162233234Y-89528571D01*
X162233234Y-89528571D02*
X162233234Y-89719047D01*
X162233234Y-89719047D02*
X162280853Y-89814285D01*
X162280853Y-89814285D02*
X162328472Y-89861904D01*
X162328472Y-89861904D02*
X162423710Y-89909523D01*
X162423710Y-89909523D02*
X162614186Y-89909523D01*
X162614186Y-89909523D02*
X162709424Y-89861904D01*
X162709424Y-89861904D02*
X162757044Y-89814285D01*
X162757044Y-89814285D02*
X162804663Y-89719047D01*
X162804663Y-89719047D02*
X162804663Y-89528571D01*
X162804663Y-89528571D02*
X162757044Y-89433333D01*
X162757044Y-89433333D02*
X162709424Y-89385714D01*
X162709424Y-89385714D02*
X162614186Y-89338095D01*
X162614186Y-89338095D02*
X162423710Y-89338095D01*
X162423710Y-89338095D02*
X162328472Y-89385714D01*
X162328472Y-89385714D02*
X162280853Y-89433333D01*
X162280853Y-89433333D02*
X162233234Y-89528571D01*
X159607142Y-106254663D02*
X159273809Y-105778472D01*
X159035714Y-106254663D02*
X159035714Y-105254663D01*
X159035714Y-105254663D02*
X159416666Y-105254663D01*
X159416666Y-105254663D02*
X159511904Y-105302282D01*
X159511904Y-105302282D02*
X159559523Y-105349901D01*
X159559523Y-105349901D02*
X159607142Y-105445139D01*
X159607142Y-105445139D02*
X159607142Y-105587996D01*
X159607142Y-105587996D02*
X159559523Y-105683234D01*
X159559523Y-105683234D02*
X159511904Y-105730853D01*
X159511904Y-105730853D02*
X159416666Y-105778472D01*
X159416666Y-105778472D02*
X159035714Y-105778472D01*
X160559523Y-106254663D02*
X159988095Y-106254663D01*
X160273809Y-106254663D02*
X160273809Y-105254663D01*
X160273809Y-105254663D02*
X160178571Y-105397520D01*
X160178571Y-105397520D02*
X160083333Y-105492758D01*
X160083333Y-105492758D02*
X159988095Y-105540377D01*
X161178571Y-105254663D02*
X161273809Y-105254663D01*
X161273809Y-105254663D02*
X161369047Y-105302282D01*
X161369047Y-105302282D02*
X161416666Y-105349901D01*
X161416666Y-105349901D02*
X161464285Y-105445139D01*
X161464285Y-105445139D02*
X161511904Y-105635615D01*
X161511904Y-105635615D02*
X161511904Y-105873710D01*
X161511904Y-105873710D02*
X161464285Y-106064186D01*
X161464285Y-106064186D02*
X161416666Y-106159424D01*
X161416666Y-106159424D02*
X161369047Y-106207044D01*
X161369047Y-106207044D02*
X161273809Y-106254663D01*
X161273809Y-106254663D02*
X161178571Y-106254663D01*
X161178571Y-106254663D02*
X161083333Y-106207044D01*
X161083333Y-106207044D02*
X161035714Y-106159424D01*
X161035714Y-106159424D02*
X160988095Y-106064186D01*
X160988095Y-106064186D02*
X160940476Y-105873710D01*
X160940476Y-105873710D02*
X160940476Y-105635615D01*
X160940476Y-105635615D02*
X160988095Y-105445139D01*
X160988095Y-105445139D02*
X161035714Y-105349901D01*
X161035714Y-105349901D02*
X161083333Y-105302282D01*
X161083333Y-105302282D02*
X161178571Y-105254663D01*
X181307142Y-102959424D02*
X181259523Y-103007044D01*
X181259523Y-103007044D02*
X181116666Y-103054663D01*
X181116666Y-103054663D02*
X181021428Y-103054663D01*
X181021428Y-103054663D02*
X180878571Y-103007044D01*
X180878571Y-103007044D02*
X180783333Y-102911805D01*
X180783333Y-102911805D02*
X180735714Y-102816567D01*
X180735714Y-102816567D02*
X180688095Y-102626091D01*
X180688095Y-102626091D02*
X180688095Y-102483234D01*
X180688095Y-102483234D02*
X180735714Y-102292758D01*
X180735714Y-102292758D02*
X180783333Y-102197520D01*
X180783333Y-102197520D02*
X180878571Y-102102282D01*
X180878571Y-102102282D02*
X181021428Y-102054663D01*
X181021428Y-102054663D02*
X181116666Y-102054663D01*
X181116666Y-102054663D02*
X181259523Y-102102282D01*
X181259523Y-102102282D02*
X181307142Y-102149901D01*
X181688095Y-102149901D02*
X181735714Y-102102282D01*
X181735714Y-102102282D02*
X181830952Y-102054663D01*
X181830952Y-102054663D02*
X182069047Y-102054663D01*
X182069047Y-102054663D02*
X182164285Y-102102282D01*
X182164285Y-102102282D02*
X182211904Y-102149901D01*
X182211904Y-102149901D02*
X182259523Y-102245139D01*
X182259523Y-102245139D02*
X182259523Y-102340377D01*
X182259523Y-102340377D02*
X182211904Y-102483234D01*
X182211904Y-102483234D02*
X181640476Y-103054663D01*
X181640476Y-103054663D02*
X182259523Y-103054663D01*
X182592857Y-102054663D02*
X183211904Y-102054663D01*
X183211904Y-102054663D02*
X182878571Y-102435615D01*
X182878571Y-102435615D02*
X183021428Y-102435615D01*
X183021428Y-102435615D02*
X183116666Y-102483234D01*
X183116666Y-102483234D02*
X183164285Y-102530853D01*
X183164285Y-102530853D02*
X183211904Y-102626091D01*
X183211904Y-102626091D02*
X183211904Y-102864186D01*
X183211904Y-102864186D02*
X183164285Y-102959424D01*
X183164285Y-102959424D02*
X183116666Y-103007044D01*
X183116666Y-103007044D02*
X183021428Y-103054663D01*
X183021428Y-103054663D02*
X182735714Y-103054663D01*
X182735714Y-103054663D02*
X182640476Y-103007044D01*
X182640476Y-103007044D02*
X182592857Y-102959424D01*
X176516666Y-97254663D02*
X176516666Y-97968948D01*
X176516666Y-97968948D02*
X176469047Y-98111805D01*
X176469047Y-98111805D02*
X176373809Y-98207044D01*
X176373809Y-98207044D02*
X176230952Y-98254663D01*
X176230952Y-98254663D02*
X176135714Y-98254663D01*
X177516666Y-98254663D02*
X176945238Y-98254663D01*
X177230952Y-98254663D02*
X177230952Y-97254663D01*
X177230952Y-97254663D02*
X177135714Y-97397520D01*
X177135714Y-97397520D02*
X177040476Y-97492758D01*
X177040476Y-97492758D02*
X176945238Y-97540377D01*
X173507142Y-96759424D02*
X173459523Y-96807044D01*
X173459523Y-96807044D02*
X173316666Y-96854663D01*
X173316666Y-96854663D02*
X173221428Y-96854663D01*
X173221428Y-96854663D02*
X173078571Y-96807044D01*
X173078571Y-96807044D02*
X172983333Y-96711805D01*
X172983333Y-96711805D02*
X172935714Y-96616567D01*
X172935714Y-96616567D02*
X172888095Y-96426091D01*
X172888095Y-96426091D02*
X172888095Y-96283234D01*
X172888095Y-96283234D02*
X172935714Y-96092758D01*
X172935714Y-96092758D02*
X172983333Y-95997520D01*
X172983333Y-95997520D02*
X173078571Y-95902282D01*
X173078571Y-95902282D02*
X173221428Y-95854663D01*
X173221428Y-95854663D02*
X173316666Y-95854663D01*
X173316666Y-95854663D02*
X173459523Y-95902282D01*
X173459523Y-95902282D02*
X173507142Y-95949901D01*
X173888095Y-95949901D02*
X173935714Y-95902282D01*
X173935714Y-95902282D02*
X174030952Y-95854663D01*
X174030952Y-95854663D02*
X174269047Y-95854663D01*
X174269047Y-95854663D02*
X174364285Y-95902282D01*
X174364285Y-95902282D02*
X174411904Y-95949901D01*
X174411904Y-95949901D02*
X174459523Y-96045139D01*
X174459523Y-96045139D02*
X174459523Y-96140377D01*
X174459523Y-96140377D02*
X174411904Y-96283234D01*
X174411904Y-96283234D02*
X173840476Y-96854663D01*
X173840476Y-96854663D02*
X174459523Y-96854663D01*
X174792857Y-95854663D02*
X175459523Y-95854663D01*
X175459523Y-95854663D02*
X175030952Y-96854663D01*
D11*
%TO.C,J3*%
X147580000Y-108270000D02*
X147580000Y-115950000D01*
X144920000Y-107000000D02*
X144920000Y-105670000D01*
X144920000Y-115950000D02*
X147580000Y-115950000D01*
X144920000Y-108270000D02*
X147580000Y-108270000D01*
X144920000Y-105670000D02*
X146250000Y-105670000D01*
X144920000Y-108270000D02*
X144920000Y-115950000D01*
%TO.C,C30*%
X172912164Y-106420000D02*
X173127836Y-106420000D01*
X172912164Y-107140000D02*
X173127836Y-107140000D01*
%TO.C,C19*%
X164640580Y-91760000D02*
X164359420Y-91760000D01*
X164640580Y-90740000D02*
X164359420Y-90740000D01*
%TO.C,C22*%
X179377836Y-101640000D02*
X179162164Y-101640000D01*
X179377836Y-100920000D02*
X179162164Y-100920000D01*
%TO.C,C3*%
X156662164Y-92890000D02*
X156877836Y-92890000D01*
X156662164Y-93610000D02*
X156877836Y-93610000D01*
%TO.C,U4*%
X151040000Y-87860000D02*
X152650000Y-87860000D01*
X151040000Y-71750000D02*
X151040000Y-87860000D01*
X167260000Y-71750000D02*
X167260000Y-87750000D01*
%TO.C,U2*%
X174435000Y-86980000D02*
X174435000Y-80970000D01*
X181255000Y-84730000D02*
X181255000Y-80970000D01*
X174435000Y-80970000D02*
X175695000Y-80970000D01*
X181255000Y-80970000D02*
X179995000Y-80970000D01*
%TO.C,R1*%
X151506359Y-91020000D02*
X151813641Y-91020000D01*
X151506359Y-91780000D02*
X151813641Y-91780000D01*
%TO.C,R8*%
X155903641Y-108630000D02*
X155596359Y-108630000D01*
X155903641Y-107870000D02*
X155596359Y-107870000D01*
%TO.C,C12*%
X174261252Y-89235000D02*
X173738748Y-89235000D01*
X174261252Y-87765000D02*
X173738748Y-87765000D01*
%TO.C,Y1*%
X150300000Y-94690000D02*
X147000000Y-94690000D01*
X147000000Y-94690000D02*
X147000000Y-98690000D01*
%TO.C,C6*%
X152877836Y-101035000D02*
X152662164Y-101035000D01*
X152877836Y-100315000D02*
X152662164Y-100315000D01*
%TO.C,C21*%
X174890000Y-104807836D02*
X174890000Y-104592164D01*
X175610000Y-104807836D02*
X175610000Y-104592164D01*
%TO.C,U1*%
X156227500Y-95690000D02*
X156227500Y-96140000D01*
X156227500Y-96140000D02*
X154937500Y-96140000D01*
X156227500Y-102910000D02*
X156227500Y-102460000D01*
X156677500Y-95690000D02*
X156227500Y-95690000D01*
X156677500Y-102910000D02*
X156227500Y-102910000D01*
X162997500Y-95690000D02*
X163447500Y-95690000D01*
X162997500Y-102910000D02*
X163447500Y-102910000D01*
X163447500Y-95690000D02*
X163447500Y-96140000D01*
X163447500Y-102910000D02*
X163447500Y-102460000D01*
%TO.C,C2*%
X166110000Y-96212164D02*
X166110000Y-96427836D01*
X165390000Y-96212164D02*
X165390000Y-96427836D01*
%TO.C,J2*%
X178880000Y-70670000D02*
X178880000Y-72000000D01*
X177550000Y-70670000D02*
X178880000Y-70670000D01*
X176280000Y-70670000D02*
X168600000Y-70670000D01*
X176280000Y-70670000D02*
X176280000Y-73330000D01*
X168600000Y-70670000D02*
X168600000Y-73330000D01*
X176280000Y-73330000D02*
X168600000Y-73330000D01*
%TO.C,J5*%
X166460000Y-125887500D02*
X166460000Y-125487500D01*
X166460000Y-125887500D02*
X152640000Y-125887500D01*
X166460000Y-122967500D02*
X166460000Y-117187500D01*
X166460000Y-114667500D02*
X166460000Y-111967500D01*
X152640000Y-125887500D02*
X152640000Y-125487500D01*
X152640000Y-122967500D02*
X152640000Y-117187500D01*
X152640000Y-114667500D02*
X152640000Y-111967500D01*
X152640000Y-111967500D02*
X166460000Y-111967500D01*
%TO.C,U5*%
X167952500Y-104140000D02*
X167952500Y-103415000D01*
X168677500Y-99920000D02*
X167952500Y-99920000D01*
X168677500Y-104140000D02*
X167952500Y-104140000D01*
X171447500Y-99920000D02*
X172172500Y-99920000D01*
X171447500Y-104140000D02*
X172172500Y-104140000D01*
X172172500Y-99920000D02*
X172172500Y-100645000D01*
X172172500Y-104140000D02*
X172172500Y-103415000D01*
%TO.C,SW1*%
X145940000Y-86400000D02*
X145150000Y-86400000D01*
X144140000Y-87000000D02*
X144140000Y-92700000D01*
X146990000Y-88250000D02*
X146990000Y-89950000D01*
X146990000Y-91250000D02*
X146990000Y-91450000D01*
X145150000Y-93300000D02*
X145940000Y-93300000D01*
%TO.C,C24*%
X170662164Y-98420000D02*
X170877836Y-98420000D01*
X170662164Y-99140000D02*
X170877836Y-99140000D01*
%TO.C,R9*%
X159923641Y-107380000D02*
X159616359Y-107380000D01*
X159923641Y-106620000D02*
X159616359Y-106620000D01*
%TO.C,C26*%
X169262164Y-104920000D02*
X169477836Y-104920000D01*
X169262164Y-105640000D02*
X169477836Y-105640000D01*
%TO.C,C31*%
X157577836Y-111110000D02*
X157362164Y-111110000D01*
X157577836Y-110390000D02*
X157362164Y-110390000D01*
%TO.C,C9*%
X153357836Y-99860000D02*
X153142164Y-99860000D01*
X153357836Y-99140000D02*
X153142164Y-99140000D01*
%TO.C,C17*%
X160332164Y-89390000D02*
X160547836Y-89390000D01*
X160332164Y-90110000D02*
X160547836Y-90110000D01*
%TO.C,C8*%
X151127836Y-104110000D02*
X150912164Y-104110000D01*
X151127836Y-103390000D02*
X150912164Y-103390000D01*
%TO.C,C11*%
X151610000Y-97662164D02*
X151610000Y-97877836D01*
X150890000Y-97662164D02*
X150890000Y-97877836D01*
%TO.C,D1*%
X169860000Y-85552500D02*
X171330000Y-85552500D01*
X171330000Y-85552500D02*
X171330000Y-83267500D01*
X169860000Y-83267500D02*
X169860000Y-85552500D01*
%TO.C,FB1*%
X153510000Y-102799721D02*
X153510000Y-103125279D01*
X152490000Y-102799721D02*
X152490000Y-103125279D01*
%TO.C,C28*%
X168837836Y-99140000D02*
X168622164Y-99140000D01*
X168837836Y-98420000D02*
X168622164Y-98420000D01*
%TO.C,C20*%
X173140000Y-104807836D02*
X173140000Y-104592164D01*
X173860000Y-104807836D02*
X173860000Y-104592164D01*
%TO.C,C13*%
X173580000Y-84068748D02*
X173580000Y-84591252D01*
X172110000Y-84068748D02*
X172110000Y-84591252D01*
%TO.C,C32*%
X157577836Y-109860000D02*
X157362164Y-109860000D01*
X157577836Y-109140000D02*
X157362164Y-109140000D01*
%TO.C,Y2*%
X169900000Y-107480000D02*
X169900000Y-110780000D01*
X169900000Y-110780000D02*
X173900000Y-110780000D01*
%TO.C,C4*%
X153440000Y-96107836D02*
X153440000Y-95892164D01*
X154160000Y-96107836D02*
X154160000Y-95892164D01*
%TO.C,C29*%
X170737836Y-107140000D02*
X170522164Y-107140000D01*
X170737836Y-106420000D02*
X170522164Y-106420000D01*
%TO.C,C7*%
X151127836Y-102610000D02*
X150912164Y-102610000D01*
X151127836Y-101890000D02*
X150912164Y-101890000D01*
%TO.C,R7*%
X156606359Y-106620000D02*
X156913641Y-106620000D01*
X156606359Y-107380000D02*
X156913641Y-107380000D01*
%TO.C,C1*%
X162987836Y-105560000D02*
X162772164Y-105560000D01*
X162987836Y-104840000D02*
X162772164Y-104840000D01*
%TO.C,C5*%
X167760000Y-95359420D02*
X167760000Y-95640580D01*
X166740000Y-95359420D02*
X166740000Y-95640580D01*
%TO.C,R2*%
X170430000Y-94336359D02*
X170430000Y-94643641D01*
X169670000Y-94336359D02*
X169670000Y-94643641D01*
%TO.C,C10*%
X150890000Y-95882836D02*
X150890000Y-95667164D01*
X151610000Y-95882836D02*
X151610000Y-95667164D01*
%TO.C,R6*%
X172836359Y-98400000D02*
X173143641Y-98400000D01*
X172836359Y-99160000D02*
X173143641Y-99160000D01*
%TO.C,R3*%
X169965000Y-86923641D02*
X169965000Y-86616359D01*
X170725000Y-86923641D02*
X170725000Y-86616359D01*
%TO.C,C25*%
X173860000Y-100692164D02*
X173860000Y-100907836D01*
X173140000Y-100692164D02*
X173140000Y-100907836D01*
%TO.C,C18*%
X164047836Y-90110000D02*
X163832164Y-90110000D01*
X164047836Y-89390000D02*
X163832164Y-89390000D01*
%TO.C,R10*%
X160596359Y-107870000D02*
X160903641Y-107870000D01*
X160596359Y-108630000D02*
X160903641Y-108630000D01*
%TO.C,C23*%
X179357836Y-102890000D02*
X179142164Y-102890000D01*
X179357836Y-102170000D02*
X179142164Y-102170000D01*
D12*
%TO.C,J1*%
X180650000Y-99155000D02*
X182050000Y-99155000D01*
X184450000Y-99155000D02*
X184600000Y-99155000D01*
X184600000Y-99155000D02*
X184600000Y-98855000D01*
X184600000Y-98855000D02*
X185050000Y-98855000D01*
X178475000Y-96805000D02*
X178900000Y-96805000D01*
X178900000Y-96805000D02*
X178900000Y-97805000D01*
X178475000Y-96080000D02*
X178475000Y-96805000D01*
X178900000Y-93205000D02*
X178900000Y-92205000D01*
X184600000Y-91155000D02*
X184600000Y-90855000D01*
X185050000Y-91155000D02*
X184600000Y-91155000D01*
X182050000Y-90855000D02*
X180650000Y-90855000D01*
X184600000Y-90855000D02*
X184450000Y-90855000D01*
D11*
%TO.C,C27*%
X171009420Y-96890000D02*
X171290580Y-96890000D01*
X171009420Y-97910000D02*
X171290580Y-97910000D01*
%TD*%
M02*
