M48
; DRILL file {KiCad 7.0.8} date Mon Nov  6 16:26:25 2023
; FORMAT={-:-/ absolute / metric / decimal}
; #@! TF.CreationDate,2023-11-06T16:26:25-06:00
; #@! TF.GenerationSoftware,Kicad,Pcbnew,7.0.8
; #@! TF.FileFunction,Plated,1,2,PTH
FMAT,2
METRIC
; #@! TA.AperFunction,Plated,PTH,ViaDrill
T1C0.300
; #@! TA.AperFunction,Plated,PTH,ViaDrill
T2C0.400
; #@! TA.AperFunction,Plated,PTH,ComponentDrill
T3C0.550
; #@! TA.AperFunction,Plated,PTH,ComponentDrill
T4C0.850
; #@! TA.AperFunction,Plated,PTH,ComponentDrill
T5C1.000
%
G90
G05
T1
X155.3Y-94.8
T2
X146.15Y-97.7
X149.15Y-87.6
X149.25Y-93.8
X149.25Y-102.3
X150.6Y-115.925
X150.625Y-124.225
X151.35Y-99.4
X153.25Y-74.25
X154.17Y-102.92
X154.5Y-90.6
X154.5Y-92.2
X156.8Y-92.15
X157.25Y-119.875
X157.464Y-105.914
X157.498Y-108.252
X157.75Y-112.25
X159.5Y-112.25
X160.5Y-109.5
X160.675Y-91.025
X161.8Y-85.749
X162.45Y-106.3
X162.5Y-109.5
X163.35Y-85.8
X164.283Y-92.533
X164.5Y-103.5
X166.011Y-94.261
X166.5Y-101.5
X166.675Y-89.85
X167.35Y-82.0
X168.5Y-115.925
X168.5Y-124.225
X168.75Y-74.5
X168.775Y-95.1
X168.875Y-106.55
X169.05Y-97.65
X169.799Y-82.0
X171.25Y-96.254
X171.45Y-94.1
X171.55Y-87.8
X171.55Y-88.8
X172.25Y-86.75
X173.15Y-97.5
X173.25Y-86.75
X174.65Y-107.2
X174.65Y-109.9
X174.8Y-100.025
X175.75Y-93.8
X176.45Y-105.2
X176.55Y-96.4
X177.15Y-93.8
X178.95Y-103.6
X180.85Y-100.5
X180.95Y-103.9
T5
X146.25Y-107.0
X146.25Y-109.54
X146.25Y-112.08
X146.25Y-114.62
X169.93Y-72.0
X172.47Y-72.0
X175.01Y-72.0
X177.55Y-72.0
T3
G00X182.925Y-91.13
M15
G01X183.575Y-91.13
M16
G05
G00X182.925Y-98.88
M15
G01X183.575Y-98.88
M16
G05
T4
G00X179.175Y-91.28
M15
G01X179.725Y-91.28
M16
G05
G00X179.175Y-98.73
M15
G01X179.725Y-98.73
M16
G05
T0
M30
